<?xml version="1.0" encoding="utf-8"?>
<!-- Generator: Adobe Illustrator 19.0.0, SVG Export Plug-In . SVG Version: 6.00 Build 0)  -->
<svg version="1.1" id="Layer_1" xmlns="http://www.w3.org/2000/svg" xmlns:xlink="http://www.w3.org/1999/xlink" x="0px" y="0px"
	 viewBox="0 0 300 300" enable-background="new 0 0 300 300" xml:space="preserve">
<g id="XMLID_4_">
	<g id="XMLID_62_">
		<path id="XMLID_63_" d="M296.8,0H3.2C1.4,0,0,1.4,0,3.2v293.6c0,1.8,1.4,3.2,3.2,3.2h293.6c1.8,0,3.2-1.4,3.2-3.2V3.2
			C300,1.4,298.6,0,296.8,0z M250,150.9c0,7.8-6.4,14.1-14.1,14.1H165v70.9c0,7.8-6.4,14.1-14.1,14.1h-1.8
			c-7.8,0-14.1-6.4-14.1-14.1V165H64.1c-7.8,0-14.1-6.4-14.1-14.1v-1.8c0-7.8,6.4-14.1,14.1-14.1H135V64.1c0-7.8,6.4-14.1,14.1-14.1
			h1.8c7.8,0,14.1,6.4,14.1,14.1V135h70.9c7.8,0,14.1,6.4,14.1,14.1V150.9z"/>
	</g>
</g>
</svg>
