<?xml version="1.0" encoding="utf-8"?>
<!-- Generator: Adobe Illustrator 19.0.0, SVG Export Plug-In . SVG Version: 6.00 Build 0)  -->
<svg version="1.1" id="Lager_1" xmlns="http://www.w3.org/2000/svg" xmlns:xlink="http://www.w3.org/1999/xlink" x="0px" y="0px"
	 viewBox="3 -0.8 106.8 100.8" style="enable-background:new 3 -0.8 106.8 100.8;" xml:space="preserve">
<style type="text/css">
	.st0{fill:#FFFFFF;}
	.st1{fill:#F4F4F4;}
</style>
<path class="st0" d="M38,51.8L42.1,24c-1.7,0-4.5,0-4.5,0c-2.1,0-4.8-1.2-5.6-3.5c-0.3-0.8-0.8-3.5,2.6-6c1.2-0.9,2.1-1.9,2.2-2.7
	c0.2-0.8,0-1.5-0.6-2.1c-0.7-0.7-2.2-1.2-4-1.2c-3.2,0-5.4,2-5.6,3.4c-0.2,1.1,0.7,1.9,1.3,2.4c2,1.6,2.4,3.9,1.2,6
	c-1.3,2.2-4,3.7-6.9,3.7c0,0-2.9,0-4.6,0c-0.4,2.7-6.6,44.3-7,47.5h24.7C35.3,70.1,36.5,62.2,38,51.8L38,51.8z"/>
<path class="st1" d="M71-0.4H45.9l-3.4,22.5h4.3c2.3,0,4.6-1.1,5.5-2.8c0.3-0.5,0.5-1,0.5-1.4c0-0.9-0.6-1.7-1.2-2.1
	c-1.7-1.3-2-2.7-2-3.7c0-0.2,0-0.4,0-0.5c0.4-2.4,3.4-5,7.4-5c2.4,0,4.2,0.6,5.3,1.7c0.9,1,1.4,2.4,1.1,3.8c-0.4,1.7-2,3.1-2.9,3.8
	c-2.4,1.8-2.2,3.4-2,3.9c0.5,1.4,2.4,2.3,3.9,2.3h6.6l0,0c8.9,0.1,13.7,4.4,12.1,14.5C79.8,45.8,73.1,49.9,65,50l-3.4,21.5h4.7
	c20,0,36.2-13.6,39.4-34.9C109.8,10.2,93.9-0.4,71-0.4z"/>
<g>
	<g>
		<path class="st1" d="M9.1,81.1h10.1c4.3,0,5.3,2.3,5.1,4.5c-0.3,1.7-1.3,3-3.3,3.8c2.4,1,3.4,2.5,3,4.9c-0.5,3-2.9,5.1-6.1,5.1
			H6.4L9.1,81.1z M15.8,88.7c2,0,2.9-1.1,3.1-2.4c0.2-1.4-0.4-2.4-2.3-2.4h-1.8L14,88.7H15.8z M14.6,96.6c2.1,0,3.2-0.9,3.5-2.7
			c0.2-1.5-0.6-2.5-2.5-2.5h-2l-0.7,5.1H14.6z"/>
		<path class="st1" d="M38.1,99.5c-2.6,0.2-3.9-0.1-4.5-1.3c-1.4,0.9-2.9,1.4-4.6,1.4c-3,0-4-1.6-3.7-3.5c0.1-0.9,0.6-1.7,1.4-2.4
			c1.6-1.5,5.7-1.7,7.3-2.9c0.1-1.3-0.4-1.8-1.9-1.8c-1.8,0-3.2,0.6-5.7,2.4l0.6-4.2c2.2-1.7,4.2-2.4,6.7-2.4c3.1,0,5.8,1.3,5.2,4.9
			l-0.6,4.1c-0.2,1.4-0.2,1.9,1.3,1.9L38.1,99.5z M33.6,93.3c-1.4,0.9-4,0.8-4.3,2.7c-0.1,0.9,0.4,1.6,1.2,1.6s1.9-0.4,2.6-1
			c-0.1-0.3,0-0.7,0.1-1.3L33.6,93.3z"/>
		<path class="st1" d="M43,85.2h5.2L48,87.1c1.7-1.5,2.9-2.1,4.6-2.1c2.9,0,4.3,1.9,3.8,5L55,99.4h-5.2l1.1-7.7
			c0.2-1.4-0.2-2.1-1.2-2.1c-0.8,0-1.6,0.5-2.3,1.5l-1.2,8.2h-5.2L43,85.2z"/>
		<path class="st1" d="M60.5,81.1h5.2l-1.3,9l5.1-4.9H76l-6.5,6l5.2,8.1H68l-4-6.5h-0.1L63,99.4h-5.2L60.5,81.1z"/>
	</g>
	<g>
		<path class="st1" d="M9.1,81.1h10.1c4.3,0,5.3,2.3,5.1,4.5c-0.3,1.7-1.3,3-3.3,3.8c2.4,1,3.4,2.5,3,4.9c-0.5,3-2.9,5.1-6.1,5.1
			H6.4L9.1,81.1z M15.8,88.7c2,0,2.9-1.1,3.1-2.4c0.2-1.4-0.4-2.4-2.3-2.4h-1.8L14,88.7H15.8z M14.6,96.6c2.1,0,3.2-0.9,3.5-2.7
			c0.2-1.5-0.6-2.5-2.5-2.5h-2l-0.7,5.1H14.6z"/>
		<path class="st1" d="M38.1,99.5c-2.6,0.2-3.9-0.1-4.5-1.3c-1.4,0.9-2.9,1.4-4.6,1.4c-3,0-4-1.6-3.7-3.5c0.1-0.9,0.6-1.7,1.4-2.4
			c1.6-1.5,5.7-1.7,7.3-2.9c0.1-1.3-0.4-1.8-1.9-1.8c-1.8,0-3.2,0.6-5.7,2.4l0.6-4.2c2.2-1.7,4.2-2.4,6.7-2.4c3.1,0,5.8,1.3,5.2,4.9
			l-0.6,4.1c-0.2,1.4-0.2,1.9,1.3,1.9L38.1,99.5z M33.6,93.3c-1.4,0.9-4,0.8-4.3,2.7c-0.1,0.9,0.4,1.6,1.2,1.6s1.9-0.4,2.6-1
			c-0.1-0.3,0-0.7,0.1-1.3L33.6,93.3z"/>
		<path class="st1" d="M43,85.2h5.2L48,87.1c1.7-1.5,2.9-2.1,4.6-2.1c2.9,0,4.3,1.9,3.8,5L55,99.4h-5.2l1.1-7.7
			c0.2-1.4-0.2-2.1-1.2-2.1c-0.8,0-1.6,0.5-2.3,1.5l-1.2,8.2h-5.2L43,85.2z"/>
		<path class="st1" d="M60.5,81.1h5.2l-1.3,9l5.1-4.9H76l-6.5,6l5.2,8.1H68l-4-6.5h-0.1L63,99.4h-5.2L60.5,81.1z"/>
	</g>
</g>
<g>
	<path class="st0" d="M79.1,81.1h6.1l-2.7,18.2h-6.1L79.1,81.1z"/>
	<path class="st0" d="M88.1,81.1h8.6c6.7,0,8.6,5.1,8,9.4c-0.6,4.2-3.7,8.9-9.6,8.9h-9.6L88.1,81.1z M93.7,95c2.9,0,4.6-1.5,5.1-4.8
		c0.4-2.4-0.4-4.8-3.6-4.8h-1.7l-1.4,9.6L93.7,95L93.7,95z"/>
</g>
</svg>
