<?xml version="1.0" encoding="utf-8"?>
<!-- Generator: Adobe Illustrator 19.0.0, SVG Export Plug-In . SVG Version: 6.00 Build 0)  -->
<svg version="1.1" id="Layer_1" xmlns="http://www.w3.org/2000/svg" xmlns:xlink="http://www.w3.org/1999/xlink" x="0px" y="0px"
	 viewBox="0 0 65 65" style="enable-background:new 0 0 65 65;" xml:space="preserve">
<style type="text/css">
	.st0{fill:#FFFFFF;}
</style>
<g id="XMLID_1_">
	<g id="XMLID_9_">
		<g id="XMLID_58_">
			<path id="XMLID_59_" class="st0" d="M56.8,60.7c-0.3-0.3-0.5-0.7-0.8-1c-1.1-1.4-2.2-2.8-3.2-4.2c-0.3-0.4-0.6-0.8-0.8-1.1
				c-0.2-0.2-0.4-0.5-0.5-0.7c-0.2-0.3-0.5-0.7-0.7-1c-0.1-0.2-0.2-0.3-0.4-0.5c-0.1-0.1-0.1-0.2-0.2-0.2l-0.1-0.1
				c0,0,0-0.1-0.1-0.1l0,0l0,0c-0.8,0.3-1.6,0.6-2.4,0.8c0.4,0.5,0.8,1,1.2,1.5c0.9,1,1.8,2,2.7,3c0.9,1,1.8,2,2.8,3
				c0.6,0.7,1.3,1.4,1.9,2c0.2,0.2,0.4,0.4,0.6,0.5c0.2,0.2,0.5,0.2,0.8,0.3c0.2,0,0.3,0,0.5,0c0.1,0,0.4,0,0.5,0
				c0,0-0.5-0.6-0.6-0.7C57.6,61.7,57.2,61.2,56.8,60.7z"/>
		</g>
	</g>
	<g id="XMLID_5_">
		<g id="XMLID_49_">
			<path id="XMLID_52_" class="st0" d="M45.7,62.6c-0.1-0.2-0.2-0.4-0.3-0.6c-0.2-0.5-0.4-0.9-0.6-1.4c-0.2-0.5-0.4-1-0.6-1.5
				c-0.4-1-0.9-2-1.3-3c-0.1-0.3-0.2-0.6-0.4-0.8c-0.2-0.4-0.3-0.8-0.5-1.2c-0.1-0.2-0.2-0.4-0.2-0.6v-0.1c-0.8,0.1-1.7,0.1-2.5,0.1
				c0.3,0.5,0.5,1.1,0.8,1.6c0.9,1.7,1.9,3.3,2.7,5c0.4,0.9,0.8,1.9,1.5,2.5c0.2,0.2,0.5,0.3,0.8,0.3c0.1,0,0.3,0,0.4,0
				c0.1,0,0.3,0,0.4,0c0.1,0,0.1-0.2,0-0.2C45.8,62.7,45.8,62.7,45.7,62.6z"/>
		</g>
	</g>
	<path id="XMLID_8_" class="st0" d="M45.2,15.7c-0.5-3.3-1.1-6.6-1.6-9.9c0-0.2-1.3-0.4-1.5-0.4c-2.4-0.5-4.8-0.9-7.2-0.8
		c-0.8,0-1.5,0.2-2.3,0.5c-0.7,0.2-1.4,0.5-1.9,1.1c0.3,0.1,0.6,0.1,0.9,0.2c0.3,0.1,0.6,0.2,0.9,0.2c0.6,0.2,1.2,0.4,1.7,0.7
		c1.1,0.5,2.2,1.2,3.2,1.9c2.1,1.4,3.9,3.2,5.8,4.9C43.9,14.5,44.5,15.1,45.2,15.7"/>
	<g id="XMLID_7_">
		<g id="XMLID_42_">
			<path id="XMLID_43_" class="st0" d="M23.1,44.7c-0.3-0.1-0.8,0-1.5,0.5L1,59.6c-1.5,1-1.2,1.9,0.6,2l6.1,0.2
				c0.2,0,0.5-0.1,0.7-0.2c1.7-1.2,10.5-7.4,12.8-9.1C21.5,49.8,22.2,47.2,23.1,44.7z"/>
		</g>
	</g>
	<path id="XMLID_10_" d="M29.7,52.1"/>
	<path id="XMLID_2_" class="st0" d="M29.9,51.8c-0.4-0.6,0.1-1.9,0.3-2.5c0.3-1,0.7-1.9,1.1-2.8c0.7-1.6,1.5-3.1,2.4-4.6
		c1.5-2.6,3.3-5.1,5.3-7.4C31.1,39.5,26.1,48,21.8,56.3c0.3-6.8,2.8-13.4,6-19.4S35.1,25.5,39,19.8c1.3-1.9,2.7-4.3,1.7-6.4
		c-0.3-0.6-0.7-1.2-1-1.8c-0.4-0.9-0.4-2-0.1-3C40.5,5.4,43.7,3.2,47,3c3.3-0.3,6.6,1.2,9,3.4s4.2,5.1,5.6,8
		c2.6,5.6,4.2,12.1,3.1,18.2c-0.6,3.2-1.9,6.2-3.6,8.9c-2.3,3.5-5.3,6.5-9,8.5c-3.1,1.7-6.6,2.5-10.2,2.8c-1.9,0.2-3.7,0.2-5.5,0.2
		c-2,0-4.1-0.2-6-0.9c-0.2-0.1-0.4-0.1-0.5-0.3C29.9,51.9,29.9,51.9,29.9,51.8z"/>
</g>
</svg>
