<?xml version="1.0" encoding="utf-8"?>
<!-- Generator: Adobe Illustrator 19.0.0, SVG Export Plug-In . SVG Version: 6.00 Build 0)  -->
<svg version="1.1" id="Layer_2" xmlns="http://www.w3.org/2000/svg" xmlns:xlink="http://www.w3.org/1999/xlink" x="0px" y="0px"
	 viewBox="0 0 100 100" style="enable-background:new 0 0 100 100;" xml:space="preserve">
<style type="text/css">
	.st0{fill:#F07900;}
</style>
<g id="XMLID_1_">
	<g id="XMLID_9_">
		<g id="XMLID_59_">
			<path id="XMLID_60_" d="M74.4,77.6c-0.3-0.3-0.5-0.7-0.8-1c-1.1-1.4-2.2-2.8-3.2-4.2c-0.3-0.4-0.6-0.8-0.8-1.1
				c-0.2-0.2-0.4-0.5-0.5-0.7c-0.2-0.3-0.5-0.7-0.7-1c-0.1-0.2-0.2-0.3-0.4-0.5c-0.1-0.1-0.1-0.2-0.2-0.2c0,0-0.1-0.1-0.1-0.1
				c0,0,0-0.1-0.1-0.1c0,0,0,0,0,0c0,0,0,0,0,0c-0.8,0.3-1.6,0.6-2.4,0.8c0.4,0.5,0.8,1,1.2,1.5c0.9,1,1.8,2,2.7,3
				c0.9,1,1.8,2,2.8,3c0.6,0.7,1.3,1.4,1.9,2c0.2,0.2,0.4,0.4,0.6,0.5c0.2,0.2,0.5,0.2,0.8,0.3c0.2,0,0.3,0,0.5,0c0.1,0,0.4,0,0.5,0
				c0,0-0.5-0.6-0.6-0.7C75.2,78.6,74.8,78.1,74.4,77.6z"/>
		</g>
	</g>
	<g id="XMLID_5_">
		<g id="XMLID_52_">
			<path id="XMLID_53_" d="M63.2,79.5c-0.1-0.2-0.2-0.4-0.3-0.6c-0.2-0.5-0.4-0.9-0.6-1.4c-0.2-0.5-0.4-1-0.6-1.5
				c-0.4-1-0.9-2-1.3-3c-0.1-0.3-0.2-0.6-0.4-0.8c-0.2-0.4-0.3-0.8-0.5-1.2c-0.1-0.2-0.2-0.4-0.2-0.6c0,0,0-0.1,0-0.1
				c-0.8,0.1-1.7,0.1-2.5,0.1c0.3,0.5,0.5,1.1,0.8,1.6c0.9,1.7,1.9,3.3,2.7,5c0.4,0.9,0.8,1.9,1.5,2.5c0.2,0.2,0.5,0.3,0.8,0.3
				c0.1,0,0.3,0,0.4,0c0.1,0,0.3,0,0.4,0c0.1,0,0.1-0.2,0-0.2C63.3,79.6,63.3,79.6,63.2,79.5z"/>
		</g>
	</g>
	<path id="XMLID_8_" class="st0" d="M62.7,32.8c-0.5-3.3-1.1-6.6-1.6-9.9c0-0.2-1.3-0.4-1.5-0.4c-2.4-0.5-4.8-0.9-7.2-0.8
		c-0.8,0-1.5,0.2-2.3,0.5c-0.7,0.2-1.4,0.5-1.9,1.1c0.3,0.1,0.6,0.1,0.9,0.2c0.3,0.1,0.6,0.2,0.9,0.2c0.6,0.2,1.2,0.4,1.7,0.7
		c1.1,0.5,2.2,1.2,3.2,1.9c2.1,1.4,3.9,3.2,5.8,4.9C61.4,31.6,62,32.2,62.7,32.8"/>
	<g id="XMLID_7_">
		<g id="XMLID_43_">
			<path id="XMLID_44_" d="M40.6,61.6c-0.3-0.1-0.8,0-1.5,0.5L18.5,76.5c-1.5,1-1.2,1.9,0.6,2l6.1,0.2c0.2,0,0.5-0.1,0.7-0.2
				c1.7-1.2,10.5-7.4,12.8-9.1C39,66.7,39.7,64.1,40.6,61.6z"/>
		</g>
	</g>
	<path id="XMLID_10_" d="M47.2,69"/>
	<path id="XMLID_2_" d="M47.4,68.7c-0.4-0.6,0.1-1.9,0.3-2.5c0.3-1,0.7-1.9,1.1-2.8c0.7-1.6,1.5-3.1,2.4-4.6
		c1.5-2.6,3.3-5.1,5.3-7.4c-7.9,5.1-12.9,13.5-17.2,21.8c0.3-6.8,2.8-13.3,6-19.3s7.3-11.4,11.2-17c1.3-1.9,2.7-4.3,1.7-6.4
		c-0.3-0.6-0.7-1.2-1-1.8c-0.4-0.9-0.4-2-0.1-3c0.9-3.2,4.1-5.4,7.4-5.6c3.3-0.3,6.6,1.2,9,3.4s4.2,5.1,5.6,8
		c2.6,5.6,4.2,12,3.1,18.1c-0.6,3.2-1.9,6.2-3.6,8.9c-2.3,3.5-5.3,6.5-9,8.5c-3.1,1.7-6.6,2.5-10.2,2.8C57.5,70,55.7,70,53.9,70
		c-2,0-4.1-0.2-6-0.9c-0.2-0.1-0.4-0.1-0.5-0.3C47.4,68.8,47.4,68.8,47.4,68.7z"/>
</g>
</svg>
