<?xml version="1.0" encoding="utf-8"?>
<!-- Generator: Adobe Illustrator 19.0.0, SVG Export Plug-In . SVG Version: 6.00 Build 0)  -->
<svg version="1.1" id="Layer_1" xmlns="http://www.w3.org/2000/svg" xmlns:xlink="http://www.w3.org/1999/xlink" x="0px" y="0px"
	 viewBox="0 0 100 100" style="enable-background:new 0 0 100 100;" xml:space="preserve">
<circle id="XMLID_1_" cx="15.8" cy="20" r="5"/>
<circle id="XMLID_2_" cx="15.8" cy="50" r="5"/>
<circle id="XMLID_3_" cx="15.8" cy="80" r="5"/>
<path id="XMLID_4_" d="M86.4,27.5H32c-1.5,0-2.8-1.3-2.8-2.8v-9.4c0-1.5,1.3-2.8,2.8-2.8h54.4c1.5,0,2.8,1.3,2.8,2.8v9.4
	C89.2,26.2,87.9,27.5,86.4,27.5z"/>
<path id="XMLID_5_" d="M86.4,57.5H32c-1.5,0-2.8-1.3-2.8-2.8v-9.4c0-1.5,1.3-2.8,2.8-2.8h54.4c1.5,0,2.8,1.3,2.8,2.8v9.4
	C89.2,56.2,87.9,57.5,86.4,57.5z"/>
<path id="XMLID_6_" d="M86.4,87.5H32c-1.5,0-2.8-1.3-2.8-2.8v-9.4c0-1.5,1.3-2.8,2.8-2.8h54.4c1.5,0,2.8,1.3,2.8,2.8v9.4
	C89.2,86.2,87.9,87.5,86.4,87.5z"/>
</svg>
