<?xml version="1.0" encoding="utf-8"?>
<!-- Generator: Adobe Illustrator 19.0.0, SVG Export Plug-In . SVG Version: 6.00 Build 0)  -->
<svg version="1.1" id="Layer_1" xmlns="http://www.w3.org/2000/svg" xmlns:xlink="http://www.w3.org/1999/xlink" x="0px" y="0px"
	 viewBox="0 0 100 100" style="enable-background:new 0 0 100 100;" xml:space="preserve">
<polygon id="XMLID_2_" points="32.8,63.6 16.1,87.6 18,58.4 "/>
<g id="XMLID_6_">
	<g id="XMLID_85_">
		<path id="XMLID_86_" d="M91.6,14.9h-84c-1.2,0-2.2,1-2.2,2.2v44c0,2.1,1.7,3.8,3.8,3.8h82.4c2.1,0,3.8-1.7,3.8-3.8V18.7
			C95.4,16.6,93.7,14.9,91.6,14.9z M22.3,46.2c-3.3,0-6-2.7-6-6s2.7-6,6-6s6,2.7,6,6S25.6,46.2,22.3,46.2z M50.3,46.2
			c-3.3,0-6-2.7-6-6s2.7-6,6-6s6,2.7,6,6S53.6,46.2,50.3,46.2z M77.3,46.2c-3.3,0-6-2.7-6-6s2.7-6,6-6s6,2.7,6,6
			S80.6,46.2,77.3,46.2z"/>
	</g>
</g>
</svg>
