<?xml version="1.0" encoding="utf-8"?>
<!-- Generator: Adobe Illustrator 19.0.0, SVG Export Plug-In . SVG Version: 6.00 Build 0)  -->
<svg version="1.1" id="Layer_1" xmlns="http://www.w3.org/2000/svg" xmlns:xlink="http://www.w3.org/1999/xlink" x="0px" y="0px"
	 viewBox="0 0 50 50" style="enable-background:new 0 0 50 50;" xml:space="preserve">
<style type="text/css">
	.st0{fill:none;stroke:#21D400;stroke-miterlimit:10;}
	.st1{fill:#21D400;}
</style>
<circle id="XMLID_1_" class="st0" cx="25" cy="25" r="22.5"/>
<path id="XMLID_146_" class="st1" d="M22.6,38c-0.2,0.6-0.3,1.1-0.6,1.7c-0.2,0.5-0.9,0.5-1.4,0.5c-0.6,0-1.3,0-1.9,0
	c-0.6,0-1.4,0.1-1.9-0.4c-0.6-0.5-0.9-1.2-1.3-1.8c-1.5-2.3-3.3-4.4-5.1-6.5c-0.1-0.2-0.3-0.3-0.4-0.5c-0.1-0.1-0.1-0.2-0.1-0.3
	c0-0.3,0.7-0.6,0.9-0.8c0.5-0.3,0.9-0.6,1.4-0.9c0.9-0.6,1.9-1.4,2.9-1.8c-0.1,0,1.1,1.7,1.2,1.8c0.6,0.9,1.4,1.5,2.4,1.9
	c0.3,0.1,0.5,0.2,0.8,0.1c0.3-0.1,0.5-0.5,0.6-0.8c0.9-2.2,2.2-4.2,3.4-6.2c1.5-2.4,3-4.7,4.7-6.9c2.2-3,6.6-8.8,11-6.3
	c0.9,0.5,0.3,1.3-0.2,1.8c-1.1,1-2.2,2-3.2,3.1c-3.6,3.9-6.4,8.5-8.8,13.2c-0.9,1.4-1.6,3.1-2.4,4.6C23.9,34.8,23.1,36.3,22.6,38z"
	/>
</svg>
