<?xml version="1.0" encoding="utf-8"?>
<!-- Generator: Adobe Illustrator 19.0.0, SVG Export Plug-In . SVG Version: 6.00 Build 0)  -->
<svg version="1.1" xmlns="http://www.w3.org/2000/svg" xmlns:xlink="http://www.w3.org/1999/xlink" x="0px" y="0px"
	 viewBox="0 0 100 100" style="enable-background:new 0 0 100 100;" xml:space="preserve">
<style type="text/css">
	.st0{display:none;}
	.st1{display:inline;fill:#333333;}
	.st2{fill:#F07900;}
	.st3{font-family:'ArialMT';}
	.st4{font-size:91px;}
	.st5{fill:none;}
	.st6{fill:#E3E3E3;}
	.st7{fill:#FFFFFF;}
	.st8{fill:#0100AA;}
	.st9{fill:#00152A;}
	.st10{fill:#2ABDFF;}
	.st11{fill:#FFF72A;}
	.st12{fill:#AA004F;}
	.st13{fill:#006A0E;}
	.st14{fill:#FF94D2;}
	.st15{font-size:7px;}
</style>
<g id="Layer_3" class="st0">
	<path id="XMLID_11_" class="st1" d="M7.7,35.2c5-8.5,4.8-10.8,4-15.2c-0.8-4.3-2.7-3.7-3-10.5c-0.2-5.1,1.5-7.1,2-7.7
		c2-2.3,6.1-1.2,8.8-1.2c7.9,0.1,13.7,4.1,15.2,5.2c5.6,4,4.3,6,8.5,8.2c5.6,2.8,13.3,2.1,18.2-1.5c3-2.2,2.3-3.5,5.7-6
		c1.1-0.8,6.3-4.6,13-3.5c7.8,1.2,11.7,8,12.7,9.8c0.6,1.1,4,7.6,1.5,13.8c-1.9,4.8-5.2,4.2-8,9.7c-2.9,5.6-2.1,11.4-1.8,12.8
		c0.6,3.6,2,6.1,4.8,11.2c3.6,6.4,4.8,6.3,5.7,9.7c1.6,5.9-0.7,11.2-1.3,12.7c-2.6,6-7.1,9-8,9.5c-6,3.8-13.2,3.9-18.7,1.8
		c-5-1.9-4.3-4.1-9.2-5.5c-4.8-1.4-9.2-0.4-16.5,1.3c-5,1.2-4.8,1.6-9.8,2.8c-8.2,2-12.3,2.9-16,1.5c-6.4-2.5-8.9-9.8-10-13.2
		c-0.7-1.9-3.3-9.8,0-17.5c2.4-5.6,5.9-6.2,5.7-10.2c-0.2-4.2-4.2-5.2-4.8-10.5C6,41,5.6,38.7,7.7,35.2z"/>
</g>
<g id="Layer_1">
	<text id="XMLID_9_" transform="matrix(0.9795 0.4158 -0.3907 0.9205 39.5629 122.2259)" class="st2 st3 st4">”</text>
	
		<rect id="XMLID_10_" x="-4" y="-1.9" transform="matrix(-0.8192 -0.5736 0.5736 -0.8192 -8.315732e-002 77.0174)" class="st5" width="32.2" height="80.9"/>
	<text id="XMLID_4_" transform="matrix(0.8717 0.6103 -0.5736 0.8192 -22.7054 60.1211)" class="st3 st4">“</text>
	<g id="XMLID_47_">
		
			<rect id="XMLID_6_" x="20.9" y="45.5" transform="matrix(0.9781 -0.2079 0.2079 0.9781 -11.7494 7.5531)" class="st6" width="18.3" height="28.3"/>
		
			<rect id="XMLID_7_" x="21.8" y="48.6" transform="matrix(0.9781 -0.2079 0.2079 0.9781 -9.7675 6.9314)" width="12.6" height="2.6"/>
		
			<rect id="XMLID_8_" x="22.8" y="53.6" transform="matrix(0.9781 -0.2079 0.2079 0.9781 -10.8608 6.5264)" width="5.7" height="2.6"/>
		
			<rect id="XMLID_12_" x="29.6" y="52.2" transform="matrix(0.9781 -0.2079 0.2079 0.9781 -10.4159 7.8957)" width="5.6" height="2.6"/>
		
			<rect id="XMLID_13_" x="23.5" y="57.1" transform="matrix(0.9781 -0.2079 0.2079 0.9781 -11.4885 7.4683)" class="st7" width="12.6" height="2.6"/>
		<path id="XMLID_14_" class="st8" d="M36.6,64.8L26.2,67c-0.5,0.1-1.1-0.2-1.2-0.8l-0.1-0.6c-0.1-0.5,0.2-1.1,0.8-1.2L36,62.2
			c0.5-0.1,1.1,0.2,1.2,0.8l0.1,0.6C37.5,64.1,37.1,64.6,36.6,64.8z"/>
	</g>
	<g id="XMLID_46_">
		<path id="XMLID_3_" class="st6" d="M75.1,26.4h-17c-1.7,0-3-1.4-3-3v-6c0-1.6,1.3-3,3-3h17c1.7,0,3,1.4,3,3v6
			C78.1,25.1,76.8,26.4,75.1,26.4z"/>
		<polygon id="XMLID_5_" class="st6" points="61,25.5 56.8,31.4 57.3,24.2 		"/>
		<circle id="XMLID_16_" cx="60.4" cy="20.1" r="1.5"/>
		<circle id="XMLID_17_" cx="66.4" cy="20.1" r="1.5"/>
		<circle id="XMLID_18_" cx="72.4" cy="20.1" r="1.5"/>
	</g>
	<g id="XMLID_49_">
		
			<rect id="XMLID_15_" x="53.5" y="35.1" transform="matrix(0.9962 8.715574e-002 -8.715574e-002 0.9962 4.9646 -5.5397)" class="st9" width="24.8" height="38"/>
		
			<rect id="XMLID_19_" x="58.2" y="37.7" transform="matrix(0.9962 8.715574e-002 -8.715574e-002 0.9962 3.5951 -5.5385)" class="st10" width="14.1" height="1.4"/>
		
			<rect id="XMLID_20_" x="73.4" y="38.6" transform="matrix(0.9962 8.715574e-002 -8.715574e-002 0.9962 3.7122 -6.4277)" class="st10" width="4.1" height="1.4"/>
		
			<rect id="XMLID_21_" x="60.5" y="39.8" transform="matrix(0.9962 8.715574e-002 -8.715574e-002 0.9962 3.7759 -5.4501)" class="st11" width="7.7" height="1.4"/>
		
			<rect id="XMLID_22_" x="68.9" y="40.4" transform="matrix(0.9962 8.715574e-002 -8.715574e-002 0.9962 3.8466 -5.9866)" class="st12" width="3.2" height="1.4"/>
		
			<rect id="XMLID_23_" x="59" y="41.6" transform="matrix(0.9962 8.715574e-002 -8.715574e-002 0.9962 3.9235 -5.1925)" class="st10" width="4.8" height="1.4"/>
		
			<rect id="XMLID_24_" x="64.5" y="42.1" transform="matrix(0.9962 8.715574e-002 -8.715574e-002 0.9962 3.9862 -5.6685)" class="st10" width="4.8" height="1.4"/>
		
			<rect id="XMLID_25_" x="69.8" y="42.5" transform="matrix(0.9962 8.715574e-002 -8.715574e-002 0.9962 4.0314 -6.0117)" class="st11" width="2.1" height="1.4"/>
		
			<rect id="XMLID_26_" x="56.3" y="44.1" transform="matrix(0.9962 8.715574e-002 -8.715574e-002 0.9962 4.1498 -5.4077)" class="st12" width="15.4" height="1.4"/>
		
			<rect id="XMLID_27_" x="57.9" y="47.9" transform="matrix(0.9962 8.715574e-002 -8.715574e-002 0.9962 4.4738 -5.1954)" class="st11" width="7.7" height="1.4"/>
		
			<rect id="XMLID_28_" x="66.4" y="48.6" transform="matrix(0.9962 8.715574e-002 -8.715574e-002 0.9962 4.5552 -5.8135)" class="st10" width="5" height="1.4"/>
		
			<rect id="XMLID_29_" x="56.4" y="50.4" transform="matrix(0.9962 8.715574e-002 -8.715574e-002 0.9962 4.6941 -5.3649)" class="st13" width="14.8" height="1.4"/>
		
			<rect id="XMLID_30_" x="72.3" y="51.3" transform="matrix(0.9962 8.715574e-002 -8.715574e-002 0.9962 4.8149 -6.2825)" class="st10" width="4.1" height="1.4"/>
		
			<rect id="XMLID_37_" x="56.8" y="52.5" transform="matrix(0.9962 8.715574e-002 -8.715574e-002 0.9962 4.8754 -5.3631)" class="st10" width="14.1" height="1.4"/>
		
			<rect id="XMLID_36_" x="59.1" y="54.6" transform="matrix(0.9962 8.715574e-002 -8.715574e-002 0.9962 5.0562 -5.2746)" class="st11" width="7.7" height="1.4"/>
		
			<rect id="XMLID_35_" x="67.5" y="55.1" transform="matrix(0.9962 8.715574e-002 -8.715574e-002 0.9962 5.1268 -5.8112)" class="st12" width="3.2" height="1.4"/>
		
			<rect id="XMLID_34_" x="57.7" y="56.4" transform="matrix(0.9962 8.715574e-002 -8.715574e-002 0.9962 5.2038 -5.0171)" class="st10" width="4.8" height="1.4"/>
		
			<rect id="XMLID_33_" x="63.2" y="56.9" transform="matrix(0.9962 8.715574e-002 -8.715574e-002 0.9962 5.2664 -5.4931)" class="st10" width="4.8" height="1.4"/>
		
			<rect id="XMLID_32_" x="68.5" y="57.2" transform="matrix(0.9962 8.715574e-002 -8.715574e-002 0.9962 5.3116 -5.8363)" class="st11" width="2.1" height="1.4"/>
		
			<rect id="XMLID_31_" x="54.9" y="58.9" transform="matrix(0.9962 8.715574e-002 -8.715574e-002 0.9962 5.4301 -5.2323)" class="st12" width="15.4" height="1.4"/>
		
			<rect id="XMLID_38_" x="61.2" y="61.3" transform="matrix(0.9962 8.715574e-002 -8.715574e-002 0.9962 5.6502 -5.4838)" class="st11" width="8.8" height="1.4"/>
		
			<rect id="XMLID_39_" x="55.8" y="60.6" transform="matrix(0.9962 8.715574e-002 -8.715574e-002 0.9962 5.5652 -4.8382)" class="st13" width="4.9" height="1.4"/>
		
			<rect id="XMLID_40_" x="71.8" y="57.6" transform="matrix(0.9962 8.715574e-002 -8.715574e-002 0.9962 5.3609 -6.2107)" class="st10" width="4.1" height="1.4"/>
		
			<rect id="XMLID_41_" x="72.9" y="45" transform="matrix(0.9962 8.715574e-002 -8.715574e-002 0.9962 4.263 -6.2672)" class="st11" width="2.1" height="1.4"/>
		
			<rect id="XMLID_42_" x="55" y="62.9" transform="matrix(0.9962 8.715574e-002 -8.715574e-002 0.9962 5.7788 -5.1932)" class="st13" width="14.8" height="1.4"/>
		
			<rect id="XMLID_43_" x="62.8" y="65.2" transform="matrix(0.9962 8.715574e-002 -8.715574e-002 0.9962 5.9968 -5.5122)" class="st10" width="6.7" height="1.4"/>
		
			<rect id="XMLID_44_" x="59" y="64.7" transform="matrix(0.9962 8.715574e-002 -8.715574e-002 0.9962 5.9337 -5.0326)" class="st12" width="3.2" height="1.4"/>
	</g>
	<g id="XMLID_45_">
		<circle id="XMLID_1_" class="st14" cx="44.1" cy="32.4" r="7.5"/>
		<text id="XMLID_2_" transform="matrix(1 0 0 1 39.3332 34.6229)" class="st7 st3 st15">&lt;/&gt;</text>
	</g>
	<g id="Layer_2">
	</g>
</g>
</svg>
