<?xml version="1.0" encoding="utf-8"?>
<!-- Generator: Adobe Illustrator 19.0.0, SVG Export Plug-In . SVG Version: 6.00 Build 0)  -->
<svg version="1.1" xmlns="http://www.w3.org/2000/svg" xmlns:xlink="http://www.w3.org/1999/xlink" x="0px" y="0px"
	 viewBox="0 0 100 100" style="enable-background:new 0 0 100 100;" xml:space="preserve">
<style type="text/css">
	.st0{display:none;}
	.st1{display:inline;fill:#333333;}
	.st2{fill:#F07900;}
	.st3{font-family:'ArialMT';}
	.st4{font-size:91px;}
	.st5{fill:none;}
	.st6{fill:#E3E3E3;}
	.st7{fill:#FFFFFF;}
	.st8{fill:#0100AA;}
	.st9{fill:#00152A;}
	.st10{fill:#2ABDFF;}
	.st11{fill:#FFF72A;}
	.st12{fill:#AA004F;}
	.st13{fill:#006A0E;}
	.st14{fill:#FF94D2;}
	.st15{font-size:7px;}
	.st16{fill:#333333;}
	.st17{fill:#D4D4D4;}
</style>
<g id="Layer_3" class="st0">
	<path id="XMLID_11_" class="st1" d="M7.7,35.2c5-8.5,4.8-10.8,4-15.2c-0.8-4.3-2.7-3.7-3-10.5c-0.2-5.1,1.5-7.1,2-7.7
		c2-2.3,6.1-1.2,8.8-1.2c7.9,0.1,13.7,4.1,15.2,5.2c5.6,4,4.3,6,8.5,8.2c5.6,2.8,13.3,2.1,18.2-1.5c3-2.2,2.3-3.5,5.7-6
		c1.1-0.8,6.3-4.6,13-3.5c7.8,1.2,11.7,8,12.7,9.8c0.6,1.1,4,7.6,1.5,13.8c-1.9,4.8-5.2,4.2-8,9.7c-2.9,5.6-2.1,11.4-1.8,12.8
		c0.6,3.6,2,6.1,4.8,11.2c3.6,6.4,4.8,6.3,5.7,9.7c1.6,5.9-0.7,11.2-1.3,12.7c-2.6,6-7.1,9-8,9.5c-6,3.8-13.2,3.9-18.7,1.8
		c-5-1.9-4.3-4.1-9.2-5.5c-4.8-1.4-9.2-0.4-16.5,1.3c-5,1.2-4.8,1.6-9.8,2.8c-8.2,2-12.3,2.9-16,1.5c-6.4-2.5-8.9-9.8-10-13.2
		c-0.7-1.9-3.3-9.8,0-17.5c2.4-5.6,5.9-6.2,5.7-10.2c-0.2-4.2-4.2-5.2-4.8-10.5C6,41,5.6,38.7,7.7,35.2z"/>
</g>
<g id="Layer_1">
	<text id="XMLID_9_" transform="matrix(0.9795 0.4158 -0.3907 0.9205 36.6969 120.0594)" class="st2 st3 st4">”</text>
	
		<rect id="XMLID_10_" x="-7.5" y="-9.9" transform="matrix(-0.8192 -0.5736 0.5736 -0.8192 -1.8616 60.4567)" class="st5" width="32.2" height="80.9"/>
	<text id="XMLID_4_" transform="matrix(0.8717 0.6103 -0.5736 0.8192 -26.2054 52.1211)" class="st3 st4">“</text>
	<g id="XMLID_47_">
		
			<rect id="XMLID_6_" x="28.9" y="18.6" transform="matrix(0.9781 -0.2079 0.2079 0.9781 -5.9714 8.6307)" class="st6" width="18.3" height="28.3"/>
		
			<rect id="XMLID_7_" x="29.8" y="21.7" transform="matrix(0.9781 -0.2079 0.2079 0.9781 -3.9894 8.0089)" width="12.6" height="2.6"/>
		
			<rect id="XMLID_8_" x="30.8" y="26.7" transform="matrix(0.9781 -0.2079 0.2079 0.9781 -5.0827 7.604)" width="5.7" height="2.6"/>
		
			<rect id="XMLID_12_" x="37.6" y="25.2" transform="matrix(0.9781 -0.2079 0.2079 0.9781 -4.6378 8.9733)" width="5.6" height="2.6"/>
		
			<rect id="XMLID_13_" x="31.5" y="30.1" transform="matrix(0.9781 -0.2079 0.2079 0.9781 -5.7104 8.5459)" class="st7" width="12.6" height="2.6"/>
		<path id="XMLID_14_" class="st8" d="M44.6,37.8L34.2,40c-0.5,0.1-1.1-0.2-1.2-0.8l-0.1-0.6c-0.1-0.5,0.2-1.1,0.8-1.2L44,35.2
			c0.5-0.1,1.1,0.2,1.2,0.8l0.1,0.6C45.5,37.2,45.1,37.7,44.6,37.8z"/>
	</g>
	<g id="XMLID_46_">
		<path id="XMLID_3_" class="st6" d="M79.1,23.4h-17c-1.7,0-3-1.4-3-3v-6c0-1.6,1.3-3,3-3h17c1.7,0,3,1.4,3,3v6
			C82.1,22.1,80.8,23.4,79.1,23.4z"/>
		<polygon id="XMLID_5_" class="st6" points="65,22.5 60.8,28.4 61.3,21.2 		"/>
		<circle id="XMLID_16_" cx="64.4" cy="17.1" r="1.5"/>
		<circle id="XMLID_17_" cx="70.4" cy="17.1" r="1.5"/>
		<circle id="XMLID_18_" cx="76.4" cy="17.1" r="1.5"/>
	</g>
	<g id="XMLID_49_">
		
			<rect id="XMLID_15_" x="66.9" y="29.9" transform="matrix(0.9962 8.715574e-002 -8.715574e-002 0.9962 4.5667 -6.7258)" class="st9" width="24.8" height="38"/>
		
			<rect id="XMLID_19_" x="71.5" y="32.6" transform="matrix(0.9962 8.715574e-002 -8.715574e-002 0.9962 3.1972 -6.7246)" class="st10" width="14.1" height="1.4"/>
		
			<rect id="XMLID_20_" x="86.8" y="33.5" transform="matrix(0.9962 8.715574e-002 -8.715574e-002 0.9962 3.3142 -7.6139)" class="st10" width="4.1" height="1.4"/>
		
			<rect id="XMLID_21_" x="73.9" y="34.7" transform="matrix(0.9962 8.715574e-002 -8.715574e-002 0.9962 3.378 -6.6362)" class="st11" width="7.7" height="1.4"/>
		
			<rect id="XMLID_22_" x="82.3" y="35.2" transform="matrix(0.9962 8.715574e-002 -8.715574e-002 0.9962 3.4487 -7.1727)" class="st12" width="3.2" height="1.4"/>
		
			<rect id="XMLID_23_" x="72.4" y="36.5" transform="matrix(0.9962 8.715574e-002 -8.715574e-002 0.9962 3.5256 -6.3787)" class="st10" width="4.8" height="1.4"/>
		
			<rect id="XMLID_24_" x="77.9" y="37" transform="matrix(0.9962 8.715574e-002 -8.715574e-002 0.9962 3.5883 -6.8546)" class="st10" width="4.8" height="1.4"/>
		
			<rect id="XMLID_25_" x="83.2" y="37.3" transform="matrix(0.9962 8.715574e-002 -8.715574e-002 0.9962 3.6334 -7.1979)" class="st11" width="2.1" height="1.4"/>
		
			<rect id="XMLID_26_" x="69.7" y="39" transform="matrix(0.9962 8.715574e-002 -8.715574e-002 0.9962 3.7519 -6.5939)" class="st12" width="15.4" height="1.4"/>
		
			<rect id="XMLID_27_" x="71.3" y="42.8" transform="matrix(0.9962 8.715574e-002 -8.715574e-002 0.9962 4.0759 -6.3815)" class="st11" width="7.7" height="1.4"/>
		
			<rect id="XMLID_28_" x="79.7" y="43.4" transform="matrix(0.9962 8.715574e-002 -8.715574e-002 0.9962 4.1573 -6.9997)" class="st10" width="5" height="1.4"/>
		
			<rect id="XMLID_29_" x="69.8" y="45.2" transform="matrix(0.9962 8.715574e-002 -8.715574e-002 0.9962 4.2962 -6.5511)" class="st13" width="14.8" height="1.4"/>
		
			<rect id="XMLID_30_" x="85.7" y="46.2" transform="matrix(0.9962 8.715574e-002 -8.715574e-002 0.9962 4.417 -7.4687)" class="st10" width="4.1" height="1.4"/>
		
			<rect id="XMLID_37_" x="70.2" y="47.3" transform="matrix(0.9962 8.715574e-002 -8.715574e-002 0.9962 4.4775 -6.5492)" class="st10" width="14.1" height="1.4"/>
		
			<rect id="XMLID_36_" x="72.5" y="49.4" transform="matrix(0.9962 8.715574e-002 -8.715574e-002 0.9962 4.6583 -6.4608)" class="st11" width="7.7" height="1.4"/>
		
			<rect id="XMLID_35_" x="80.9" y="50" transform="matrix(0.9962 8.715574e-002 -8.715574e-002 0.9962 4.7289 -6.9973)" class="st12" width="3.2" height="1.4"/>
		
			<rect id="XMLID_34_" x="71.1" y="51.2" transform="matrix(0.9962 8.715574e-002 -8.715574e-002 0.9962 4.8059 -6.2032)" class="st10" width="4.8" height="1.4"/>
		
			<rect id="XMLID_33_" x="76.5" y="51.7" transform="matrix(0.9962 8.715574e-002 -8.715574e-002 0.9962 4.8685 -6.6792)" class="st10" width="4.8" height="1.4"/>
		
			<rect id="XMLID_32_" x="81.8" y="52.1" transform="matrix(0.9962 8.715574e-002 -8.715574e-002 0.9962 4.9137 -7.0225)" class="st11" width="2.1" height="1.4"/>
		
			<rect id="XMLID_31_" x="68.3" y="53.7" transform="matrix(0.9962 8.715574e-002 -8.715574e-002 0.9962 5.0322 -6.4184)" class="st12" width="15.4" height="1.4"/>
		
			<rect id="XMLID_38_" x="74.6" y="56.1" transform="matrix(0.9962 8.715574e-002 -8.715574e-002 0.9962 5.2523 -6.6699)" class="st11" width="8.8" height="1.4"/>
		
			<rect id="XMLID_39_" x="69.1" y="55.5" transform="matrix(0.9962 8.715574e-002 -8.715574e-002 0.9962 5.1673 -6.0243)" class="st13" width="4.9" height="1.4"/>
		
			<rect id="XMLID_40_" x="85.2" y="52.4" transform="matrix(0.9962 8.715574e-002 -8.715574e-002 0.9962 4.963 -7.3968)" class="st10" width="4.1" height="1.4"/>
		
			<rect id="XMLID_41_" x="86.3" y="39.8" transform="matrix(0.9962 8.715574e-002 -8.715574e-002 0.9962 3.8651 -7.4534)" class="st11" width="2.1" height="1.4"/>
		
			<rect id="XMLID_42_" x="68.4" y="57.7" transform="matrix(0.9962 8.715574e-002 -8.715574e-002 0.9962 5.3809 -6.3794)" class="st13" width="14.8" height="1.4"/>
		
			<rect id="XMLID_43_" x="76.1" y="60.1" transform="matrix(0.9962 8.715574e-002 -8.715574e-002 0.9962 5.5989 -6.6984)" class="st10" width="6.7" height="1.4"/>
		
			<rect id="XMLID_44_" x="72.4" y="59.6" transform="matrix(0.9962 8.715574e-002 -8.715574e-002 0.9962 5.5358 -6.2188)" class="st12" width="3.2" height="1.4"/>
	</g>
	<g id="XMLID_45_">
		<circle id="XMLID_1_" class="st14" cx="57.1" cy="39.4" r="7.5"/>
		<text id="XMLID_2_" transform="matrix(1 0 0 1 52.3332 41.6229)" class="st7 st3 st15">&lt;/&gt;</text>
	</g>
	<g id="Layer_2">
	</g>
	<path id="XMLID_50_" d="M39.9,95.7H14.2c-1.2,0-2.1-1-2.1-2.1V49.9c0-1.2,1-2.1,2.1-2.1h25.7c1.2,0,2.1,1,2.1,2.1v43.7
		C42.1,94.8,41.1,95.7,39.9,95.7z"/>
	<rect id="XMLID_51_" x="14.1" y="49.8" class="st16" width="26" height="21"/>
	<rect id="XMLID_52_" x="14.1" y="72.9" class="st16" width="26" height="21"/>
	<path id="XMLID_53_" class="st7" d="M31.8,68.5h-9.5c-1.5,0-2.8-1.2-2.8-2.8v-9.5c0-1.5,1.2-2.8,2.8-2.8h9.5c1.5,0,2.8,1.2,2.8,2.8
		v9.5C34.6,67.3,33.3,68.5,31.8,68.5z"/>
	<path id="XMLID_54_" class="st7" d="M31.8,90.9h-9.5c-1.5,0-2.8-1.2-2.8-2.8v-9.5c0-1.5,1.2-2.8,2.8-2.8h9.5c1.5,0,2.8,1.2,2.8,2.8
		v9.5C34.6,89.7,33.3,90.9,31.8,90.9z"/>
	<g id="XMLID_59_">
		<polygon id="XMLID_55_" class="st17" points="26.3,65 29.5,60.2 32.8,65 		"/>
		<polygon id="XMLID_56_" class="st17" points="21.8,65 24.7,61.7 27.6,65 		"/>
	</g>
	<circle id="XMLID_58_" class="st17" cx="26.8" cy="83.9" r="5"/>
	<polygon id="XMLID_57_" class="st7" points="25,81.2 30,83.7 25,86.2 	"/>
	<polygon id="XMLID_60_" points="42,67.9 48.6,71.7 42,75.5 	"/>
</g>
</svg>
