<?xml version="1.0" encoding="utf-8"?>
<!-- Generator: Adobe Illustrator 19.0.0, SVG Export Plug-In . SVG Version: 6.00 Build 0)  -->
<svg version="1.1" id="Layer_1" xmlns="http://www.w3.org/2000/svg" xmlns:xlink="http://www.w3.org/1999/xlink" x="0px" y="0px"
	 viewBox="0 0 1000 1000" style="enable-background:new 0 0 1000 1000;" xml:space="preserve">
<g id="XMLID_1_">
	<path id="XMLID_22_" d="M651.1,166.5c-3.9,2.8-8.2,5.2-11.6,8.5c-21.3,21-42.6,42-63.4,63.5c-6.1,6.3-12.1,9-21,8.9
		c-123.1-0.3-246.2-0.2-369.2-0.2c-33.3,0-51.3,18.2-51.3,51.6c0,171.3,0,342.7,0,514c0,34.9,17.6,52.6,52.5,52.6
		c171.3,0,342.5,0,513.8,0c34.1,0,51.9-17.8,51.9-52.2c0.1-90.1,0-180.1,0-270.2c0-34.1-0.2-68.2,0.2-102.3c0-4.1,1.5-9.3,4.2-12.1
		c24.8-25.4,50.1-50.4,75.2-75.5c0.9-0.9,2.1-1.5,4.7-3.5c0,4.9,0,8.2,0,11.6c0,152.7,0,305.4,0,458.1
		c0,72.5-57.4,130.3-129.8,130.4c-175.8,0.2-351.7,0.1-527.5,0C108,949.8,50.2,892.1,50.1,820.4c-0.1-175.9-0.1-351.8,0-527.8
		c0.1-71.2,57.6-129.7,128.4-129.8c154-0.3,308.1-0.1,462.1-0.1c2.7,0,5.3,0,8,0C649.4,164,650.3,165.3,651.1,166.5z"/>
	<path id="XMLID_21_" d="M275.1,724.3c15.7-46.9,31.1-92.1,45.7-137.5c4.7-14.8,12.3-26.7,23.4-37.7
		C504.8,388.9,665.1,228.5,825.5,68.1c24-24,44.1-24.1,68-0.3c13.9,13.9,27.8,27.9,41.7,41.9c19.9,20.1,19.8,41.7-0.4,61.9
		c-100.4,100.5-200.9,201-301.4,301.5c-64.1,64.1-128.2,128.3-192.5,192.3c-3.4,3.4-7.5,6.6-11.9,8.1
		c-49.2,16.8-98.6,33.2-147.9,49.7C279.8,723.6,278.4,723.7,275.1,724.3z"/>
</g>
</svg>
