<?xml version="1.0" encoding="utf-8"?>
<!-- Generator: Adobe Illustrator 19.0.0, SVG Export Plug-In . SVG Version: 6.00 Build 0)  -->
<svg version="1.1" id="Layer_1" xmlns="http://www.w3.org/2000/svg" xmlns:xlink="http://www.w3.org/1999/xlink" x="0px" y="0px"
	 viewBox="0 0 100 100" style="enable-background:new 0 0 100 100;" xml:space="preserve">
<style type="text/css">
	.st0{fill:#FFFFFF;stroke:#000000;stroke-width:2;stroke-miterlimit:10;}
	.st1{stroke:#FFFFFF;stroke-width:2;stroke-miterlimit:10;}
</style>
<path id="XMLID_1_" class="st0" d="M85.4,89.3H14.6c-1.6,0-3-1.4-3-3V13.7c0-1.7,1.4-3,3-3h70.8c1.7,0,3,1.4,3,3v72.5
	C88.4,87.9,87.1,89.3,85.4,89.3z"/>
<path id="XMLID_4_" d="M85.4,10.7H14.6c-1.6,0-3,1.4-3,3v16.9h76.8V13.7C88.4,12.1,87.1,10.7,85.4,10.7z"/>
<path id="XMLID_2_" class="st1" d="M30.5,19.7h-1.1c-1.9,0-3.5-1.6-3.5-3.5V5.2c0-1.9,1.6-3.5,3.5-3.5h1.1c1.9,0,3.5,1.6,3.5,3.5
	v11.1C34,18.2,32.4,19.7,30.5,19.7z"/>
<path id="XMLID_3_" class="st1" d="M70.5,19.7h-1.1c-1.9,0-3.5-1.6-3.5-3.5V5.2c0-1.9,1.6-3.5,3.5-3.5h1.1c1.9,0,3.5,1.6,3.5,3.5
	v11.1C74,18.2,72.4,19.7,70.5,19.7z"/>
<g id="XMLID_14_">
	<path id="XMLID_5_" d="M34.6,48.3h-9.1c-1.1,0-2-0.9-2-2v-8.6c0-1.1,0.9-2,2-2h9.1c1.1,0,2,0.9,2,2v8.6
		C36.6,47.4,35.7,48.3,34.6,48.3z"/>
	<path id="XMLID_6_" d="M54.6,48.3h-9.1c-1.1,0-2-0.9-2-2v-8.6c0-1.1,0.9-2,2-2h9.1c1.1,0,2,0.9,2,2v8.6
		C56.6,47.4,55.7,48.3,54.6,48.3z"/>
	<path id="XMLID_7_" d="M74.6,48.3h-9.1c-1.1,0-2-0.9-2-2v-8.6c0-1.1,0.9-2,2-2h9.1c1.1,0,2,0.9,2,2v8.6
		C76.6,47.4,75.7,48.3,74.6,48.3z"/>
</g>
<g id="XMLID_15_">
	<path id="XMLID_10_" d="M34.6,66.3h-9.1c-1.1,0-2-0.9-2-2v-8.6c0-1.1,0.9-2,2-2h9.1c1.1,0,2,0.9,2,2v8.6
		C36.6,65.4,35.7,66.3,34.6,66.3z"/>
	<path id="XMLID_9_" d="M54.6,66.3h-9.1c-1.1,0-2-0.9-2-2v-8.6c0-1.1,0.9-2,2-2h9.1c1.1,0,2,0.9,2,2v8.6
		C56.6,65.4,55.7,66.3,54.6,66.3z"/>
	<path id="XMLID_8_" d="M74.6,66.3h-9.1c-1.1,0-2-0.9-2-2v-8.6c0-1.1,0.9-2,2-2h9.1c1.1,0,2,0.9,2,2v8.6
		C76.6,65.4,75.7,66.3,74.6,66.3z"/>
</g>
<g id="XMLID_16_">
	<path id="XMLID_13_" d="M34.6,84.3h-9.1c-1.1,0-2-0.9-2-2v-8.6c0-1.1,0.9-2,2-2h9.1c1.1,0,2,0.9,2,2v8.6
		C36.6,83.4,35.7,84.3,34.6,84.3z"/>
	<path id="XMLID_12_" d="M54.6,84.3h-9.1c-1.1,0-2-0.9-2-2v-8.6c0-1.1,0.9-2,2-2h9.1c1.1,0,2,0.9,2,2v8.6
		C56.6,83.4,55.7,84.3,54.6,84.3z"/>
	<path id="XMLID_11_" d="M74.6,84.3h-9.1c-1.1,0-2-0.9-2-2v-8.6c0-1.1,0.9-2,2-2h9.1c1.1,0,2,0.9,2,2v8.6
		C76.6,83.4,75.7,84.3,74.6,84.3z"/>
</g>
</svg>
