<?xml version="1.0" encoding="utf-8"?>
<!-- Generator: Adobe Illustrator 19.0.0, SVG Export Plug-In . SVG Version: 6.00 Build 0)  -->
<svg version="1.1" id="Layer_1" xmlns="http://www.w3.org/2000/svg" xmlns:xlink="http://www.w3.org/1999/xlink" x="0px" y="0px"
	 viewBox="0 0 50 50" style="enable-background:new 0 0 50 50;" xml:space="preserve">
<g id="XMLID_3_">
	<path id="XMLID_42_" d="M24.9,9.5c4.7,0.1,8.8,1.5,12.5,3.8c4.5,2.7,8.3,6.3,11.7,10.4c0.7,0.8,0.9,1.6,0.2,2.5
		c-4.4,5.5-9.5,10-16.1,12.7C27.4,41.2,21.7,41,16,38.4c-6-2.8-10.7-7.1-14.9-12.2c-0.6-0.7-0.7-1.5-0.1-2.3
		c5.1-6.3,11-11.5,19-13.7c0.8-0.2,1.7-0.4,2.5-0.5C23.4,9.6,24.3,9.5,24.9,9.5z M24.9,12.7c-2.1-0.1-4.4,0.5-6.7,1.4
		c-5.4,2.2-9.7,6-13.6,10.3c-0.4,0.5-0.3,0.8,0,1.2c3.3,3.7,7,7,11.3,9.3c6.1,3.2,12.2,3.2,18.3,0c4.4-2.3,8.1-5.6,11.3-9.3
		c0.4-0.5,0.4-0.9,0-1.3c-3.2-3.6-6.6-6.7-10.8-9C31.8,13.7,28.7,12.6,24.9,12.7z"/>
	<path id="XMLID_36_" d="M32.5,25c0,4-3.4,7.5-7.4,7.4c-4-0.1-7.2-3.4-7.2-7.4c0-4,3.4-7.5,7.4-7.4C29.2,17.7,32.5,21,32.5,25z
		 M29.3,25.1c0-2.4-1.8-4.2-4.1-4.3c-2.4,0-4.3,1.8-4.3,4.2c0,2.4,1.8,4.2,4.1,4.3C27.5,29.3,29.3,27.5,29.3,25.1z"/>
</g>
</svg>
