<?xml version="1.0" encoding="utf-8"?>
<!-- Generator: Adobe Illustrator 19.0.0, SVG Export Plug-In . SVG Version: 6.00 Build 0)  -->
<svg version="1.1" id="Layer_1" xmlns="http://www.w3.org/2000/svg" xmlns:xlink="http://www.w3.org/1999/xlink" x="0px" y="0px"
	 viewBox="0 0 50 50" style="enable-background:new 0 0 50 50;" xml:space="preserve">
<style type="text/css">
	.st0{fill:#FFFFFF;}
</style>
<g id="XMLID_2_">
	<path id="XMLID_17_" class="st0" d="M25.2,0C32.1,0,39,0,46,0c1.5,0,2.9,0.2,3.7,1.6c0.7,1.3,0.2,2.4-0.8,3.5
		c-5.6,6.4-11.2,12.7-16.8,19.1c-0.5,0.6-0.8,1.4-0.8,2.1c-0.1,6.8-0.1,13.5,0,20.3c0,1.4-0.3,2.5-1.9,3.1c-1.6,0.6-2.8,0-3.9-1
		c-1.7-1.6-3.5-3.2-5.3-4.7c-1-0.8-1.4-1.8-1.4-3c0.1-4.9,0.1-9.9,0-14.8c0-0.7-0.3-1.5-0.8-2C12.5,18,7,11.7,1.5,5.5
		C1.1,5,0.6,4.5,0.3,3.9c-1-2,0.6-3.9,3.3-3.9C10.8,0,18,0,25.2,0z"/>
</g>
</svg>
