<?xml version="1.0" encoding="utf-8"?>
<!-- Generator: Adobe Illustrator 19.0.0, SVG Export Plug-In . SVG Version: 6.00 Build 0)  -->
<svg version="1.1" xmlns="http://www.w3.org/2000/svg" xmlns:xlink="http://www.w3.org/1999/xlink" x="0px" y="0px"
	 viewBox="0 0 400 400" style="enable-background:new 0 0 400 400;" xml:space="preserve">
<style type="text/css">
	.st0{opacity:0.5;fill:#C6C6C6;}
	.st1{fill:#CE8849;}
	.st2{opacity:0.2;}
	.st3{fill:#140901;}
	.st4{opacity:0.6;}
	.st5{fill:#E5BE9E;}
	.st6{fill:#F9F9F9;}
	.st7{fill:#263238;}
	.st8{fill:#F07900;}
	.st9{opacity:0.2;fill:url(#XMLID_87_);}
	.st10{fill:#FF725E;}
	.st11{opacity:0.3;}
	.st12{opacity:0.5;}
	.st13{fill:#FAFAFA;}
	.st14{fill:#FFFFFF;}
</style>
<g id="Layer_4">
	<path id="XMLID_2_" class="st0" d="M244.1,336.1c-17,1.9-53.2,5.9-79.9-15.8c-28.6-23.3-18.5-53.9-53.3-80.6
		c-16.6-12.7-20.8-7.2-36.6-21c-6.4-5.6-39.1-35.6-33.3-73.9c4.1-27,25.2-43.5,33.5-50C97.9,76.5,110,83.5,146.9,65
		c33.4-16.7,28.9-25.1,53.4-34.5c25.7-9.9,70.3-15.9,96.5,6.7c20.6,17.8,7.1,33.7,32.6,71.7c19.1,28.6,33,28.9,41.4,54.6
		c1.9,5.7,11.6,37.5-3.9,55.3c-10.4,11.9-21.8,5.9-32,17.5c-14.1,15.8,0.6,34.5-8.3,56.8C312.3,328.5,254.1,335,244.1,336.1z"/>
</g>
<g id="Layer_3">
	<g id="freepik--question-marks--inject-33">
		<path id="XMLID_34_" class="st1" d="M309.1,79.6c1.7,0.4,3.4,1,4.9,1.9c1.5,0.8,2.8,1.9,3.9,3.1c1.1,1.2,1.9,2.6,2.3,4.2
			c0.5,1.7,0.5,3.4,0.1,5.1c-0.3,1.3-0.8,2.6-1.5,3.7c-0.7,1-1.5,1.8-2.4,2.6c-0.9,0.7-1.9,1.3-2.9,1.9l-2.9,1.5
			c-0.9,0.5-1.7,1-2.5,1.6c-0.7,0.5-1.2,1.3-1.5,2.1c-0.2,0.4-0.4,0.7-0.7,0.9c-0.3,0.2-0.7,0.3-1.1,0.2l-4.2-0.9
			c-0.4-0.1-0.8-0.3-1-0.7c-0.2-0.3-0.3-0.8-0.2-1.2c0.3-1.3,0.9-2.5,1.8-3.6c0.8-1,1.6-1.8,2.6-2.5c0.9-0.7,2-1.3,3-1.8
			c1-0.5,2-1,2.9-1.5c0.8-0.4,1.6-1,2.3-1.6c0.6-0.5,1-1.2,1.2-2c0.3-1.4-0.1-2.8-1-3.9c-1.2-1.3-2.7-2.1-4.4-2.4
			c-3.2-0.7-5.8,0.4-8,3.2c-0.2,0.3-0.5,0.6-0.8,0.8c-0.3,0.2-0.7,0.2-1.1,0.1l-4.5-1c-0.3-0.1-0.6-0.2-0.8-0.5
			c-0.2-0.3-0.3-0.7-0.2-1c0.4-1.4,1.1-2.7,2.1-3.7c1.1-1.2,2.4-2.2,3.9-3c1.6-0.8,3.3-1.4,5.1-1.7
			C305.2,79.1,307.2,79.2,309.1,79.6z M304.3,111.8c0.8,0.2,1.3,1,1.2,1.8l-1.1,4.9c-0.1,0.4-0.3,0.8-0.7,1
			c-0.3,0.2-0.8,0.3-1.2,0.2l-4.8-1.1c-0.4-0.1-0.8-0.3-1-0.7c-0.2-0.3-0.3-0.8-0.2-1.2l1.1-4.9c0.2-0.8,1-1.3,1.8-1.2L304.3,111.8z
			"/>
		<path id="XMLID_29_" class="st1" d="M314.4,126.5c1.2-0.2,2.4-0.2,3.6-0.1c1.2,0.1,2.3,0.5,3.3,1c1,0.5,1.9,1.2,2.6,2.1
			c1.3,1.7,1.7,3.9,1.3,6c-0.2,0.8-0.5,1.6-0.9,2.3c-0.4,0.7-0.9,1.3-1.4,1.9c-0.5,0.6-1,1.2-1.5,1.7c-0.4,0.5-0.8,1.1-1.2,1.6
			c-0.3,0.5-0.5,1.1-0.5,1.7c0,0.3-0.1,0.6-0.2,0.8c-0.1,0.2-0.4,0.4-0.6,0.4l-3,0.5c-0.3,0.1-0.6,0-0.8-0.2
			c-0.2-0.2-0.4-0.4-0.4-0.7c-0.1-0.9-0.1-1.9,0.2-2.8c0.2-0.8,0.6-1.6,1-2.3c0.4-0.7,0.9-1.3,1.4-1.9c0.5-0.6,1-1.2,1.5-1.7
			c0.4-0.5,0.8-1,1.1-1.6c0.3-0.5,0.4-1,0.3-1.6c-0.2-1-0.8-1.8-1.6-2.2c-1.1-0.5-2.3-0.7-3.5-0.4c-2.2,0.3-3.9,2-4.3,4.1
			c-0.1,0.3-0.2,0.5-0.3,0.7c-0.2,0.2-0.4,0.3-0.7,0.3l-3.2,0.5c-0.2,0-0.5,0-0.6-0.1c-0.2-0.1-0.3-0.3-0.4-0.6
			c-0.1-1,0.1-2,0.5-2.9c0.4-1.1,1-2.1,1.7-2.9c0.8-0.9,1.8-1.8,2.8-2.4C311.8,127.2,313.1,126.7,314.4,126.5z M319.6,148.4
			c0.3,0,0.6,0,0.8,0.2c0.2,0.2,0.4,0.4,0.4,0.7l0.6,3.4c0.1,0.6-0.3,1.1-0.9,1.2l-3.3,0.6c-0.3,0-0.6,0-0.8-0.2
			c-0.2-0.2-0.4-0.4-0.4-0.7l-0.6-3.4c-0.1-0.3,0-0.6,0.2-0.8c0.2-0.2,0.4-0.4,0.7-0.4L319.6,148.4z"/>
		<g id="XMLID_25_" class="st2">
			<path id="XMLID_26_" class="st3" d="M314.4,126.5c1.2-0.2,2.4-0.2,3.6-0.1c1.2,0.1,2.3,0.5,3.3,1c1,0.5,1.9,1.2,2.6,2.1
				c1.3,1.7,1.7,3.9,1.3,6c-0.2,0.8-0.5,1.6-0.9,2.3c-0.4,0.7-0.9,1.3-1.4,1.9c-0.5,0.6-1,1.2-1.5,1.7c-0.4,0.5-0.8,1.1-1.2,1.6
				c-0.3,0.5-0.5,1.1-0.5,1.7c0,0.3-0.1,0.6-0.2,0.8c-0.1,0.2-0.4,0.4-0.6,0.4l-3,0.5c-0.3,0.1-0.6,0-0.8-0.2
				c-0.2-0.2-0.4-0.4-0.4-0.7c-0.1-0.9-0.1-1.9,0.2-2.8c0.2-0.8,0.6-1.6,1-2.3c0.4-0.7,0.9-1.3,1.4-1.9c0.5-0.6,1-1.2,1.5-1.7
				c0.4-0.5,0.8-1,1.1-1.6c0.3-0.5,0.4-1,0.3-1.6c-0.2-1-0.8-1.8-1.6-2.2c-1.1-0.5-2.3-0.7-3.5-0.4c-2.2,0.3-3.9,2-4.3,4.1
				c-0.1,0.3-0.2,0.5-0.3,0.7c-0.2,0.2-0.4,0.3-0.7,0.3l-3.2,0.5c-0.2,0-0.5,0-0.6-0.1c-0.2-0.1-0.3-0.3-0.4-0.6
				c-0.1-1,0.1-2,0.5-2.9c0.4-1.1,1-2.1,1.7-2.9c0.8-0.9,1.8-1.8,2.8-2.4C311.8,127.2,313.1,126.7,314.4,126.5z M319.6,148.4
				c0.3,0,0.6,0,0.8,0.2c0.2,0.2,0.4,0.4,0.4,0.7l0.6,3.4c0.1,0.6-0.3,1.1-0.9,1.2l-3.3,0.6c-0.3,0-0.6,0-0.8-0.2
				c-0.2-0.2-0.4-0.4-0.4-0.7l-0.6-3.4c-0.1-0.3,0-0.6,0.2-0.8c0.2-0.2,0.4-0.4,0.7-0.4L319.6,148.4z"/>
		</g>
		<path id="XMLID_22_" class="st1" d="M342.7,131.9c0.3,0.2,0.5,0.5,0.5,0.8c0.1,0.3,0,0.7-0.2,0.9l-2.4,3.3
			c-0.2,0.3-0.5,0.5-0.8,0.5c-0.3,0.1-0.7,0-0.9-0.2l-3.3-2.3c-0.3-0.2-0.5-0.5-0.5-0.8c-0.1-0.3,0-0.7,0.2-0.9l2.4-3.4
			c0.4-0.6,1.2-0.7,1.8-0.3L342.7,131.9z M356.5,109.2c1.2,0.8,2.3,1.8,3.2,3c0.9,1.1,1.6,2.3,2,3.6c0.4,1.3,0.6,2.6,0.4,3.9
			c-0.2,1.4-0.7,2.7-1.5,3.9c-0.6,0.9-1.4,1.7-2.4,2.3c-0.8,0.5-1.7,0.9-2.7,1.2c-0.9,0.2-1.8,0.4-2.8,0.5l-2.7,0.2
			c-0.8,0.1-1.6,0.2-2.4,0.4c-0.7,0.2-1.4,0.5-1.9,1c-0.2,0.2-0.5,0.4-0.9,0.5c-0.3,0.1-0.6,0-0.9-0.2l-2.9-2.1
			c-0.3-0.2-0.5-0.5-0.5-0.8c-0.1-0.3,0-0.7,0.2-0.9c0.7-0.9,1.5-1.6,2.5-2.2c0.9-0.5,1.8-0.8,2.8-1.1c0.9-0.2,1.9-0.4,2.8-0.4
			c0.9-0.1,1.8-0.1,2.6-0.2c0.8-0.1,1.5-0.2,2.2-0.4c0.6-0.2,1.2-0.6,1.5-1.2c0.7-0.9,0.9-2.2,0.5-3.3c-0.5-1.3-1.4-2.5-2.6-3.2
			c-2.2-1.5-4.5-1.6-7.1-0.2c-0.3,0.2-0.5,0.3-0.8,0.3c-0.3,0-0.6-0.1-0.9-0.3l-3.1-2.2c-0.2-0.1-0.4-0.4-0.4-0.7
			c0-0.3,0-0.6,0.2-0.8c0.7-0.9,1.7-1.7,2.8-2.2c1.2-0.6,2.5-0.9,3.9-1c1.5-0.1,3,0,4.4,0.3C353.8,107.6,355.2,108.3,356.5,109.2z"
			/>
		<g id="XMLID_18_" class="st4">
			<path id="XMLID_19_" class="st5" d="M342.7,131.9c0.3,0.2,0.5,0.5,0.5,0.8c0.1,0.3,0,0.7-0.2,0.9l-2.4,3.3
				c-0.2,0.3-0.5,0.5-0.8,0.5c-0.3,0.1-0.7,0-0.9-0.2l-3.3-2.3c-0.3-0.2-0.5-0.5-0.5-0.8c-0.1-0.3,0-0.7,0.2-0.9l2.4-3.4
				c0.4-0.6,1.2-0.7,1.8-0.3L342.7,131.9z M356.5,109.2c1.2,0.8,2.3,1.8,3.2,3c0.9,1.1,1.6,2.3,2,3.6c0.4,1.3,0.6,2.6,0.4,3.9
				c-0.2,1.4-0.7,2.7-1.5,3.9c-0.6,0.9-1.4,1.7-2.4,2.3c-0.8,0.5-1.7,0.9-2.7,1.2c-0.9,0.2-1.8,0.4-2.8,0.5l-2.7,0.2
				c-0.8,0.1-1.6,0.2-2.4,0.4c-0.7,0.2-1.4,0.5-1.9,1c-0.2,0.2-0.5,0.4-0.9,0.5c-0.3,0.1-0.6,0-0.9-0.2l-2.9-2.1
				c-0.3-0.2-0.5-0.5-0.5-0.8c-0.1-0.3,0-0.7,0.2-0.9c0.7-0.9,1.5-1.6,2.5-2.2c0.9-0.5,1.8-0.8,2.8-1.1c0.9-0.2,1.9-0.4,2.8-0.4
				c0.9-0.1,1.8-0.1,2.6-0.2c0.8-0.1,1.5-0.2,2.2-0.4c0.6-0.2,1.2-0.6,1.5-1.2c0.7-0.9,0.9-2.2,0.5-3.3c-0.5-1.3-1.4-2.5-2.6-3.2
				c-2.2-1.5-4.5-1.6-7.1-0.2c-0.3,0.2-0.5,0.3-0.8,0.3c-0.3,0-0.6-0.1-0.9-0.3l-3.1-2.2c-0.2-0.1-0.4-0.4-0.4-0.7
				c0-0.3,0-0.6,0.2-0.8c0.7-0.9,1.7-1.7,2.8-2.2c1.2-0.6,2.5-0.9,3.9-1c1.5-0.1,3,0,4.4,0.3C353.8,107.6,355.2,108.3,356.5,109.2z"
				/>
		</g>
	</g>
	<g id="XMLID_17_">
		<path id="XMLID_59_" class="st6" d="M143.9,159.4h107.3c2.2,0,4,1.8,4,4v12.6c0,2.2-1.8,4-4,4H143.9c-2.2,0-4-1.8-4-4v-12.6
			C139.9,161.2,141.7,159.4,143.9,159.4z"/>
		<path id="XMLID_57_" class="st7" d="M154.5,175c-0.3,0-0.5-0.1-0.7-0.3c-0.2-0.2-0.3-0.4-0.3-0.7c0-0.2,0.1-0.4,0.1-0.5l1.8-2.9
			l-3.5,0.1c-0.3,0-0.5-0.1-0.7-0.3c-0.3-0.4-0.3-1,0-1.3c0.2-0.2,0.5-0.3,0.7-0.3l3.5,0.1l-1.8-2.9c-0.1-0.2-0.1-0.3-0.1-0.5
			c0-0.3,0.1-0.5,0.3-0.7c0.2-0.2,0.4-0.3,0.7-0.3c0.3,0,0.7,0.2,0.8,0.5l1.7,3.1l1.7-3.1c0.2-0.3,0.5-0.5,0.9-0.6
			c0.3,0,0.5,0.1,0.7,0.3c0.2,0.2,0.3,0.4,0.3,0.7c0,0.2,0,0.3-0.1,0.5l-1.8,2.9l3.5-0.1c0.3,0,0.5,0.1,0.7,0.3
			c0.2,0.2,0.3,0.4,0.3,0.7c0,0.2-0.1,0.5-0.3,0.7c-0.2,0.2-0.5,0.3-0.7,0.3l-3.5-0.1l1.8,2.9c0.1,0.2,0.2,0.3,0.1,0.5
			c0,0.6-0.4,1-1,1c-0.4,0-0.7-0.2-0.8-0.5l-1.7-3l-1.7,3C155.2,174.7,154.8,175,154.5,175z"/>
		<path id="XMLID_56_" class="st7" d="M170.7,175c-0.3,0-0.5-0.1-0.7-0.3c-0.2-0.2-0.3-0.4-0.3-0.7c0-0.2,0.1-0.4,0.1-0.5l1.8-2.9
			l-3.5,0.1c-0.3,0-0.5-0.1-0.7-0.3c-0.4-0.4-0.4-1,0-1.3c0.2-0.2,0.4-0.3,0.7-0.3l3.4,0.1l-1.8-2.9c-0.1-0.2-0.1-0.3-0.1-0.5
			c0-0.3,0.1-0.5,0.3-0.7c0.2-0.2,0.4-0.3,0.7-0.3c0.3,0,0.7,0.2,0.8,0.5l1.7,3.1l1.7-3.1c0.2-0.3,0.5-0.5,0.9-0.6
			c0.3,0,0.5,0.1,0.7,0.3c0.2,0.2,0.3,0.4,0.3,0.7c0,0.2-0.1,0.3-0.1,0.5l-1.8,2.9l3.5-0.1c0.3,0,0.5,0.1,0.7,0.3
			c0.2,0.2,0.3,0.4,0.3,0.7c0,0.2-0.1,0.5-0.3,0.7c-0.2,0.2-0.4,0.3-0.7,0.3l-3.5-0.1l1.8,2.9c0.1,0.2,0.2,0.3,0.1,0.5
			c0,0.6-0.4,1-1,1c-0.4,0-0.7-0.2-0.8-0.5l-1.7-3l-1.7,3C171.4,174.8,171.1,175,170.7,175z"/>
		<path id="XMLID_53_" class="st7" d="M186.9,175c-0.3,0-0.5-0.1-0.7-0.3c-0.2-0.2-0.3-0.4-0.3-0.7c0-0.2,0.1-0.4,0.1-0.5l1.8-2.9
			l-3.5,0.1c-0.5,0-1-0.4-1-0.9c0-0.3,0.1-0.5,0.3-0.7c0.2-0.2,0.5-0.3,0.7-0.3l3.4,0.1l-1.8-2.9c-0.1-0.2-0.1-0.3-0.1-0.5
			c0-0.3,0.1-0.5,0.3-0.7c0.2-0.2,0.4-0.3,0.7-0.3c0.3,0,0.7,0.2,0.8,0.5l1.7,3.1l1.7-3.1c0.2-0.3,0.5-0.5,0.9-0.6
			c0.3,0,0.5,0.1,0.7,0.3c0.2,0.2,0.3,0.4,0.3,0.7c0,0.2-0.1,0.3-0.1,0.5l-1.8,2.9l3.5-0.1c0.5-0.1,0.9,0.3,1,0.8c0,0,0,0.1,0,0.1
			c0,0.2-0.1,0.5-0.3,0.7c-0.2,0.2-0.5,0.3-0.7,0.3l-3.5-0.1l1.8,2.9c0.1,0.2,0.2,0.3,0.1,0.5c0,0.3-0.1,0.5-0.3,0.7
			c-0.2,0.2-0.4,0.3-0.7,0.3c-0.3,0-0.7-0.2-0.8-0.5l-1.7-3l-1.7,3C187.6,174.8,187.3,175,186.9,175z"/>
		<path id="XMLID_52_" class="st7" d="M203.2,175c-0.3,0-0.5-0.1-0.7-0.3c-0.2-0.2-0.3-0.4-0.3-0.7c0-0.2,0-0.4,0.1-0.5l1.8-2.9
			l-3.5,0.1c-0.3,0-0.5-0.1-0.7-0.3c-0.3-0.4-0.3-1,0-1.3c0.2-0.2,0.5-0.3,0.7-0.3l3.5,0.1l-1.8-2.9c-0.1-0.2-0.1-0.3-0.1-0.5
			c0-0.3,0.1-0.5,0.3-0.7c0.2-0.2,0.4-0.3,0.7-0.3c0.3,0,0.7,0.2,0.8,0.5l1.7,3.1l1.7-3.1c0.2-0.3,0.5-0.5,0.9-0.6
			c0.3,0,0.5,0.1,0.7,0.3c0.2,0.2,0.3,0.4,0.3,0.7c0,0.2-0.1,0.3-0.1,0.5l-1.8,2.9l3.5-0.1c0.5-0.1,0.9,0.3,1,0.8c0,0,0,0.1,0,0.1
			c0,0.2-0.1,0.5-0.3,0.7c-0.2,0.2-0.5,0.3-0.7,0.3l-3.5-0.1l1.8,2.9c0.1,0.2,0.2,0.3,0.1,0.5c0,0.3-0.1,0.5-0.3,0.7
			c-0.2,0.2-0.4,0.3-0.7,0.3c-0.3,0-0.7-0.2-0.8-0.5l-1.7-3l-1.7,3C203.9,174.8,203.5,175,203.2,175z"/>
		<path id="XMLID_48_" class="st7" d="M219.4,175c-0.3,0-0.5-0.1-0.7-0.3c-0.3-0.3-0.4-0.8-0.1-1.2l1.8-2.9l-3.5,0.1
			c-0.3,0-0.5-0.1-0.7-0.3c-0.3-0.4-0.3-1,0-1.3c0.2-0.2,0.5-0.3,0.7-0.3l3.5,0.1l-1.8-2.9c-0.1-0.2-0.1-0.3-0.1-0.5
			c0-0.3,0.1-0.5,0.3-0.7c0.2-0.2,0.4-0.3,0.7-0.3c0.3,0,0.7,0.2,0.8,0.5l1.7,3.1l1.7-3.1c0.2-0.3,0.5-0.5,0.9-0.6
			c0.3,0,0.5,0.1,0.7,0.3c0.2,0.2,0.3,0.4,0.3,0.7c0,0.2-0.1,0.3-0.1,0.5l-1.8,2.9l3.5-0.1c0.5-0.1,0.9,0.3,1,0.8c0,0,0,0.1,0,0.1
			c0,0.2-0.1,0.5-0.3,0.7c-0.2,0.2-0.5,0.3-0.7,0.3l-3.5-0.1l1.8,2.9c0.1,0.2,0.2,0.3,0.1,0.5c0,0.3-0.1,0.5-0.3,0.7
			c-0.2,0.2-0.4,0.3-0.7,0.3c-0.3,0-0.7-0.2-0.8-0.5l-1.7-3l-1.7,3C220.1,174.8,219.7,175,219.4,175z"/>
		<path id="XMLID_47_" class="st7" d="M235.6,175c-0.3,0-0.5-0.1-0.7-0.3c-0.2-0.2-0.3-0.4-0.3-0.7c0-0.2,0.1-0.4,0.1-0.5l1.8-2.9
			l-3.5,0.1c-0.5,0-1-0.3-1-0.9c0,0,0-0.1,0-0.1c0-0.2,0.1-0.5,0.3-0.7c0.2-0.2,0.5-0.3,0.7-0.3l3.5,0.1l-1.8-2.9
			c-0.1-0.2-0.1-0.3-0.1-0.5c0-0.3,0.1-0.5,0.3-0.7c0.2-0.2,0.4-0.3,0.7-0.3c0.3,0,0.7,0.2,0.8,0.5l1.7,3.1l1.7-3.1
			c0.2-0.3,0.5-0.5,0.9-0.6c0.3,0,0.5,0.1,0.7,0.3c0.2,0.2,0.3,0.4,0.3,0.7c0,0.2,0,0.3-0.1,0.5l-1.8,2.9l3.5-0.1
			c0.3,0,0.5,0.1,0.7,0.3c0.2,0.2,0.3,0.4,0.3,0.7c0,0.2-0.1,0.5-0.3,0.7c-0.2,0.2-0.5,0.3-0.7,0.3l-3.5-0.1l1.8,2.9
			c0.1,0.2,0.2,0.3,0.1,0.5c0,0.3-0.1,0.5-0.3,0.7c-0.2,0.2-0.4,0.3-0.7,0.3c-0.3,0-0.7-0.2-0.8-0.5l-1.7-3l-1.7,3
			C236.3,174.7,236,175,235.6,175z"/>
	</g>
</g>
<g id="Layer_2">
	<g id="XMLID_15_">
		<g id="XMLID_9_">
			<g id="XMLID_61_">
				<path id="XMLID_62_" d="M320,249.3c-0.4-0.6-0.8-1.1-1.2-1.7c-1.7-2.3-3.3-4.6-4.9-6.9c-0.4-0.6-0.8-1.2-1.3-1.9
					c-0.3-0.4-0.5-0.8-0.8-1.2c-0.4-0.5-0.8-1.1-1.1-1.6c-0.2-0.3-0.4-0.5-0.6-0.8c-0.1-0.1-0.2-0.3-0.3-0.4c0-0.1-0.1-0.1-0.1-0.2
					c0,0-0.1-0.1-0.1-0.2c0,0,0,0,0,0c0,0,0,0-0.1,0c-1.2,0.5-2.4,0.9-3.6,1.3c0.6,0.8,1.2,1.7,1.9,2.5c1.4,1.7,2.7,3.3,4.1,4.9
					c1.4,1.6,2.8,3.2,4.2,4.8c1,1.1,1.9,2.2,2.9,3.3c0.3,0.3,0.5,0.6,0.9,0.9c0.4,0.3,0.8,0.4,1.2,0.5c0.3,0,0.5,0.1,0.8,0
					c0.2,0,0.5,0,0.7-0.1c0,0-0.8-1-0.8-1.1C321.1,250.8,320.5,250.1,320,249.3z"/>
			</g>
		</g>
		<g id="XMLID_5_">
			<g id="XMLID_54_">
				<path id="XMLID_55_" d="M303,252.3c-0.1-0.3-0.3-0.6-0.4-0.9c-0.3-0.7-0.6-1.5-0.9-2.2c-0.3-0.8-0.6-1.6-1-2.4
					c-0.6-1.6-1.3-3.1-1.9-4.7c-0.2-0.4-0.4-0.9-0.5-1.3c-0.3-0.6-0.5-1.2-0.8-1.8c-0.1-0.3-0.2-0.6-0.4-0.9c0,0,0-0.1,0-0.1
					c-1.3,0.1-2.6,0.1-3.8,0.1c0.4,0.8,0.7,1.7,1.2,2.5c1.3,2.7,2.8,5.3,4.1,8c0.7,1.4,1.2,3,2.3,4c0.4,0.3,0.8,0.4,1.3,0.5
					c0.2,0,0.4,0,0.6,0.1c0.2,0,0.4,0.1,0.6,0c0.2,0,0.1-0.2,0.1-0.4C303.2,252.6,303.1,252.4,303,252.3z"/>
			</g>
		</g>
		<path id="XMLID_8_" class="st8" d="M302.2,178.6c-0.8-5.2-1.6-10.5-2.3-15.7c-0.1-0.4-2-0.6-2.3-0.7c-3.6-0.8-7.2-1.4-10.9-1.3
			c-1.2,0-2.3,0.3-3.4,0.7c-1,0.4-2.1,0.9-2.9,1.7c0.4,0.2,0.9,0.2,1.4,0.3c0.5,0.1,0.9,0.2,1.4,0.4c0.9,0.3,1.8,0.6,2.6,1
			c1.7,0.8,3.3,1.8,4.9,3c3.1,2.3,5.9,5,8.7,7.7C300.2,176.7,301.2,177.7,302.2,178.6"/>
		<g id="XMLID_7_">
			<g id="XMLID_45_">
				<path id="XMLID_46_" d="M268.9,224.1c-0.5-0.2-1.3,0.1-2.3,0.8l-31.2,22.7c-2.3,1.6-1.8,3,0.9,3.1l9.2,0.2c0.3,0,0.7-0.1,1-0.3
					c2.6-1.9,15.8-11.7,19.3-14.3C266.4,232.2,267.5,228.1,268.9,224.1z"/>
			</g>
		</g>
		<path id="XMLID_10_" d="M278.8,235.8"/>
		<path id="XMLID_3_" d="M279,235.4c-0.5-1,0.1-3,0.4-3.9c0.4-1.5,1-3,1.6-4.5c1-2.5,2.2-5,3.6-7.3c2.3-4.2,5-8.1,8-11.7
			c-11.9,8.1-19.5,21.3-26,34.4c0.5-10.7,4.2-21,9.1-30.4c4.9-9.4,11.1-18,17-26.8c2-3,4-6.7,2.6-10.1c-0.4-1-1.1-1.8-1.5-2.8
			c-0.6-1.5-0.6-3.2-0.1-4.8c1.3-5,6.2-8.5,11.1-8.9c5-0.4,9.9,1.9,13.6,5.3c3.7,3.5,6.3,8,8.4,12.7c4,8.9,6.4,18.9,4.7,28.5
			c-0.9,5-2.8,9.8-5.5,14.1c-3.4,5.5-8,10.3-13.6,13.4c-4.7,2.6-10,3.9-15.3,4.5c-2.7,0.3-5.4,0.4-8.1,0.3c-3,0-6.2-0.3-9.1-1.4
			c-0.3-0.1-0.6-0.2-0.8-0.5C279.1,235.5,279.1,235.4,279,235.4z"/>
	</g>
	
		<linearGradient id="XMLID_87_" gradientUnits="userSpaceOnUse" x1="228.4205" y1="255.6729" x2="319.8619" y2="255.6729" gradientTransform="matrix(1.3022 -0.1273 8.484650e-002 0.8681 -111.0553 68.0486)">
		<stop  offset="0.2957" style="stop-color:#282826"/>
		<stop  offset="1" style="stop-color:#000000"/>
	</linearGradient>
	<path id="XMLID_16_" class="st9" d="M327.2,249.3c0.7,7.2-25.4,15.7-58.3,18.9c-32.9,3.2-60.1,0-60.8-7.3
		c-0.7-7.2,25.4-15.7,58.3-18.9C299.2,238.8,326.5,242.1,327.2,249.3z"/>
</g>
<g id="Layer_1">
	<circle id="XMLID_1_" class="st8" cx="197.5" cy="98.2" r="50"/>
	<path id="XMLID_71_" class="st10" d="M184.6,62.6c-10,3.9-14.8,14.7-10.7,24.2l12.2,28.1l5.4-2.1l-12.2-28.1
		c-2.9-6.6,0.5-14.2,7.5-16.9s15,0.5,17.9,7.1l0,0l5.5-2.1C206.1,63.2,194.7,58.7,184.6,62.6z"/>
	<g id="XMLID_69_" class="st11">
		<path id="XMLID_70_" d="M184.6,62.6c-10,3.9-14.8,14.7-10.7,24.2l12.2,28.1l5.4-2.1l-12.2-28.1c-2.9-6.6,0.5-14.2,7.5-16.9
			s15,0.5,17.9,7.1l0,0l5.5-2.1C206.1,63.2,194.7,58.7,184.6,62.6z"/>
	</g>
	<path id="XMLID_68_" class="st10" d="M177.3,103.7L220.5,87c1.6-0.6,3.5,0.1,4.1,1.6l10.5,24.2c0.7,1.5-0.1,3.3-1.7,3.9l-43.2,16.7
		c-1.6,0.6-3.5-0.1-4.1-1.6l-10.5-24.2C174.9,106,175.7,104.3,177.3,103.7z"/>
	<g id="XMLID_66_" class="st12">
		<path id="XMLID_67_" d="M207.7,104.7c-0.9-2.1-3.5-3.2-5.8-2.3c-2.3,0.9-3.4,3.3-2.4,5.4c0.7,1.7,2.6,2.8,4.6,2.6l2.5,5.8l2.2-0.9
			l-2.5-5.8C207.9,108.4,208.5,106.5,207.7,104.7z"/>
	</g>
	<path id="XMLID_65_" class="st13" d="M188.6,130.7c-0.1,0-2.4-4.9-5-11s-4.7-11.1-4.6-11.1c0.1,0,2.4,4.9,5,11
		S188.7,130.6,188.6,130.7z"/>
	<path id="XMLID_64_" class="st13" d="M202.6,112.5c-0.2,0-0.4,0-0.6-0.1c-0.5-0.1-1-0.3-1.5-0.6c-2.9-1.6-3.9-5.2-2.2-8
		c0.2-0.3,0.4-0.6,0.7-0.9c0.3-0.4,0.8-0.7,1.2-1c0.3-0.2,0.5-0.3,0.5-0.2c-0.5,0.4-1.1,0.9-1.5,1.4c-2.1,2.5-1.7,6.1,0.9,8.2
		c0.2,0.1,0.3,0.2,0.5,0.3C201.3,111.9,201.9,112.2,202.6,112.5z"/>
	<path id="XMLID_63_" class="st14" d="M167.8,117.6l0.3-0.7l0.5,0.6c0.4,0.5,1,0.8,1.6,1l0.8,0.3l-0.6,0.5c-0.5,0.4-0.9,0.9-1.1,1.5
		l-0.3,0.7l-0.5-0.6c-0.4-0.5-1-0.8-1.6-1l-0.8-0.3l0.6-0.5C167.2,118.7,167.6,118.2,167.8,117.6z"/>
	<path id="XMLID_60_" class="st14" d="M193.7,88.9l0.2-0.4l0.3,0.3c0.2,0.3,0.6,0.5,0.9,0.6l0.4,0.1l-0.4,0.3
		c-0.3,0.2-0.5,0.5-0.6,0.9l-0.2,0.4l-0.3-0.4c-0.2-0.3-0.5-0.5-0.9-0.6l-0.5-0.1l0.4-0.3C193.3,89.5,193.5,89.2,193.7,88.9z"/>
	<path id="XMLID_44_" class="st14" d="M162.6,92.5l0.4-1.2l0.9,1c0.7,0.8,1.6,1.4,2.6,1.8l1.3,0.4l-1.1,0.8
		c-0.9,0.6-1.5,1.5-1.9,2.5l-0.4,1.2l-0.8-1c-0.7-0.8-1.6-1.4-2.6-1.8l-1.3-0.4l1.1-0.8C161.6,94.3,162.2,93.5,162.6,92.5z"/>
	<g id="XMLID_39_">
	</g>
	<g id="XMLID_72_">
	</g>
	<g id="XMLID_73_">
	</g>
	<g id="XMLID_74_">
	</g>
	<g id="XMLID_75_">
	</g>
	<g id="XMLID_76_">
	</g>
	<g id="XMLID_77_">
	</g>
	<g id="XMLID_78_">
	</g>
	<g id="XMLID_79_">
	</g>
	<g id="XMLID_80_">
	</g>
	<g id="XMLID_81_">
	</g>
	<g id="XMLID_82_">
	</g>
	<g id="XMLID_83_">
	</g>
	<g id="XMLID_84_">
	</g>
	<g id="XMLID_85_">
	</g>
</g>
</svg>
