<?xml version="1.0" encoding="utf-8"?>
<!-- Generator: Adobe Illustrator 19.0.0, SVG Export Plug-In . SVG Version: 6.00 Build 0)  -->
<svg version="1.1" id="Layer_1" xmlns="http://www.w3.org/2000/svg" xmlns:xlink="http://www.w3.org/1999/xlink" x="0px" y="0px"
	 viewBox="0 0 200 65" style="enable-background:new 0 0 200 65;" xml:space="preserve">
<style type="text/css">
	.st0{fill:#F07900;}
	.st1{font-family:'Roboto-Bold';}
	.st2{font-size:37.6321px;}
</style>
<g id="XMLID_15_">
	<g id="XMLID_9_">
		<g id="XMLID_62_">
			<path id="XMLID_63_" d="M46.2,56.6c-0.2-0.3-0.4-0.6-0.6-0.8c-0.9-1.1-1.7-2.3-2.5-3.4c-0.2-0.3-0.4-0.6-0.7-0.9
				c-0.1-0.2-0.3-0.4-0.4-0.6c-0.2-0.3-0.4-0.5-0.6-0.8c-0.1-0.1-0.2-0.3-0.3-0.4c0-0.1-0.1-0.1-0.1-0.2c0,0,0-0.1-0.1-0.1
				c0,0,0-0.1-0.1-0.1c0,0,0,0,0,0c0,0,0,0,0,0c-0.6,0.2-1.2,0.5-1.9,0.7c0.3,0.4,0.6,0.8,1,1.2c0.7,0.8,1.4,1.6,2.1,2.4
				c0.7,0.8,1.4,1.6,2.2,2.4c0.5,0.5,1,1.1,1.5,1.6c0.1,0.2,0.3,0.3,0.4,0.4c0.2,0.1,0.4,0.2,0.6,0.2c0.1,0,0.3,0,0.4,0
				c0.1,0,0.3,0,0.4,0c0,0-0.4-0.5-0.4-0.6C46.8,57.4,46.5,57,46.2,56.6z"/>
		</g>
	</g>
	<g id="XMLID_5_">
		<g id="XMLID_55_">
			<path id="XMLID_56_" d="M37.4,58.1c-0.1-0.1-0.2-0.3-0.2-0.4c-0.2-0.4-0.3-0.7-0.5-1.1c-0.2-0.4-0.3-0.8-0.5-1.2
				c-0.3-0.8-0.7-1.6-1-2.3c-0.1-0.2-0.2-0.4-0.3-0.7c-0.1-0.3-0.3-0.6-0.4-0.9c-0.1-0.1-0.1-0.3-0.2-0.4c0,0,0,0,0-0.1
				c-0.7,0-1.3,0.1-2,0.1c0.2,0.4,0.4,0.8,0.6,1.3c0.7,1.3,1.5,2.6,2.1,4c0.3,0.7,0.6,1.5,1.2,2c0.2,0.2,0.4,0.2,0.7,0.2
				c0.1,0,0.2,0,0.3,0c0.1,0,0.2,0,0.3,0c0.1,0,0.1-0.1,0-0.2C37.5,58.2,37.4,58.2,37.4,58.1z"/>
		</g>
	</g>
	<path id="XMLID_8_" class="st0" d="M37,21.5c-0.4-2.6-0.9-5.2-1.2-7.8c0-0.2-1.1-0.3-1.2-0.3c-1.9-0.4-3.8-0.7-5.7-0.6
		c-0.6,0-1.2,0.2-1.8,0.4c-0.5,0.2-1.1,0.4-1.5,0.8c0.2,0.1,0.5,0.1,0.7,0.1c0.2,0.1,0.5,0.1,0.7,0.2c0.5,0.1,0.9,0.3,1.4,0.5
		c0.9,0.4,1.7,0.9,2.5,1.5c1.6,1.1,3.1,2.5,4.5,3.8C35.9,20.6,36.5,21.1,37,21.5"/>
	<g id="XMLID_7_">
		<g id="XMLID_46_">
			<path id="XMLID_47_" d="M19.7,44.1c-0.3-0.1-0.7,0-1.2,0.4L2.3,55.7c-1.2,0.8-1,1.5,0.5,1.5l4.8,0.1c0.2,0,0.4-0.1,0.5-0.2
				c1.4-1,8.3-5.8,10.1-7.1C18.4,48.1,18.9,46.1,19.7,44.1z"/>
		</g>
	</g>
	<path id="XMLID_10_" d="M24.8,49.9"/>
	<path id="XMLID_2_" d="M24.9,49.7c-0.3-0.5,0.1-1.5,0.2-1.9c0.2-0.8,0.5-1.5,0.8-2.2c0.5-1.3,1.2-2.5,1.9-3.6
		c1.2-2.1,2.6-4,4.2-5.8c-6.2,4-10.1,10.5-13.5,17c0.2-5.3,2.2-10.4,4.7-15.1S29,29.1,32,24.7c1-1.5,2.1-3.3,1.4-5
		c-0.2-0.5-0.6-0.9-0.8-1.4c-0.3-0.7-0.3-1.6-0.1-2.4c0.7-2.5,3.2-4.2,5.8-4.4c2.6-0.2,5.1,0.9,7.1,2.6s3.3,4,4.4,6.3
		c2.1,4.4,3.3,9.4,2.4,14.2c-0.5,2.5-1.5,4.9-2.8,7c-1.8,2.7-4.2,5.1-7.1,6.7c-2.5,1.3-5.2,1.9-8,2.2c-1.4,0.1-2.8,0.2-4.2,0.2
		c-1.6,0-3.2-0.2-4.7-0.7C25.2,49.9,25.1,49.9,24.9,49.7C25,49.7,24.9,49.7,24.9,49.7z"/>
</g>
<text id="XMLID_1_" transform="matrix(0.9808 0 0 1 56.0229 43.9404)" class="st1 st2">Freelans</text>
</svg>
