<?xml version="1.0" encoding="utf-8"?>
<!-- Generator: Adobe Illustrator 19.0.0, SVG Export Plug-In . SVG Version: 6.00 Build 0)  -->
<svg version="1.1" id="Layer_1" xmlns="http://www.w3.org/2000/svg" xmlns:xlink="http://www.w3.org/1999/xlink" x="0px" y="0px"
	 viewBox="0 0 200 50" style="enable-background:new 0 0 200 50;" xml:space="preserve">
<g id="XMLID_1_">
	<path id="XMLID_6_" d="M76.1,27.1H65.7V38h-5.4V11.3h17.1v4.5H65.7v6.9h10.4V27.1z"/>
	<path id="XMLID_12_" d="M90.7,23.1C89.9,23,89.3,23,88.8,23c-2,0-3.3,0.7-3.9,2v13h-5.2V18.1h4.9l0.1,2.4c1-1.8,2.5-2.7,4.3-2.7
		c0.6,0,1.1,0.1,1.6,0.2L90.7,23.1z"/>
	<path id="XMLID_15_" d="M101.8,38.4c-2.9,0-5.2-0.9-7-2.7s-2.7-4.2-2.7-7.1V28c0-2,0.4-3.8,1.1-5.4C94,21,95,19.8,96.4,19
		s3-1.3,4.7-1.3c2.7,0,4.8,0.9,6.3,2.6s2.3,4.1,2.3,7.3v2.2H97.4c0.2,1.3,0.7,2.3,1.5,3.1s1.9,1.2,3.2,1.2c2,0,3.6-0.7,4.7-2.2
		l2.6,2.9c-0.8,1.1-1.8,2-3.2,2.6S103.4,38.4,101.8,38.4z M101.2,22.1c-1,0-1.9,0.4-2.5,1.1s-1.1,1.7-1.2,3.1h7.2v-0.4
		c0-1.2-0.3-2.1-0.9-2.7C103.2,22.4,102.3,22.1,101.2,22.1z"/>
	<path id="XMLID_19_" d="M121.7,38.4c-2.9,0-5.2-0.9-7-2.7s-2.7-4.2-2.7-7.1V28c0-2,0.4-3.8,1.1-5.4c0.8-1.6,1.8-2.8,3.2-3.6
		s3-1.3,4.7-1.3c2.7,0,4.8,0.9,6.3,2.6c1.5,1.7,2.3,4.1,2.3,7.3v2.2h-12.4c0.2,1.3,0.7,2.3,1.5,3.1s1.9,1.2,3.2,1.2
		c2,0,3.6-0.7,4.7-2.2l2.6,2.9c-0.8,1.1-1.8,2-3.2,2.6S123.4,38.4,121.7,38.4z M121.1,22.1c-1,0-1.9,0.4-2.5,1.1s-1.1,1.7-1.2,3.1
		h7.2v-0.4c0-1.2-0.3-2.1-0.9-2.7C123.1,22.4,122.3,22.1,121.1,22.1z"/>
	<path id="XMLID_22_" d="M138.2,38H133V9.8h5.2V38z"/>
	<path id="XMLID_24_" d="M153.8,38c-0.2-0.5-0.4-1.1-0.5-1.8c-1.3,1.4-2.9,2.1-4.9,2.1c-1.9,0-3.5-0.6-4.7-1.7
		c-1.3-1.1-1.9-2.5-1.9-4.3c0-2.1,0.8-3.7,2.3-4.9c1.5-1.1,3.7-1.7,6.6-1.7h2.4v-1.1c0-0.9-0.2-1.7-0.7-2.2
		c-0.5-0.6-1.2-0.8-2.2-0.8c-0.9,0-1.6,0.2-2.1,0.6s-0.7,1-0.7,1.8h-5.2c0-1.2,0.3-2.2,1-3.2s1.7-1.7,3-2.3s2.7-0.8,4.3-0.8
		c2.4,0,4.3,0.6,5.7,1.8c1.4,1.2,2.1,3,2.1,5.2v8.6c0,1.9,0.3,3.3,0.8,4.3V38H153.8z M149.5,34.3c0.8,0,1.5-0.2,2.1-0.5
		s1.1-0.8,1.4-1.4V29h-1.9c-2.6,0-4,0.9-4.2,2.8v0.3c0,0.7,0.2,1.2,0.7,1.6C148.1,34.1,148.7,34.3,149.5,34.3z"/>
	<path id="XMLID_27_" d="M167.1,18.1l0.2,2.3c1.4-1.8,3.3-2.7,5.6-2.7c2.1,0,3.6,0.6,4.6,1.9c1,1.2,1.5,3.1,1.5,5.5V38h-5.2V25.3
		c0-1.1-0.2-1.9-0.7-2.5s-1.3-0.8-2.4-0.8c-1.5,0-2.6,0.6-3.3,1.9v14h-5.2V18.1H167.1z"/>
	<path id="XMLID_29_" d="M193.5,32.5c0-0.6-0.3-1.2-0.9-1.5s-1.6-0.7-3-1c-4.6-1-7-3-7-6c0-1.8,0.7-3.2,2.2-4.4s3.3-1.8,5.6-1.8
		c2.5,0,4.5,0.6,5.9,1.8c1.5,1.2,2.2,2.7,2.2,4.6h-5.2c0-0.8-0.2-1.4-0.7-1.9s-1.2-0.7-2.3-0.7c-0.9,0-1.6,0.2-2,0.6
		c-0.5,0.4-0.7,0.9-0.7,1.5s0.3,1.1,0.8,1.4s1.5,0.7,2.8,0.9s2.4,0.6,3.3,0.9c2.8,1,4.1,2.8,4.1,5.3c0,1.8-0.8,3.3-2.3,4.4
		c-1.5,1.1-3.5,1.7-5.9,1.7c-1.6,0-3.1-0.3-4.4-0.9c-1.3-0.6-2.3-1.4-3-2.4s-1.1-2.2-1.1-3.4h4.9c0,0.9,0.4,1.7,1,2.2
		s1.5,0.8,2.6,0.8c1,0,1.8-0.2,2.3-0.6S193.5,33.2,193.5,32.5z"/>
</g>
<g id="XMLID_14_">
</g>
<g id="XMLID_16_">
</g>
<g id="XMLID_3_">
	<g id="XMLID_9_">
		<g id="XMLID_58_">
			<path id="XMLID_59_" d="M44.6,47.3c-0.2-0.2-0.4-0.6-0.6-0.8c-0.9-1.1-1.7-2.2-2.5-3.3c-0.2-0.3-0.5-0.6-0.6-0.9
				c-0.2-0.2-0.3-0.4-0.4-0.6c-0.2-0.2-0.4-0.6-0.5-0.8s-0.2-0.2-0.3-0.4c-0.1-0.1-0.1-0.2-0.2-0.2l-0.1-0.1c0,0,0-0.1-0.1-0.1l0,0
				l0,0c-0.6,0.2-1.3,0.5-1.9,0.6c0.3,0.4,0.6,0.8,0.9,1.2c0.7,0.8,1.4,1.6,2.1,2.4c0.7,0.8,1.4,1.6,2.2,2.4c0.5,0.6,1,1.1,1.5,1.6
				c0.2,0.2,0.3,0.3,0.5,0.4c0.2,0.2,0.4,0.2,0.6,0.2c0.2,0,0.2,0,0.4,0c0.1,0,0.3,0,0.4,0c0,0-0.4-0.5-0.5-0.6
				C45.2,48.1,44.9,47.7,44.6,47.3z"/>
		</g>
	</g>
	<g id="XMLID_5_">
		<g id="XMLID_49_">
			<path id="XMLID_52_" d="M35.8,48.8c-0.1-0.2-0.2-0.3-0.2-0.5c-0.2-0.4-0.3-0.7-0.5-1.1s-0.3-0.8-0.5-1.2c-0.3-0.8-0.7-1.6-1-2.4
				c-0.1-0.2-0.2-0.5-0.3-0.6c-0.2-0.3-0.2-0.6-0.4-0.9c-0.1-0.2-0.2-0.3-0.2-0.5v-0.1c-0.6,0.1-1.3,0.1-2,0.1
				c0.2,0.4,0.4,0.9,0.6,1.3c0.7,1.3,1.5,2.6,2.1,3.9c0.3,0.7,0.6,1.5,1.2,2C34.8,49,35,49,35.2,49c0.1,0,0.2,0,0.3,0s0.2,0,0.3,0
				S35.9,48.8,35.8,48.8C35.9,48.8,35.9,48.8,35.8,48.8z"/>
		</g>
	</g>
	<path id="XMLID_8_" d="M35.4,12c-0.4-2.6-0.9-5.2-1.3-7.8c0-0.2-1-0.3-1.2-0.3c-1.9-0.4-3.8-0.7-5.6-0.6c-0.6,0-1.2,0.2-1.8,0.4
		C25,3.9,24.4,4.1,24,4.6c0.2,0.1,0.5,0.1,0.7,0.2S25.2,5,25.4,5c0.5,0.2,0.9,0.3,1.3,0.6c0.9,0.4,1.7,0.9,2.5,1.5
		c1.6,1.1,3.1,2.5,4.5,3.9C34.4,11.1,34.9,11.5,35.4,12"/>
	<g id="XMLID_7_">
		<g id="XMLID_42_">
			<path id="XMLID_43_" d="M18.1,34.7c-0.2-0.1-0.6,0-1.2,0.4L0.8,46.4c-1.2,0.8-0.9,1.5,0.5,1.6L6,48.1c0.2,0,0.4-0.1,0.5-0.2
				c1.3-0.9,8.2-5.8,10-7.2C16.8,38.7,17.4,36.6,18.1,34.7z"/>
		</g>
	</g>
	<path id="XMLID_10_" d="M23.3,40.5"/>
	<path id="XMLID_2_" d="M23.4,40.3c-0.3-0.5,0.1-1.5,0.2-2c0.2-0.8,0.5-1.5,0.9-2.2c0.5-1.3,1.2-2.4,1.9-3.6c1.2-2,2.6-4,4.2-5.8
		c-6.2,4-10.1,10.6-13.5,17.2c0.2-5.4,2.2-10.5,4.7-15.2s5.7-9,8.8-13.4c1-1.5,2.1-3.4,1.3-5c-0.2-0.5-0.5-0.9-0.8-1.4
		c-0.3-0.7-0.3-1.6-0.1-2.4c0.7-2.5,3.2-4.2,5.8-4.4C39.4,1.8,42,3,43.9,4.7s3.3,4,4.4,6.3c2,4.4,3.3,9.4,2.4,14.2
		c-0.5,2.5-1.5,4.9-2.8,7c-1.8,2.8-4.2,5.1-7.1,6.7c-2.4,1.3-5.2,2-8,2.2c-1.5,0.2-2.9,0.2-4.3,0.2c-1.6,0-3.2-0.2-4.7-0.7
		C23.7,40.5,23.5,40.5,23.4,40.3L23.4,40.3z"/>
</g>
<g id="XMLID_4_">
</g>
<g id="XMLID_31_">
</g>
<g id="XMLID_32_">
</g>
<g id="XMLID_33_">
</g>
<g id="XMLID_34_">
</g>
<g id="XMLID_35_">
</g>
<g id="XMLID_36_">
</g>
<g id="XMLID_37_">
</g>
<g id="XMLID_38_">
</g>
<g id="XMLID_39_">
</g>
<g id="XMLID_40_">
</g>
<g id="XMLID_41_">
</g>
<g id="XMLID_44_">
</g>
<g id="XMLID_45_">
</g>
<g id="XMLID_46_">
</g>
</svg>
