<?xml version="1.0" encoding="utf-8"?>
<!-- Generator: Adobe Illustrator 19.0.0, SVG Export Plug-In . SVG Version: 6.00 Build 0)  -->
<svg version="1.1" xmlns="http://www.w3.org/2000/svg" xmlns:xlink="http://www.w3.org/1999/xlink" x="0px" y="0px"
	 viewBox="0 0 200 200" style="enable-background:new 0 0 200 200;" xml:space="preserve">
<style type="text/css">
	.st0{fill:url(#XMLID_85_);}
	.st1{fill:url(#XMLID_86_);}
	.st2{fill:#FFFFFF;}
	.st3{fill:#F4F4F4;}
	.st4{fill:url(#XMLID_87_);}
	.st5{fill:#D4D4D4;}
	.st6{fill:#4CB4D8;}
	.st7{fill:none;stroke:#000000;stroke-miterlimit:10;}
	.st8{fill:url(#XMLID_88_);}
	.st9{fill:url(#XMLID_89_);}
	.st10{fill:url(#XMLID_90_);}
	.st11{fill:#EFB56F;}
	.st12{fill:#E57A1A;}
	.st13{fill:url(#XMLID_91_);}
	.st14{fill:url(#XMLID_92_);}
	.st15{fill:url(#XMLID_93_);}
</style>
<g id="Layer_1">
	<linearGradient id="XMLID_85_" gradientUnits="userSpaceOnUse" x1="24.8538" y1="153.1372" x2="218.7738" y2="41.1774">
		<stop  offset="0" style="stop-color:#000000"/>
		<stop  offset="0" style="stop-color:#FFFFFF;stop-opacity:0"/>
		<stop  offset="0.1183" style="stop-color:#B8B8B8;stop-opacity:0.1"/>
		<stop  offset="0.2527" style="stop-color:#616161;stop-opacity:0.2"/>
		<stop  offset="0.3226" style="stop-color:#434343;stop-opacity:0.2255"/>
		<stop  offset="0.4023" style="stop-color:#282828;stop-opacity:0.2546"/>
		<stop  offset="0.4729" style="stop-color:#181818;stop-opacity:0.2803"/>
		<stop  offset="0.5269" style="stop-color:#121212;stop-opacity:0.3"/>
		<stop  offset="0.9946" style="stop-color:#121212;stop-opacity:0.9615"/>
	</linearGradient>
	<path id="XMLID_39_" class="st0" d="M57.7,203.1c-7.4-6.4-16.1-16.3-17.2-29.5c-0.9-11.8,5.6-14.6,6.6-28.9
		c1.6-22.1-11.8-40.2-14.8-44.3C22.4,87,16.9,89.1,9.6,76.3c-2.2-3.8-9.5-17.2-7.2-34.9C3.1,36,6,20.9,19.4,9.1C25.1,4,31,2,35,0
		h160v203L57.7,203.1z"/>
	<linearGradient id="XMLID_86_" gradientUnits="userSpaceOnUse" x1="215.4078" y1="184.5162" x2="31.7782" y2="0.8866">
		<stop  offset="0" style="stop-color:#4F4F4F"/>
		<stop  offset="0" style="stop-color:#F07900"/>
	</linearGradient>
	<path id="XMLID_38_" class="st1" d="M62.2,200c-7.4-6.3-16.4-16-17.4-28.9c-0.9-11.6,5.5-14.3,6.5-28.3
		c1.6-21.6-11.9-39.4-14.9-43.4c-10-13.2-15.5-11.1-22.8-23.6C11.4,72.1,4.1,59,6.4,41.6C7.1,36.3,10,21,23.4,9.4
		C29.2,4.4,35,2,39,0h161v199.9L62.2,200z"/>
	<path id="XMLID_20_" class="st2" d="M59.5,48.7H34c-1.7,0-3-1.3-3-3V33c0-1.7,1.4-3,3-3h25.5c1.7,0,3,1.4,3,3v12.7
		C62.5,47.4,61.2,48.7,59.5,48.7z"/>
	<g id="XMLID_40_">
		<path id="XMLID_55_" class="st2" d="M51.5,42c1.7,0,2.3,1.2,1.5,2.6l-4.5,7.5c-0.8,1.4-2.2,1.4-3.1,0l-4.5-7.5
			c-0.8-1.4-0.2-2.6,1.5-2.6H51.5z"/>
	</g>
	<path id="XMLID_41_" d="M56.1,34.8H34.8c-0.4,0-0.8-0.4-0.8-0.8v0c0-0.4,0.4-0.8,0.8-0.8h21.3c0.4,0,0.8,0.4,0.8,0.8v0
		C56.9,34.5,56.6,34.8,56.1,34.8z"/>
	<path id="XMLID_44_" d="M50.2,38.4H34.7c-0.4,0-0.7-0.3-0.7-0.7v-0.2c0-0.4,0.3-0.7,0.7-0.7h15.5c0.4,0,0.7,0.3,0.7,0.7v0.2
		C50.9,38.1,50.6,38.4,50.2,38.4z"/>
	<path id="XMLID_45_" d="M53.8,42.1h-19c-0.4,0-0.7-0.3-0.7-0.7v-0.1c0-0.4,0.3-0.7,0.7-0.7h19c0.4,0,0.7,0.3,0.7,0.7v0.1
		C54.5,41.7,54.2,42.1,53.8,42.1z"/>
	<path id="XMLID_46_" d="M44.9,45.5H34.6c-0.3,0-0.6-0.3-0.6-0.6v-0.5c0-0.3,0.3-0.6,0.6-0.6h10.3c0.3,0,0.6,0.3,0.6,0.6V45
		C45.5,45.3,45.2,45.5,44.9,45.5z"/>
	<path id="XMLID_68_" class="st3" d="M45.2,191.8L45.2,191.8c-1,0-1.9-0.8-1.9-1.9v-1.8c0-1,0.8-1.9,1.9-1.9h0c1,0,1.9,0.8,1.9,1.9
		v1.8C47.1,190.9,46.2,191.8,45.2,191.8z"/>
</g>
<g id="Layer_2">
	<linearGradient id="XMLID_87_" gradientUnits="userSpaceOnUse" x1="174.054" y1="103.1438" x2="16.2345" y2="103.1438">
		<stop  offset="0.1882" style="stop-color:#000000;stop-opacity:0.3"/>
		<stop  offset="0.5323" style="stop-color:#000000;stop-opacity:0.2"/>
		<stop  offset="0.7742" style="stop-color:#000000;stop-opacity:0.1"/>
		<stop  offset="0.9355" style="stop-color:#000000;stop-opacity:0"/>
	</linearGradient>
	<path id="XMLID_1_" class="st4" d="M171.2,142.9H19.1c-1.6,0-2.8-1.3-2.8-2.8V66.2c0-1.6,1.3-2.8,2.8-2.8h152.1
		c1.6,0,2.8,1.3,2.8,2.8v73.8C174.1,141.6,172.8,142.9,171.2,142.9z"/>
	<path id="XMLID_2_" class="st5" d="M177.1,140H22.9c-1.6,0-2.9-1.3-2.9-2.9V62.9c0-1.6,1.3-2.9,2.9-2.9h154.3
		c1.6,0,2.9,1.3,2.9,2.9v74.3C180,138.7,178.7,140,177.1,140z"/>
	<path id="XMLID_5_" class="st2" d="M145.3,137.1h-28.8c-0.3,0-0.6-0.3-0.6-0.6v-16.8c0-0.3,0.3-0.6,0.6-0.6h28.8
		c0.3,0,0.6,0.3,0.6,0.6v16.8C145.9,136.8,145.6,137.1,145.3,137.1z"/>
	<path id="XMLID_3_" class="st2" d="M145.3,81.4h-28.8c-0.3,0-0.6-0.3-0.6-0.6V64c0-0.3,0.3-0.6,0.6-0.6h28.8c0.3,0,0.6,0.3,0.6,0.6
		v16.8C145.9,81.1,145.6,81.4,145.3,81.4z"/>
	<path id="XMLID_4_" class="st2" d="M145.3,108.4h-28.8c-0.3,0-0.6-0.3-0.6-0.6V91c0-0.3,0.3-0.6,0.6-0.6h28.8
		c0.3,0,0.6,0.3,0.6,0.6v16.8C145.9,108.1,145.6,108.4,145.3,108.4z"/>
	<g id="XMLID_9_">
		<path id="XMLID_6_" class="st2" d="M173.1,67.9h-24.9c-0.5,0-1-0.4-1-1v-0.4c0-0.5,0.4-1,1-1h24.9c0.5,0,1,0.4,1,1V67
			C174.1,67.5,173.6,67.9,173.1,67.9z"/>
		<path id="XMLID_7_" class="st2" d="M173.1,73.5h-24.9c-0.5,0-1-0.4-1-1v-0.4c0-0.5,0.4-1,1-1h24.9c0.5,0,1,0.4,1,1v0.4
			C174.1,73.1,173.6,73.5,173.1,73.5z"/>
		<path id="XMLID_8_" class="st2" d="M162.1,78.9H148c-0.4,0-0.7-0.3-0.7-0.7v-0.8c0-0.4,0.3-0.7,0.7-0.7h14.1
			c0.4,0,0.7,0.3,0.7,0.7v0.8C162.8,78.6,162.5,78.9,162.1,78.9z"/>
	</g>
	<g id="XMLID_10_">
		<path id="XMLID_13_" class="st2" d="M173.1,95.7h-24.9c-0.5,0-1-0.4-1-1v-0.4c0-0.5,0.4-1,1-1h24.9c0.5,0,1,0.4,1,1v0.4
			C174.1,95.2,173.6,95.7,173.1,95.7z"/>
		<path id="XMLID_12_" class="st2" d="M173.1,101.2h-24.9c-0.5,0-1-0.4-1-1v-0.4c0-0.5,0.4-1,1-1h24.9c0.5,0,1,0.4,1,1v0.4
			C174.1,100.8,173.6,101.2,173.1,101.2z"/>
		<path id="XMLID_11_" class="st2" d="M162.1,106.6H148c-0.4,0-0.7-0.3-0.7-0.7v-0.8c0-0.4,0.3-0.7,0.7-0.7h14.1
			c0.4,0,0.7,0.3,0.7,0.7v0.8C162.8,106.3,162.5,106.6,162.1,106.6z"/>
	</g>
	<g id="XMLID_14_">
		<path id="XMLID_17_" class="st2" d="M173.1,123.7h-24.9c-0.5,0-1-0.4-1-1v-0.4c0-0.5,0.4-1,1-1h24.9c0.5,0,1,0.4,1,1v0.4
			C174.1,123.3,173.6,123.7,173.1,123.7z"/>
		<path id="XMLID_16_" class="st2" d="M173.1,129.3h-24.9c-0.5,0-1-0.4-1-1V128c0-0.5,0.4-1,1-1h24.9c0.5,0,1,0.4,1,1v0.4
			C174.1,128.9,173.6,129.3,173.1,129.3z"/>
		<path id="XMLID_15_" class="st2" d="M162.1,134.7H148c-0.4,0-0.7-0.3-0.7-0.7v-0.8c0-0.4,0.3-0.7,0.7-0.7h14.1
			c0.4,0,0.7,0.3,0.7,0.7v0.8C162.8,134.4,162.5,134.7,162.1,134.7z"/>
	</g>
	<path id="XMLID_18_" class="st6" d="M108.9,137.1H26.6c-1.6,0-3-1.4-3-3V66.4c0-1.7,1.4-3,3-3h82.3c1.7,0,3,1.4,3,3v67.7
		C111.9,135.7,110.5,137.1,108.9,137.1z"/>
</g>
<g id="Layer_3">
	<g id="XMLID_19_">
	</g>
	<path id="XMLID_37_" class="st2" d="M188.3,39.4H94.8c-1.8,0-3.3-1.5-3.3-3.3v-7c0-1.8,1.5-3.3,3.3-3.3h93.5c1.8,0,3.3,1.5,3.3,3.3
		v7C191.6,37.9,190.1,39.4,188.3,39.4z"/>
</g>
<g id="Layer_4">
	<path id="XMLID_36_" class="st2" d="M98.4,185.5H56.1c-1.4,0-2.6-1.1-2.6-2.6v-39.1c0-1.4,1.1-2.6,2.6-2.6h42.4
		c1.4,0,2.6,1.1,2.6,2.6v39.1C101,184.4,99.8,185.5,98.4,185.5z"/>
	<line id="XMLID_22_" class="st7" x1="47" y1="149.5" x2="107" y2="149.5"/>
	<line id="XMLID_24_" class="st7" x1="100.5" y1="189" x2="100.5" y2="129"/>
	<line id="XMLID_23_" class="st7" x1="53.5" y1="189" x2="53.5" y2="129"/>
	<line id="XMLID_26_" class="st7" x1="62.5" y1="189" x2="62.5" y2="129"/>
	<line id="XMLID_25_" class="st7" x1="91.5" y1="189" x2="91.5" y2="129"/>
	<line id="XMLID_21_" class="st7" x1="47" y1="175.5" x2="107" y2="175.5"/>
	<g id="XMLID_27_">
		<g id="XMLID_33_">
			<g id="XMLID_58_">
				<path id="XMLID_59_" d="M84.1,173.7c-0.1-0.1-0.2-0.3-0.3-0.4c-0.4-0.6-0.8-1.2-1.1-1.7c-0.1-0.2-0.2-0.3-0.3-0.5
					c-0.1-0.1-0.1-0.2-0.2-0.3c-0.1-0.1-0.2-0.3-0.2-0.4c0-0.1-0.1-0.1-0.1-0.2c0-0.1,0-0.1-0.1-0.1l0-0.1c0,0,0-0.1,0-0.1l0,0l0,0
					c-0.3,0.1-0.6,0.3-0.8,0.3c0.1,0.2,0.3,0.4,0.4,0.6c0.3,0.4,0.6,0.8,0.9,1.3c0.3,0.4,0.6,0.8,1,1.3c0.2,0.3,0.4,0.6,0.7,0.8
					c0.1,0.1,0.1,0.2,0.2,0.2c0.1,0.1,0.2,0.1,0.3,0.1c0.1,0,0.1,0,0.2,0c0,0,0.1,0,0.2,0c0,0-0.2-0.3-0.2-0.3
					C84.3,174.1,84.2,173.9,84.1,173.7z"/>
			</g>
		</g>
		<g id="XMLID_32_">
			<g id="XMLID_49_">
				<path id="XMLID_52_" d="M80.2,174.5c0-0.1-0.1-0.2-0.1-0.3c-0.1-0.2-0.1-0.4-0.2-0.6s-0.1-0.4-0.2-0.6c-0.1-0.4-0.3-0.8-0.4-1.3
					c0-0.1-0.1-0.3-0.1-0.3c-0.1-0.2-0.1-0.3-0.2-0.5c0-0.1-0.1-0.2-0.1-0.3v-0.1c-0.3,0.1-0.6,0.1-0.9,0.1c0.1,0.2,0.2,0.5,0.3,0.7
					c0.3,0.7,0.7,1.4,0.9,2.1c0.1,0.4,0.3,0.8,0.5,1.1c0.1,0.1,0.2,0.1,0.3,0.1c0,0,0.1,0,0.1,0s0.1,0,0.1,0
					C80.2,174.6,80.2,174.5,80.2,174.5C80.2,174.5,80.2,174.5,80.2,174.5z"/>
			</g>
		</g>
		<path id="XMLID_31_" d="M80,155.1c-0.2-1.4-0.4-2.7-0.6-4.1c0-0.1-0.4-0.2-0.5-0.2c-0.8-0.2-1.7-0.4-2.5-0.3
			c-0.3,0-0.5,0.1-0.8,0.2c-0.2,0.1-0.5,0.2-0.7,0.5c0.1,0.1,0.2,0.1,0.3,0.1c0.1,0.1,0.2,0.1,0.3,0.1c0.2,0.1,0.4,0.2,0.6,0.3
			c0.4,0.2,0.8,0.5,1.1,0.8c0.7,0.6,1.4,1.3,2,2.1C79.6,154.6,79.8,154.8,80,155.1"/>
		<g id="XMLID_30_">
			<g id="XMLID_42_">
				<path id="XMLID_43_" d="M72.4,167.1c-0.1-0.1-0.3,0-0.5,0.2l-7.1,6c-0.5,0.4-0.4,0.8,0.2,0.8l2.1,0.1c0.1,0,0.2-0.1,0.2-0.1
					c0.6-0.5,3.6-3.1,4.4-3.8C71.8,169.2,72,168.1,72.4,167.1z"/>
			</g>
		</g>
		<path id="XMLID_29_" d="M74.7,170.1"/>
		<path id="XMLID_28_" d="M74.7,170c-0.1-0.3,0-0.8,0.1-1.1c0.1-0.4,0.2-0.8,0.4-1.2c0.2-0.7,0.5-1.3,0.8-1.9
			c0.5-1.1,1.1-2.1,1.9-3.1c-2.7,2.1-4.5,5.6-6,9.1c0.1-2.8,1-5.5,2.1-8c1.1-2.5,2.5-4.7,3.9-7.1c0.4-0.8,0.9-1.8,0.6-2.6
			c-0.1-0.3-0.2-0.5-0.4-0.7c-0.1-0.4-0.1-0.8,0-1.3c0.3-1.3,1.4-2.2,2.6-2.3c1.1-0.2,2.3,0.5,3.1,1.4c0.8,0.9,1.5,2.1,1.9,3.3
			c0.9,2.3,1.5,5,1.1,7.5c-0.2,1.3-0.7,2.6-1.2,3.7c-0.8,1.5-1.9,2.7-3.1,3.5c-1.1,0.7-2.3,1.1-3.5,1.2c-0.7,0.1-1.3,0.1-1.9,0.1
			c-0.7,0-1.4-0.1-2.1-0.4C74.8,170.1,74.7,170.1,74.7,170L74.7,170z"/>
	</g>
	<line id="XMLID_34_" class="st7" x1="48" y1="185.5" x2="108" y2="185.5"/>
	<line id="XMLID_35_" class="st7" x1="45" y1="141.5" x2="105" y2="141.5"/>
	<linearGradient id="XMLID_88_" gradientUnits="userSpaceOnUse" x1="153.7998" y1="64.7021" x2="163.8015" y2="47.3787">
		<stop  offset="0" style="stop-color:#4F4F4F"/>
		<stop  offset="0.6935" style="stop-color:#353535"/>
		<stop  offset="0.9323" style="stop-color:#333333"/>
	</linearGradient>
	<circle id="XMLID_54_" class="st8" cx="158.8" cy="56" r="10"/>
	<circle id="XMLID_48_" class="st2" cx="159.1" cy="52.4" r="2.5"/>
	<linearGradient id="XMLID_89_" gradientUnits="userSpaceOnUse" x1="57.4848" y1="117.0004" x2="77.4881" y2="82.3536">
		<stop  offset="0" style="stop-color:#4F4F4F"/>
		<stop  offset="0.6935" style="stop-color:#353535"/>
		<stop  offset="0.9323" style="stop-color:#333333"/>
	</linearGradient>
	<circle id="XMLID_47_" class="st9" cx="67.5" cy="99.7" r="20"/>
	<polygon id="XMLID_50_" class="st2" points="61,92.2 76,99.7 61,107.2 	"/>
	<linearGradient id="XMLID_90_" gradientUnits="userSpaceOnUse" x1="121.7375" y1="149.0872" x2="132.2449" y2="149.0872">
		<stop  offset="0" style="stop-color:#353535;stop-opacity:0"/>
		<stop  offset="0.2043" style="stop-color:#353535;stop-opacity:4.677419e-002"/>
		<stop  offset="0.3226" style="stop-color:#353535;stop-opacity:5.650364e-002"/>
		<stop  offset="0.4247" style="stop-color:#353535;stop-opacity:0.1"/>
		<stop  offset="0.5161" style="stop-color:#202020;stop-opacity:0.1"/>
		<stop  offset="0.6505" style="stop-color:#181818;stop-opacity:0.2"/>
		<stop  offset="0.9247" style="stop-color:#000000;stop-opacity:0"/>
	</linearGradient>
	<rect id="XMLID_64_" x="121.7" y="133.2" class="st10" width="10.5" height="31.8"/>
	<g id="XMLID_63_">
		<path id="XMLID_62_" class="st2" d="M187.7,166.7h-58.5c-1.7,0-3-1.4-3-3v-31.1c0-1.7,1.4-3,3-3h58.5c1.7,0,3,1.4,3,3v31.1
			C190.7,165.3,189.3,166.7,187.7,166.7z"/>
		<rect id="XMLID_56_" x="128.6" y="131.9" class="st11" width="59.6" height="32.1"/>
		<polygon id="XMLID_51_" class="st12" points="128.6,164 147.9,135.5 167.3,164 		"/>
		<polygon id="XMLID_57_" class="st12" points="162.9,164 175.8,146.3 188.7,164 		"/>
		<ellipse id="XMLID_61_" class="st2" cx="163.7" cy="139" rx="2.2" ry="2.4"/>
	</g>
	<linearGradient id="XMLID_91_" gradientUnits="userSpaceOnUse" x1="96.0078" y1="35.2059" x2="98.5082" y2="30.875">
		<stop  offset="0" style="stop-color:#353535"/>
		<stop  offset="0.9323" style="stop-color:#333333"/>
	</linearGradient>
	<circle id="XMLID_65_" class="st13" cx="97.3" cy="33" r="2.5"/>
	<linearGradient id="XMLID_92_" gradientUnits="userSpaceOnUse" x1="134.2085" y1="46.6338" x2="152.7915" y2="14.4471">
		<stop  offset="0" style="stop-color:#353535"/>
		<stop  offset="0.9323" style="stop-color:#333333"/>
	</linearGradient>
	<path id="XMLID_66_" class="st14" d="M179.3,31.2h-71.7c-0.4,0-0.7-0.3-0.7-0.7l0,0c0-0.4,0.3-0.7,0.7-0.7h71.7
		c0.4,0,0.7,0.3,0.7,0.7l0,0C180,30.9,179.7,31.2,179.3,31.2z"/>
	<linearGradient id="XMLID_93_" gradientUnits="userSpaceOnUse" x1="126.3449" y1="46.4193" x2="139.7362" y2="23.2249">
		<stop  offset="0" style="stop-color:#353535"/>
		<stop  offset="0.9323" style="stop-color:#333333"/>
	</linearGradient>
	<path id="XMLID_67_" class="st15" d="M158.5,35.5h-51c-0.3,0-0.6-0.3-0.6-0.6v-0.2c0-0.3,0.3-0.6,0.6-0.6h51c0.3,0,0.6,0.3,0.6,0.6
		v0.2C159.1,35.2,158.8,35.5,158.5,35.5z"/>
	<g id="XMLID_69_">
	</g>
	<g id="XMLID_70_">
	</g>
	<g id="XMLID_71_">
	</g>
	<g id="XMLID_72_">
	</g>
	<g id="XMLID_73_">
	</g>
	<g id="XMLID_74_">
	</g>
	<g id="XMLID_75_">
	</g>
	<g id="XMLID_76_">
	</g>
	<g id="XMLID_77_">
	</g>
	<g id="XMLID_78_">
	</g>
	<g id="XMLID_79_">
	</g>
	<g id="XMLID_80_">
	</g>
	<g id="XMLID_81_">
	</g>
	<g id="XMLID_82_">
	</g>
	<g id="XMLID_83_">
	</g>
</g>
</svg>
