<?xml version="1.0" encoding="utf-8"?>
<!-- Generator: Adobe Illustrator 19.0.0, SVG Export Plug-In . SVG Version: 6.00 Build 0)  -->
<svg version="1.1" id="Layer_1" xmlns="http://www.w3.org/2000/svg" xmlns:xlink="http://www.w3.org/1999/xlink" x="0px" y="0px"
	 viewBox="0 0 100 100" style="enable-background:new 0 0 100 100;" xml:space="preserve">
<style type="text/css">
	.st0{fill:#F07900;}
	.st1{fill:none;stroke:#000000;stroke-miterlimit:10;}
</style>
<g id="XMLID_1_">
	<path id="XMLID_12_" class="st0" d="M48.7,12.7c0.7-1.5,1.8-1.5,2.5,0l9.8,20.9c0.7,1.5,2.6,2.9,4.2,3.2L87,40.1
		c1.6,0.2,2,1.4,0.9,2.6L72.1,58.9c-1.2,1.2-1.9,3.5-1.6,5.1l3.8,23c0.3,1.6-0.7,2.3-2.1,1.5L52.6,77.8c-1.4-0.8-3.8-0.8-5.3,0
		L27.9,88.5c-1.4,0.8-2.4,0.1-2.1-1.5l3.8-23c0.3-1.6-0.5-3.9-1.6-5.1L12.1,42.7c-1.2-1.2-0.8-2.4,0.9-2.6l21.7-3.3
		c1.6-0.2,3.5-1.7,4.2-3.2L48.7,12.7z"/>
	<path id="XMLID_11_" class="st1" d="M48.7,12.7c0.7-1.5,1.8-1.5,2.5,0l9.8,20.9c0.7,1.5,2.6,2.9,4.2,3.2L87,40.1
		c1.6,0.2,2,1.4,0.9,2.6L72.1,58.9c-1.2,1.2-1.9,3.5-1.6,5.1l3.8,23c0.3,1.6-0.7,2.3-2.1,1.5L52.6,77.8c-1.4-0.8-3.8-0.8-5.3,0
		L27.9,88.5c-1.4,0.8-2.4,0.1-2.1-1.5l3.8-23c0.3-1.6-0.5-3.9-1.6-5.1L12.1,42.7c-1.2-1.2-0.8-2.4,0.9-2.6l21.7-3.3
		c1.6-0.2,3.5-1.7,4.2-3.2L48.7,12.7z"/>
</g>
</svg>
