<?xml version="1.0" encoding="utf-8"?>
<!-- Generator: Adobe Illustrator 19.0.0, SVG Export Plug-In . SVG Version: 6.00 Build 0)  -->
<svg version="1.1" id="Capa_1" xmlns="http://www.w3.org/2000/svg" xmlns:xlink="http://www.w3.org/1999/xlink" x="0px" y="0px"
	 viewBox="183 -183.3 466.3 466.3" style="enable-background:new 183 -183.3 466.3 466.3;" xml:space="preserve">
<g>
	<path d="M416.1-183.3c-128.6,0-233.2,104.6-233.2,233.1c0,128.6,104.6,233.2,233.2,233.2S649.3,178.4,649.3,49.8
		C649.3-78.7,544.7-183.3,416.1-183.3z M406.9,258.5c-22.3,0-46.4-41.4-59-107.8h118C453.3,217.2,429.2,258.5,406.9,258.5z
		 M344,126.8c-2.7-20-4.4-41.8-4.9-65h135.5c-0.4,23.2-2.1,45-4.9,65H344z M207.4,61.8h107.7c0.4,21.9,2.1,43.9,4.9,65h-98.3
		C213.6,106.5,208.7,84.6,207.4,61.8z M406.9-158.9c22,0,45.7,40.1,58.5,104.9h-117C361.2-118.7,384.9-158.9,406.9-158.9z
		 M469.4-30.1c3,20.8,4.8,43.6,5.3,68H339.1c0.5-24.4,2.3-47.2,5.3-68C344.4-30.1,469.4-30.1,469.4-30.1z M315.1,37.9H207.4
		c1.4-23.9,6.6-46.8,15.3-68h97.7C317.4-8,315.6,15,315.1,37.9z M498.6,61.8h126.1c-1.3,22.8-6.2,44.7-14.2,65H493.8
		C496.5,105.6,498.2,83.7,498.6,61.8z M498.6,37.9c-0.5-22.9-2.3-45.9-5.3-68h116c8.8,21.1,14,44,15.3,68H498.6z M597.5-54h-108
		c-7.9-42.1-20.7-78.8-38.2-102.2C513.9-145.5,567-107.1,597.5-54z M359-151.3c-15.7,23.5-27.3,58.1-34.7,97.3h-89.6
		C261.6-100.8,306-136.2,359-151.3z M232.9,150.7h90.9c7.3,40.4,19.1,76.2,35.2,100.3C304.8,235.6,259.6,199,232.9,150.7z
		 M451.3,255.9C469.2,232,482.2,194,490,150.7h109.3C569.2,205.4,515,245,451.3,255.9z"/>
</g>
</svg>
