<?xml version="1.0" encoding="utf-8"?>
<!-- Generator: Adobe Illustrator 19.0.0, SVG Export Plug-In . SVG Version: 6.00 Build 0)  -->
<svg version="1.1" id="Capa_1" xmlns="http://www.w3.org/2000/svg" xmlns:xlink="http://www.w3.org/1999/xlink" x="0px" y="0px"
	 viewBox="183 -183.3 466.3 466.3" style="enable-background:new 183 -183.3 466.3 466.3;" xml:space="preserve">
<style type="text/css">
	.st0{fill:#FFFFFF;}
</style>
<g>
	<path class="st0" d="M416.2-183.3C287.6-183.3,183-78.7,183,49.8C183,178.4,287.6,283,416.2,283c128.6,0,233.2-104.6,233.2-233.2
		C649.3-78.7,544.7-183.3,416.2-183.3z M407,258.5c-22.3,0-46.4-41.4-59-107.8H466C453.4,217.2,429.3,258.5,407,258.5z M344.1,126.8
		c-2.7-20-4.4-41.8-4.9-65h135.5c-0.4,23.2-2.1,45-4.9,65H344.1z M207.5,61.8h107.7c0.4,21.9,2.1,43.9,4.9,65h-98.3
		C213.7,106.5,208.8,84.6,207.5,61.8z M407-158.9c22,0,45.7,40.1,58.5,104.9h-117C361.3-118.7,385-158.9,407-158.9z M469.5-30.1
		c3,20.8,4.8,43.6,5.3,68H339.2c0.5-24.4,2.3-47.2,5.3-68H469.5z M315.2,37.9H207.5c1.4-23.9,6.6-46.8,15.3-68h97.7
		C317.5-8,315.7,15,315.2,37.9z M498.7,61.8h126.1c-1.3,22.8-6.2,44.7-14.2,65H493.9C496.6,105.6,498.3,83.7,498.7,61.8z
		 M498.7,37.9c-0.5-22.9-2.3-45.9-5.3-68h116c8.8,21.1,14,44,15.3,68H498.7z M597.6-54h-108c-7.9-42.1-20.7-78.8-38.2-102.2
		C514-145.5,567.1-107.1,597.6-54z M359.1-151.3c-15.7,23.5-27.3,58.1-34.7,97.3h-89.6C261.7-100.8,306.1-136.2,359.1-151.3z
		 M233,150.7h90.9c7.3,40.4,19.1,76.2,35.2,100.3C304.9,235.6,259.7,199,233,150.7z M451.4,255.9c17.9-23.9,30.9-61.9,38.7-105.2
		h109.3C569.2,205.4,515.1,245,451.4,255.9z"/>
</g>
</svg>
