<?xml version="1.0" encoding="utf-8"?>
<!-- Generator: Adobe Illustrator 19.0.0, SVG Export Plug-In . SVG Version: 6.00 Build 0)  -->
<svg version="1.1" xmlns="http://www.w3.org/2000/svg" xmlns:xlink="http://www.w3.org/1999/xlink" x="0px" y="0px"
	 viewBox="0 0 100 100" style="enable-background:new 0 0 100 100;" xml:space="preserve">
<style type="text/css">
	.st0{fill:#F07900;}
	.st1{fill:none;stroke:#000000;stroke-miterlimit:10;}
</style>
<g id="Layer_2">
	<g id="XMLID_4_">
		<g id="XMLID_33_">
			<path id="XMLID_34_" class="st0" d="M50,11.6c-0.5,0-1,0.4-1.3,1.1l-10.5,21c-0.7,1.5-2.7,2.9-4.3,3.1l-23.4,3.4
				c-1.6,0.2-2,1.4-0.8,2.5L26.6,59c1.2,1.1,1.9,3.4,1.6,5l-4,23c-0.3,1.6,0.7,2.3,2.1,1.6l20.9-10.9c0.7-0.4,1.7-0.6,2.7-0.6V11.6z
				"/>
		</g>
	</g>
</g>
<g id="Layer_1">
	<g id="XMLID_1_">
		<path id="XMLID_11_" class="st1" d="M48.7,12.7c0.7-1.5,1.9-1.5,2.7,0l10.5,21c0.7,1.5,2.7,2.9,4.3,3.1l23.4,3.4
			c1.6,0.2,2,1.4,0.8,2.5L73.4,59c-1.2,1.1-1.9,3.4-1.6,5l4,23c0.3,1.6-0.7,2.3-2.1,1.6L52.7,77.7c-1.5-0.8-3.9-0.8-5.3,0L26.4,88.6
			c-1.5,0.8-2.4,0.1-2.1-1.6l4-23c0.3-1.6-0.5-3.9-1.6-5L9.7,42.6c-1.2-1.1-0.8-2.3,0.8-2.5l23.4-3.4c1.6-0.2,3.6-1.6,4.3-3.1
			L48.7,12.7z"/>
	</g>
</g>
</svg>
