<?xml version="1.0" encoding="utf-8"?>
<!-- Generator: Adobe Illustrator 19.0.0, SVG Export Plug-In . SVG Version: 6.00 Build 0)  -->
<svg version="1.1" id="Layer_1" xmlns="http://www.w3.org/2000/svg" xmlns:xlink="http://www.w3.org/1999/xlink" x="0px" y="0px"
	 viewBox="0 0 11 14" enable-background="new 0 0 11 14" xml:space="preserve">
<g id="XMLID_1_">
	<g id="XMLID_336_">
		<path id="XMLID_337_" fill="#FFFFFF" d="M5,0C2.3,0,0,2.2,0,4.8s2.2,4.8,5,4.8c2.8,0,5-2.2,5-4.8S7.8,0,5,0z M5,8.7
			C2.8,8.7,1,7,1,4.8C1,2.7,2.8,1,5,1c2.2,0,4,1.7,4,3.9C9,7,7.2,8.7,5,8.7z"/>
	</g>
</g>
<path id="XMLID_2_" fill="#FFFFFF" d="M10.8,13.9L10.8,13.9c-0.3,0.2-0.6,0.2-0.7,0L6.6,9C6.4,8.8,6.5,8.6,6.7,8.4l0.1-0.1
	C7,8.2,7.3,8.3,7.4,8.5l3.5,4.8C11.1,13.5,11,13.7,10.8,13.9z"/>
</svg>
