<?xml version="1.0" encoding="utf-8"?>
<!-- Generator: Adobe Illustrator 19.0.0, SVG Export Plug-In . SVG Version: 6.00 Build 0)  -->
<svg version="1.1" id="Layer_1" xmlns="http://www.w3.org/2000/svg" xmlns:xlink="http://www.w3.org/1999/xlink" x="0px" y="0px"
	 viewBox="0 0 100 100" style="enable-background:new 0 0 100 100;" xml:space="preserve">
<path d="M0.2,22.7c0.3-0.8,0.5-1.6,0.9-2.7c10.1,10.3,20,20.4,29.7,30.3c-9.6,9.8-19.6,20-29.7,30.2c-0.3-1.1-0.6-1.9-0.9-2.7
	C0.2,59.4,0.2,41,0.2,22.7z"/>
<path d="M100.2,77.7c-0.3,0.8-0.5,1.6-0.9,2.7c-10.1-10.3-20-20.4-29.7-30.3c9.6-9.8,19.6-20,29.7-30.2c0.3,1.1,0.6,1.9,0.9,2.7
	C100.2,41,100.2,59.4,100.2,77.7z"/>
<path d="M5.3,15.6c1.4-0.2,2.9-0.6,4.3-0.6c21.4,0,42.8,0,64.2,0c5.8,0,11.5,0,17.3,0c1.3,0,2.7,0.4,4,0.6c0,0.1,0,0.2,0,0.3
	c-0.2,0.3-0.5,0.5-0.7,0.8C81.9,29.1,69.4,41.6,56.9,54c-2.7,2.7-5.9,3.8-9.6,2.4c-1.3-0.5-2.5-1.3-3.5-2.2
	C31,41.6,18.4,29,5.7,16.4c-0.1-0.1-0.2-0.2-0.3-0.4C5.3,15.9,5.3,15.8,5.3,15.6z"/>
<path d="M65,54.2c10,10.2,19.9,20.3,29.9,30.5c-0.8,0.2-1.9,0.4-2.9,0.6c-0.4,0.1-0.8,0-1.2,0c-27,0-54.1,0-81.1,0
	c-1.4,0-2.9-0.4-4.2-0.5c10.1-10.2,20-20.4,30-30.6c0.4,0.4,0.7,0.6,0.9,0.9c1.6,1.6,3.2,3.3,4.9,4.7c6,4.7,14,4,19.5-1.4
	C62.1,57.1,63.4,55.8,65,54.2z"/>
</svg>
