<?xml version="1.0" encoding="utf-8"?>
<!-- Generator: Adobe Illustrator 19.0.0, SVG Export Plug-In . SVG Version: 6.00 Build 0)  -->
<svg version="1.1" id="Layer_1" xmlns="http://www.w3.org/2000/svg" xmlns:xlink="http://www.w3.org/1999/xlink" x="0px" y="0px"
	 viewBox="0 0 35 35" style="enable-background:new 0 0 35 35;" xml:space="preserve">
<style type="text/css">
	.st0{fill:#C4C4C4;}
	.st1{fill:#A0A0A0;}
	.st2{fill:#FFFFFF;}
</style>
<g id="XMLID_11_">
	<g id="XMLID_9_">
		<path id="XMLID_8_" class="st0" d="M33.6,20.3H9.7c-0.6,0-1-0.5-1-1V8.3c0-0.6,0.5-1,1-1h23.9c0.6,0,1,0.5,1,1v10.9
			C34.6,19.8,34.2,20.3,33.6,20.3z"/>
		<g id="XMLID_5_">
			<path id="XMLID_7_" class="st1" d="M26.1,12.9H11.9c-0.2,0-0.4-0.2-0.4-0.4v-0.1c0-0.2,0.2-0.4,0.4-0.4h14.2
				c0.2,0,0.4,0.2,0.4,0.4v0.1C26.5,12.7,26.3,12.9,26.1,12.9z"/>
			<path id="XMLID_6_" class="st0" d="M31.4,15.7H11.9c-0.3,0-0.5-0.2-0.5-0.5v0c0-0.3,0.2-0.5,0.5-0.5h19.5c0.3,0,0.5,0.2,0.5,0.5
				v0C31.9,15.5,31.7,15.7,31.4,15.7z"/>
		</g>
	</g>
	<g id="XMLID_10_">
		<path id="XMLID_1_" class="st2" d="M25.3,27.7H1.4c-0.6,0-1-0.5-1-1V15.7c0-0.6,0.5-1,1-1h23.9c0.6,0,1,0.5,1,1v10.9
			C26.4,27.2,25.9,27.7,25.3,27.7z"/>
		<g id="XMLID_4_">
			<path id="XMLID_2_" class="st1" d="M17.8,20.3H3.6c-0.2,0-0.4-0.2-0.4-0.4v-0.1c0-0.2,0.2-0.4,0.4-0.4h14.2
				c0.2,0,0.4,0.2,0.4,0.4v0.1C18.2,20.1,18,20.3,17.8,20.3z"/>
			<path id="XMLID_3_" class="st0" d="M23.1,23.1H3.6c-0.3,0-0.5-0.2-0.5-0.5l0,0c0-0.3,0.2-0.5,0.5-0.5h19.5c0.3,0,0.5,0.2,0.5,0.5
				l0,0C23.6,22.8,23.4,23.1,23.1,23.1z"/>
		</g>
	</g>
</g>
</svg>
