<?xml version="1.0" encoding="utf-8"?>
<!-- Generator: Adobe Illustrator 19.0.0, SVG Export Plug-In . SVG Version: 6.00 Build 0)  -->
<svg version="1.1" id="Layer_1" xmlns="http://www.w3.org/2000/svg" xmlns:xlink="http://www.w3.org/1999/xlink" x="0px" y="0px"
	 viewBox="25 -25 100 100" style="enable-background:new 25 -25 100 100;" xml:space="preserve">
<style type="text/css">
	.st0{fill:#EF7800;}
</style>
<g id="XMLID_2_">
	<path id="XMLID_146_" class="st0" d="M67.9,68.2c-0.1,0.2-0.1,0.4-0.2,0.6c-0.6,1.5-1.1,4.5-2.3,5.6c-1.2,1.1-3.5,0.5-5,0.4
		c-3.9-0.2-7.7-0.1-11.6-0.1c0,0-0.1-0.1-0.1-0.1c-0.6-0.6-1-2-1.5-2.8c-0.7-1.3-1.5-2.5-2.3-3.7c-3-4.6-6.4-8.9-9.8-13.2
		c-2.6-3.2-5.8-6.3-8.2-9.6c-0.5-0.7-1-1.3-1.6-1.9c0.4,0.4,7.5-4.9,8.2-5.4c3.2-2.1,6.3-4.2,9.5-6.3c-0.2,0.1,3.4,5,3.7,5.4
		c2.2,3,5.6,6.5,9.5,7.2c1.6,0.3,2.3,0,2.9-1.5c3.7-9.7,10.1-18.5,15.6-27.2c3.5-5.5,7.1-10.9,11-16.2c4.6-6.2,9.2-12.8,15.2-17.8
		c4.6-3.9,10.4-6.3,16.4-6.1c2,0.1,3.5,0.3,5.3,1.1c1.2,0.5,2.6,1.5,2.4,3c-0.1,0.6-0.2,1.7-0.9,2.1c-4,2.4-7.4,5.7-10.4,9.2
		c-4.4,5.1-8.6,10.6-12.5,16.2c-9.8,14-18.2,28.8-25.8,44c-1.9,3.8-3.7,7.7-5.3,11.6C69.4,64.7,68.7,66.4,67.9,68.2z"/>
</g>
</svg>
