<?xml version="1.0" encoding="utf-8"?>
<!-- Generator: Adobe Illustrator 19.0.0, SVG Export Plug-In . SVG Version: 6.00 Build 0)  -->
<svg version="1.1" id="Layer_1" xmlns="http://www.w3.org/2000/svg" xmlns:xlink="http://www.w3.org/1999/xlink" x="0px" y="0px"
	 viewBox="0 0 100 100" style="enable-background:new 0 0 100 100;" xml:space="preserve">
<style type="text/css">
	.st0{fill:#EF7800;}
	.st1{fill:#E9996F;}
	.st2{fill:#E99364;}
	.st3{fill:#E6A27E;}
	.st4{fill:#E5976B;}
	.st5{fill:#E5996D;}
	.st6{fill:#E8966B;}
	.st7{fill:#9D9D9D;}
	.st8{fill:#F08543;}
	.st9{fill:#E5966A;}
	.st10{fill:#EB915E;}
	.st11{fill:#E9A17E;}
	.st12{fill:#E19A75;}
	.st13{fill:#E5A17D;}
	.st14{fill:#E49C73;}
	.st15{fill:#E39A70;}
	.st16{fill:#E99568;}
	.st17{fill:#E79D75;}
	.st18{fill:#EB9362;}
	.st19{fill:#E79B75;}
	.st20{fill:#E6A27F;}
	.st21{fill:#EAA07B;}
	.st22{fill:#EBA685;}
	.st23{fill:#EBA887;}
	.st24{fill:#F2AB88;}
	.st25{fill:#EBA27C;}
	.st26{fill:#EDA077;}
	.st27{fill:#E59C77;}
	.st28{fill:#EC9F75;}
	.st29{fill:#EC8C54;}
</style>
<g id="XMLID_2_">
	<path id="XMLID_146_" class="st0" d="M42.9,93.2c-0.3,0.8-0.6,1.6-0.9,2.4c-0.1,0-0.1,0.1-0.2,0.2c-0.2,0.6-0.4,1.2-0.6,1.8
		c-0.3,0.5-0.4,1.1-0.6,1.7c-0.1,0.3-0.2,0.4-0.6,0.4c-4.1,0-8.2,0-12.3,0c-1.3,0-2.6,0-3.9,0c0,0-0.1-0.1-0.1-0.1
		c-0.2-0.5-0.5-1-0.7-1.5c-0.1-0.2-0.2-0.3-0.3-0.4c0.2-0.1,0-0.2-0.1-0.4c-0.2-0.6-0.7-1-0.9-1.5c-0.4-0.7-0.8-1.3-1.2-2
		c-0.4-0.6-0.7-1.2-1.2-1.7c-0.9-1.3-1.9-2.6-2.8-3.9c-0.5-0.7-1-1.4-1.6-2.1c-0.4-0.4-0.7-0.9-1-1.3c-0.1-0.3-0.3-0.5-0.5-0.7
		c-0.7-0.9-1.4-1.9-2.2-2.8c-0.6-0.7-1.2-1.5-1.8-2.2c-0.3-0.4-0.6-0.9-1-1.2c0-0.2-0.2-0.2-0.3-0.3c-1.1-1.3-2.1-2.7-3.2-3.9
		c-0.7-0.8-1.3-1.6-2-2.4c-0.3-0.4-0.6-0.7-1-1c-0.5-0.7-1-1.3-1.6-1.9c0.6-0.2,0.9-0.7,1.5-0.9c0.1,0,0.2,0,0.3-0.1
		c0.6-0.4,1.1-0.7,1.7-1.1c0.8-0.6,1.7-1.1,2.5-1.8c0.5-0.4,1.1-0.7,1.6-1.1c0.6-0.5,1.4-0.8,2-1.3c1.4-1.1,2.9-1.9,4.4-2.9
		c1.1-0.8,2.2-1.6,3.4-2.3c0.4-0.2,0.4-0.2,0.6,0.2c0.6,1.1,1.3,2.2,2.1,3.2c0.2,0.2,0.3,0.5,0.5,0.7c0,0.2,0.1,0.3,0.2,0.4
		c1.3,1.8,2.7,3.4,4.3,4.9c0.3,0.3,0.5,0.7,1,0.7c0.7,0.7,1.6,1.1,2.4,1.6c0.8,0.4,1.5,0.6,2.4,0.8c0.7,0.1,1.4,0.1,2.1-0.1
		c0.3-0.1,0.4-0.4,0.5-0.7c0.7-1.6,1.6-3.2,2.4-4.8c0.6-1.2,1.2-2.3,1.9-3.5c0.9-1.6,1.7-3.2,2.6-4.7c0.5-0.8,1-1.5,1.4-2.4
		c0.7-1.4,1.6-2.7,2.4-4.1c0.6-1,1.2-2,1.8-3c1-1.6,1.9-3.1,2.9-4.6c0.7-1.2,1.5-2.4,2.3-3.6c0.6-0.9,1.2-1.9,1.8-2.8
		c0.9-1.3,1.7-2.5,2.6-3.8c0.2-0.2,0.3-0.5,0.4-0.7c0,0,0.1,0,0.1-0.1c0.8-1.1,1.5-2.2,2.3-3.3c0.2-0.3,0.5-0.6,0.6-1
		c0.3-0.3,0.5-0.7,0.8-1c0.7-0.7,1.2-1.6,1.9-2.5c0.5-0.7,1.1-1.3,1.5-2c1-1.2,1.9-2.4,2.9-3.6c0.1-0.1,0.1-0.2,0.1-0.3
		c1-1.2,2-2.5,3.1-3.7c0.1,0,0.1-0.1,0.2-0.1c1-1.1,2-2.3,3.1-3.3c0.5-0.5,1-1.1,1.5-1.6c0.7-0.7,1.4-1.4,2.2-2c1-0.8,2-1.7,3.2-2.3
		c1.3-0.7,2.6-1.3,4-1.8c0.9-0.3,1.7-0.5,2.6-0.7c0.7-0.2,1.3-0.3,2-0.4c0.1,0,0.2,0,0.3,0c0.3,0,0.6,0.1,0.8-0.1c0,0,0.1,0,0.1,0
		c0.4,0,0.7,0.1,1.1-0.1c0,0,0,0,0.1,0c0.7,0.2,1.4,0.1,2.1,0.1c1.6,0.1,3.1,0.4,4.5,1c0.1,0.1,0.3,0.2,0.5,0c0.4,0.2,0.7,0.4,1,0.7
		c0.7,0.6,1.2,1.4,1.1,2.3c-0.1,0.9-0.4,1.7-1,2.3C98.7,7,98.6,7,98.5,7.1c-1.5,1.1-2.8,2.4-4.2,3.6c-0.6,0.6-1.2,1.2-1.9,1.8
		c-0.1,0.1-0.1,0.1-0.1,0.2c-0.5,0.5-1,1.1-1.6,1.6c-0.1,0-0.2,0-0.2,0.1c-0.3,0.3-0.6,0.7-0.9,1c-1.3,1.4-2.6,2.9-3.9,4.4
		c-0.6,0.7-1.2,1.3-1.6,2.1c-0.5,0.6-1,1.2-1.4,1.8c-0.8,1.1-1.7,2.1-2.5,3.2c-0.1,0-0.2,0.1-0.3,0.2c-0.4,0.5-0.7,0.9-1.1,1.4
		c-0.3,0.5-0.7,0.9-0.9,1.4c-0.1,0.2-0.3,0.4-0.4,0.6c-0.1,0.1-0.3,0.3-0.4,0.4c-1.3,1.8-2.5,3.6-3.8,5.4c-0.3,0.4-0.7,0.8-0.8,1.4
		c-0.7,0.9-1.2,1.8-1.8,2.7c-0.1,0.1-0.1,0.1-0.2,0.2c-0.6,1-1.3,1.9-1.9,2.9c-0.1,0.2-0.3,0.4-0.4,0.7c-0.3,0.5-0.6,1-0.9,1.5
		c-0.9,1.4-1.8,2.8-2.6,4.2c-0.5,1-1.1,1.9-1.7,2.8c-0.7,1.1-1.3,2.2-1.9,3.4c-0.8,1.4-1.6,2.8-2.4,4.2c-0.7,1.3-1.5,2.6-2.2,4
		c-0.1,0-0.2,0.1-0.2,0.2c-0.4,0.7-0.8,1.4-1.1,2.1c-0.1,0.3-0.4,0.5-0.3,0.9c-0.5,0.9-1,1.9-1.5,2.9c-0.8,1.6-1.6,3.1-2.3,4.7
		c-0.2,0.1-0.2,0.2-0.3,0.4c-0.7,1.5-1.5,3.1-2.2,4.6c-0.1,0.1-0.1,0.2-0.1,0.3c-0.2,0.4-0.4,0.8-0.6,1.2c-0.1,0.1-0.2,0.2-0.2,0.4
		c-0.1,0.2-0.1,0.3-0.2,0.5c0,0-0.1,0.1-0.1,0.1c0,0,0,0.1-0.1,0.1c0,0,0,0,0,0.1c0,0,0,0.1-0.1,0.1c0,0,0,0,0,0.1
		c-0.1,0-0.1,0.1-0.1,0.2l0,0c-0.1,0-0.1,0.1-0.1,0.2c0,0,0,0,0,0.1c0,0,0,0.1-0.1,0.1c0,0,0,0,0,0.1c0,0,0,0.1-0.1,0.1
		c0,0,0,0,0,0.1c0,0,0,0.1-0.1,0.1c0,0,0,0,0,0.1c0,0,0,0.1-0.1,0.1c0,0,0,0,0,0.1c0,0,0,0.1-0.1,0.1c-0.8,1.9-1.7,3.9-2.5,5.8
		c-0.1,0.4-0.3,0.8-0.4,1.2c-0.1,0.3-0.3,0.5-0.3,0.8c0,0,0,0,0,0.1c0,0,0,0.1-0.1,0.1c0,0,0,0,0,0.1c0,0,0,0.1-0.1,0.1
		c0,0,0,0,0,0.1c-0.1,0-0.1,0.1-0.1,0.2l0,0c-0.1,0-0.1,0.1-0.1,0.2c0,0,0,0,0,0.1C43,92.9,43,93,43,93l0,0
		C42.9,93.1,42.9,93.1,42.9,93.2z"/>
	<path id="XMLID_145_" class="st1" d="M41.2,97.6c0.2-0.6,0.4-1.2,0.6-1.8c0-0.1,0.1-0.2,0.2-0.2c0.1,0.3-0.1,0.5-0.2,0.8
		c-0.4,1.1-0.8,2.2-1.1,3.3c0,0.1-0.1,0.2-0.2,0.2c-5.4,0-10.9,0-16.3,0c-0.1,0-0.3,0-0.4-0.1c3.7,0,7.4,0,11,0c1.8,0,3.5,0,5.3,0
		c0.2,0,0.4,0.1,0.4-0.2C40.8,98.9,41.1,98.3,41.2,97.6z"/>
	<path id="XMLID_144_" class="st2" d="M84.1,21.9c0.5-0.8,1.1-1.4,1.6-2.1c1.3-1.5,2.5-2.9,3.9-4.4c0.3-0.3,0.6-0.6,0.9-1
		c0.1-0.1,0.2-0.1,0.2-0.1c-0.1,0.2-0.2,0.4-0.4,0.5c-2.1,2.2-4,4.4-5.9,6.8C84.3,21.8,84.2,21.9,84.1,21.9z"/>
	<path id="XMLID_143_" class="st3" d="M72.5,37.7c0.1-0.5,0.5-0.9,0.8-1.4c1.2-1.8,2.5-3.6,3.8-5.4c0.1-0.2,0.3-0.3,0.4-0.4
		c0,0.2,0,0.3-0.1,0.4c-1.6,2.2-3.1,4.4-4.6,6.6C72.7,37.6,72.6,37.7,72.5,37.7z"/>
	<path id="XMLID_142_" class="st4" d="M92.3,12.7c0-0.1,0-0.1,0.1-0.2c0.7-0.6,1.2-1.2,1.9-1.8c1.4-1.2,2.8-2.5,4.2-3.6
		C98.6,7,98.7,7,98.8,6.9c0.1,0.2-0.1,0.3-0.2,0.4c-2,1.6-3.9,3.3-5.7,5.1C92.7,12.6,92.5,12.7,92.3,12.7z"/>
	<path id="XMLID_141_" class="st5" d="M26.1,66.8c-0.5-0.1-0.7-0.4-1-0.7c-1.6-1.5-3-3.1-4.3-4.9c-0.1-0.1-0.2-0.2-0.2-0.4
		c0.3,0,0.4,0.3,0.5,0.5c1.4,1.9,2.9,3.7,4.8,5.3C26,66.6,26.1,66.7,26.1,66.8z"/>
	<path id="XMLID_140_" class="st6" d="M1.9,70.1c0.4,0.3,0.7,0.6,1,1c0.7,0.8,1.3,1.7,2,2.4c1.2,1.2,2.1,2.7,3.2,3.9
		c0.1,0.1,0.3,0.2,0.3,0.3c0,0-0.1,0-0.1,0C7.6,76.9,6.8,76,6,75.1c-1.2-1.5-2.5-2.9-3.7-4.4C2.1,70.5,2,70.3,1.9,70.1z"/>
	<path id="XMLID_139_" class="st7" d="M23.9,99.8c0.1,0.1,0.3,0.1,0.4,0.1c5.4,0,10.9,0,16.3,0c-0.1,0.1-0.3,0.1-0.4,0.1
		c-5.3,0-10.6,0-15.9,0c-0.2,0-0.5,0.1-0.5-0.3c0,0,0.1,0.1,0.1,0.1C23.8,99.7,23.8,99.7,23.9,99.8z"/>
	<path id="XMLID_138_" class="st8" d="M97.6,1.6c-0.2,0.2-0.3,0-0.5,0c-1.5-0.5-3-0.8-4.5-1c-0.7-0.1-1.4,0-2.1-0.1c0,0,0.1,0,0.1,0
		c0.5-0.1,1-0.1,1.5,0c0.6,0.1,1.2,0,1.7,0.1C95.2,0.7,96.5,0.9,97.6,1.6z"/>
	<path id="XMLID_137_" class="st9" d="M8.3,77.8c0,0,0.1,0,0.1,0c0.4,0.3,0.7,0.8,1,1.2c0.6,0.8,1.2,1.5,1.8,2.2
		c0.8,0.9,1.5,1.8,2.2,2.8c0.2,0.2,0.4,0.4,0.5,0.7c-0.4-0.2-0.5-0.6-0.8-0.9c-1.6-2-3.1-4-4.7-5.9C8.3,77.9,8.3,77.9,8.3,77.8z"/>
	<path id="XMLID_136_" class="st10" d="M74.2,7.8c-0.5,0.5-1,1.1-1.5,1.6c-1.1,1.1-2.1,2.2-3.1,3.3c-0.1,0.1-0.1,0.1-0.2,0.1
		c-0.1-0.2,0.1-0.3,0.2-0.4c1.4-1.5,2.7-3,4.2-4.4C73.8,8,73.9,7.8,74.2,7.8z"/>
	<path id="XMLID_135_" class="st11" d="M48.4,80.5c-0.1-0.1,0-0.2,0.1-0.3c0.7-1.5,1.5-3.1,2.2-4.6c0.1-0.1,0.1-0.3,0.3-0.4
		c0,0.1,0,0.2-0.1,0.4c-0.8,1.6-1.5,3.2-2.3,4.7C48.6,80.4,48.6,80.5,48.4,80.5z"/>
	<path id="XMLID_134_" class="st12" d="M19.3,92.1c0.5,0.5,0.8,1.1,1.2,1.7c0.4,0.6,0.9,1.3,1.2,2c0.3,0.5,0.7,1,0.9,1.5
		c0,0.1,0.2,0.2,0.1,0.4c-0.4-0.5-0.6-1-0.9-1.5c-0.7-1.2-1.5-2.4-2.3-3.6C19.4,92.4,19.2,92.3,19.3,92.1z"/>
	<path id="XMLID_133_" class="st13" d="M6.2,64.3c-0.8,0.7-1.7,1.2-2.5,1.8c-0.6,0.4-1.1,0.8-1.7,1.1c-0.1,0.1-0.1,0.1-0.3,0.1
		c0-0.2,0.2-0.2,0.3-0.3c1.2-0.8,2.5-1.7,3.7-2.5C5.9,64.3,6,64.3,6.2,64.3z"/>
	<path id="XMLID_132_" class="st14" d="M68.2,44.2c0.1-0.3,0.2-0.5,0.4-0.7c0.6-1,1.2-1.9,1.9-2.9c0-0.1,0.1-0.1,0.2-0.2
		c0.1,0.2-0.1,0.3-0.1,0.4c-0.7,1-1.3,2.1-2,3.1C68.4,44.1,68.4,44.2,68.2,44.2z"/>
	<path id="XMLID_131_" class="st15" d="M63.2,20.5c-0.4,0.7-1,1.3-1.5,2c-0.6,0.8-1.1,1.7-1.9,2.5c0-0.1,0-0.2,0.1-0.3
		c1-1.4,2.1-2.8,3.1-4.2c0-0.1,0.1-0.1,0.2-0.1C63.2,20.4,63.2,20.4,63.2,20.5z"/>
	<path id="XMLID_130_" class="st16" d="M63.2,20.5c0,0,0-0.1,0-0.1c0.5-0.7,1-1.4,1.5-2c0.4-0.5,0.7-0.9,1.1-1.4
		c0.1-0.1,0.2-0.3,0.4-0.3c0,0.1,0,0.2-0.1,0.3C65.2,18,64.2,19.2,63.2,20.5z"/>
	<path id="XMLID_129_" class="st17" d="M59.1,26c-0.1,0.4-0.4,0.7-0.6,1c-0.8,1.1-1.5,2.2-2.3,3.3c0,0-0.1,0-0.1,0.1
		c0-0.4,0.3-0.6,0.5-0.9c0.7-1.1,1.5-2.1,2.2-3.2C58.9,26.1,58.9,26,59.1,26z"/>
	<path id="XMLID_128_" class="st18" d="M77.9,29.9c0.2-0.5,0.6-0.9,0.9-1.4c0.3-0.5,0.7-1,1.1-1.4c0.1-0.1,0.1-0.2,0.3-0.2
		c0,0.2-0.1,0.3-0.1,0.4c-0.6,0.8-1.2,1.6-1.8,2.4C78.1,29.8,78,29.9,77.9,29.9z"/>
	<path id="XMLID_127_" class="st19" d="M54.9,67.5c0-0.4,0.2-0.6,0.3-0.9c0.4-0.7,0.8-1.4,1.1-2.1c0.1-0.1,0.1-0.2,0.2-0.2
		c-0.3,0.9-0.8,1.7-1.2,2.6C55.2,67.1,55.1,67.4,54.9,67.5z"/>
	<path id="XMLID_126_" class="st20" d="M90.5,0.4c-0.4,0.2-0.7,0-1.1,0.1c0,0,0-0.1,0-0.1c0.3-0.1,0.6-0.1,0.9-0.1
		C90.3,0.4,90.4,0.4,90.5,0.4z"/>
	<path id="XMLID_125_" class="st21" d="M43.7,91.2c0.1-0.4,0.4-0.8,0.4-1.2c0.2,0.2,0,0.4-0.1,0.6C44,90.8,43.9,91,43.7,91.2
		C43.8,91.2,43.8,91.2,43.7,91.2z"/>
	<path id="XMLID_124_" class="st20" d="M89.3,0.5c-0.3,0.2-0.5,0.1-0.8,0.1c0,0,0-0.1,0-0.1C88.7,0.4,89,0.4,89.3,0.5
		C89.3,0.4,89.3,0.5,89.3,0.5z"/>
	<path id="XMLID_123_" class="st22" d="M43.7,91.2C43.8,91.2,43.8,91.2,43.7,91.2c0,0.3,0,0.6-0.3,0.8
		C43.5,91.7,43.6,91.5,43.7,91.2z"/>
	<path id="XMLID_122_" class="st23" d="M47.5,82.6c0.1-0.2,0.1-0.3,0.2-0.5C47.8,82.4,47.7,82.5,47.5,82.6z"/>
	<path id="XMLID_121_" class="st24" d="M90.5,0.4c-0.1,0-0.1,0-0.2-0.1c0.1,0,0.2-0.1,0.3,0C90.6,0.4,90.5,0.4,90.5,0.4
		C90.5,0.4,90.5,0.4,90.5,0.4z"/>
	<path id="XMLID_120_" class="st24" d="M88.5,0.5C88.5,0.5,88.5,0.6,88.5,0.5c-0.1,0.1-0.2,0.1-0.3,0.1C88.2,0.5,88.4,0.5,88.5,0.5z
		"/>
	<path id="XMLID_119_" class="st25" d="M47.2,83.2c0-0.1,0-0.1,0.1-0.2C47.3,83.1,47.3,83.2,47.2,83.2z"/>
	<path id="XMLID_118_" class="st26" d="M47.1,83.4c0-0.1,0-0.1,0.1-0.2C47.2,83.3,47.2,83.4,47.1,83.4z"/>
	<path id="XMLID_117_" class="st27" d="M43.2,92.6c0-0.1,0-0.1,0.1-0.2C43.3,92.5,43.3,92.6,43.2,92.6z"/>
	<path id="XMLID_116_" class="st27" d="M43,93c0-0.1,0-0.1,0.1-0.2C43.1,92.9,43.1,93,43,93z"/>
	<path id="XMLID_115_" class="st27" d="M42.9,93.2c0-0.1,0-0.1,0.1-0.2C43,93.1,43,93.2,42.9,93.2z"/>
	<path id="XMLID_114_" class="st27" d="M43.1,92.8c0-0.1,0-0.1,0.1-0.2C43.2,92.7,43.2,92.7,43.1,92.8z"/>
	<path id="XMLID_113_" class="st24" d="M89.3,0.5C89.3,0.5,89.3,0.4,89.3,0.5C89.3,0.4,89.3,0.4,89.3,0.5
		C89.4,0.4,89.4,0.5,89.3,0.5C89.3,0.5,89.3,0.5,89.3,0.5z"/>
	<path id="XMLID_112_" class="st25" d="M47.4,82.8c0,0,0-0.1,0.1-0.1C47.4,82.8,47.4,82.8,47.4,82.8z"/>
	<path id="XMLID_111_" class="st25" d="M47.3,83c0,0,0-0.1,0.1-0.1C47.3,82.9,47.3,83,47.3,83z"/>
	<path id="XMLID_110_" class="st26" d="M47,83.6c0,0,0-0.1,0.1-0.1C47.1,83.5,47.1,83.5,47,83.6z"/>
	<path id="XMLID_109_" class="st26" d="M46.9,83.7c0,0,0-0.1,0.1-0.1C47,83.7,47,83.7,46.9,83.7z"/>
	<path id="XMLID_108_" class="st26" d="M46.9,83.9c0,0,0-0.1,0.1-0.1C46.9,83.8,46.9,83.9,46.9,83.9z"/>
	<path id="XMLID_107_" class="st28" d="M46.8,84.1c0,0,0-0.1,0.1-0.1C46.9,84,46.8,84,46.8,84.1z"/>
	<path id="XMLID_106_" class="st28" d="M46.7,84.2c0,0,0-0.1,0.1-0.1C46.7,84.2,46.7,84.2,46.7,84.2z"/>
	<path id="XMLID_105_" class="st22" d="M43.3,92.2c0,0,0-0.1,0.1-0.1C43.4,92.2,43.4,92.2,43.3,92.2z"/>
	<path id="XMLID_104_" class="st27" d="M43.3,92.4c0,0,0-0.1,0.1-0.1C43.3,92.3,43.3,92.4,43.3,92.4z"/>
	<path id="XMLID_103_" class="st29" d="M23.9,99.8c0,0,0-0.1-0.1-0.1c1.3,0,2.6,0,3.9,0c4.1,0,8.2,0,12.3,0c0.3,0,0.5-0.1,0.6-0.4
		c0.2-0.6,0.3-1.1,0.6-1.7c-0.1,0.7-0.4,1.3-0.6,2c-0.1,0.2-0.3,0.2-0.4,0.2c-1.8,0-3.5,0-5.3,0C31.2,99.8,27.5,99.8,23.9,99.8z"/>
</g>
</svg>
