<?xml version="1.0" encoding="utf-8"?>
<!-- Generator: Adobe Illustrator 19.0.0, SVG Export Plug-In . SVG Version: 6.00 Build 0)  -->
<svg version="1.1" id="Layer_1" xmlns="http://www.w3.org/2000/svg" xmlns:xlink="http://www.w3.org/1999/xlink" x="0px" y="0px"
	 viewBox="0 0 100 100" style="enable-background:new 0 0 100 100;" xml:space="preserve">
<style type="text/css">
	.st0{fill:#FFFFFF;}
</style>
<path id="XMLID_9_" class="st0" d="M50,0C22.4,0,0,22.4,0,50c0,27.6,22.4,50,50,50s50-22.4,50-50C100,22.4,77.6,0,50,0z M75.4,55H55
	v17.3c0,2.8-2.3,5-5,5s-5-2.3-5-5V55H24.6c-2.5,0-4.6-2.4-4.6-5c0-2.6,2.1-5,4.6-5H45V27.7c0-2.8,2.3-5,5-5s5,2.3,5,5V45h20.4
	c2.5,0,4.6,2.4,4.6,5C80,52.6,77.9,55,75.4,55z"/>
</svg>
