<?xml version="1.0" encoding="utf-8"?>
<!-- Generator: Adobe Illustrator 19.0.0, SVG Export Plug-In . SVG Version: 6.00 Build 0)  -->
<svg version="1.1" id="Layer_1" xmlns="http://www.w3.org/2000/svg" xmlns:xlink="http://www.w3.org/1999/xlink" x="0px" y="0px"
	 viewBox="0 0 100 100" style="enable-background:new 0 0 100 100;" xml:space="preserve">
<style type="text/css">
	.st0{fill:#D4D4D4;}
	.st1{fill:#F4F4F4;}
</style>
<path id="XMLID_2_" class="st0" d="M94.3,73.2H10.2c-1.6,0-3-1.3-3-3V33.6c0-1.6,1.3-3,3-3h84.1c1.6,0,3,1.3,3,3v36.7
	C97.3,71.9,95.9,73.2,94.3,73.2z"/>
<path id="XMLID_1_" d="M92,71.3H8c-1.6,0-3-1.3-3-3V31.6c0-1.6,1.3-3,3-3H92c1.6,0,3,1.3,3,3v36.7C95,70,93.7,71.3,92,71.3z"/>
<circle id="XMLID_3_" class="st1" cx="50" cy="50" r="6"/>
</svg>
