<?xml version="1.0" encoding="utf-8"?>
<!-- Generator: Adobe Illustrator 19.0.0, SVG Export Plug-In . SVG Version: 6.00 Build 0)  -->
<svg version="1.1" id="Layer_1" xmlns="http://www.w3.org/2000/svg" xmlns:xlink="http://www.w3.org/1999/xlink" x="0px" y="0px"
	 viewBox="-17 19 64 64" style="enable-background:new -17 19 64 64;" xml:space="preserve">
<title>price tag</title>
<path d="M31.1,27.6c0.8-0.8,0.8-2.1,0-2.8c-0.1-0.1-0.1-0.1-0.2-0.2c-0.9-0.6-2-0.5-2.7,0.3L20,33c-0.4,0.4-0.9,0.4-1.3,0.1
	l-2.3-1.7c-1.2-0.9-2.9-0.9-4.2,0l-10.7,8c-2,1.5-3.2,3.9-3.2,6.4v24c0,4.4,3.6,8,8,8h16c4.4,0,8-3.6,8-8v-24c0-2.5-1.2-4.9-3.2-6.4
	l-3.7-2.8c-0.4-0.3-0.5-0.8-0.2-1.2c0,0,0.1-0.1,0.1-0.1L31.1,27.6z M8.5,40.4c0.5-2.2,2.2-4,4.4-4.5c1-0.3,2-0.3,3,0
	c0.3,0.1,0.4,0.3,0.4,0.6c0,0.1-0.1,0.2-0.1,0.2L13,40c-0.7,0.7-0.9,1.8-0.3,2.7c0.7,0.9,1.9,1.1,2.8,0.4c0.1-0.1,0.1-0.1,0.2-0.2
	l3.4-3.4c0.2-0.2,0.5-0.2,0.7,0c0,0,0.1,0.1,0.1,0.2c1.1,3.1-0.5,6.6-3.7,7.6c-3.1,1.1-6.6-0.5-7.6-3.7C8.3,42.6,8.2,41.5,8.5,40.4
	L8.5,40.4z M13.3,60.8h2.4c0.1,0,0.3,0,0.4,0c2.8,0.2,5,2.5,5,5.3v0.9c0,2.7-2,4.9-4.6,5.3v0.4c0,1.1-0.9,2-2,2c-1.1,0-2-0.9-2-2
	v-0.4c-2.6-0.4-4.6-2.6-4.6-5.3c0-1.1,0.9-2,2-2s2,0.9,2,2c0,0.8,0.6,1.4,1.4,1.4h2.4c0.8,0,1.4-0.6,1.4-1.4v-0.9
	c0-0.8-0.6-1.4-1.4-1.4h-2.4c-0.1,0-0.3,0-0.4,0c-2.8-0.2-5-2.5-5-5.3v-0.9c0-2.7,2-4.9,4.6-5.3v-0.4c0-1.1,0.9-2,2-2
	c1.1,0,2,0.9,2,2v0.4c2.6,0.4,4.6,2.6,4.6,5.3c0,1.1-0.9,2-2,2s-2-0.9-2-2c0-0.8-0.6-1.4-1.4-1.4h-2.4c-0.8,0-1.4,0.6-1.4,1.4v0.9
	C11.9,60.2,12.5,60.8,13.3,60.8L13.3,60.8z"/>
</svg>
