<?xml version="1.0" encoding="utf-8"?>
<!-- Generator: Adobe Illustrator 19.0.0, SVG Export Plug-In . SVG Version: 6.00 Build 0)  -->
<svg version="1.1" id="Layer_1" xmlns="http://www.w3.org/2000/svg" xmlns:xlink="http://www.w3.org/1999/xlink" x="0px" y="0px"
	 viewBox="0 0 100 100" enable-background="new 0 0 100 100" xml:space="preserve">
<g id="XMLID_20_">
	<g id="XMLID_112_">
		<g id="XMLID_113_">
			<path id="XMLID_117_" d="M24.2,68.1L8.5,52.3c-1.3-1.3-1.3-3.3,0-4.6l14-14l-2.6-2.6L3.6,47.4c-1.4,1.4-1.4,3.7,0,5.2l18.1,18.1
				L24.2,68.1z"/>
			<path id="XMLID_116_" d="M30.1,26.1L47.7,8.5c1.3-1.3,3.3-1.3,4.6,0l15.8,15.8l2.6-2.6L52.6,3.6c-1.4-1.4-3.7-1.4-5.2,0
				L27.5,23.5L30.1,26.1z"/>
			<path id="XMLID_115_" d="M66.3,77.6l-14,14c-1.3,1.3-3.3,1.3-4.6,0L31.9,75.8l-2.6,2.6l18.1,18.1c1.4,1.4,3.7,1.4,5.2,0
				l16.3-16.3L66.3,77.6z"/>
			<path id="XMLID_114_" d="M96.4,47.4L78.3,29.3l-2.6,2.6l15.8,15.8c1.3,1.3,1.3,3.3,0,4.6L73.9,69.9l2.6,2.6l19.9-19.9
				C97.9,51.2,97.9,48.8,96.4,47.4z"/>
		</g>
	</g>
</g>
<g id="XMLID_3_">
	<g id="XMLID_16_">
		<path id="XMLID_17_" d="M27.3,44.9c0-1.6,0.4-2.9,1.1-3.8c1.5-1.8,3.4-2.8,5.7-2.9c0.2,0,0.7,0,1.6,0h7.7v23.7h-2.7v-9.7
			c-2.9,0-4.6,0-5,0l-5.7,9.8h-3.6l6.9-10c-2.4-0.4-4-1.3-4.7-2.7c-0.8-1.4-1.2-2.7-1.2-4V44.9z M40.6,49.6v-9h-5.8
			c-2.1,0-3.4,0.6-4.1,1.8c-0.4,0.6-0.5,1.5-0.5,2.7c0,1.2,0.2,2,0.5,2.5c0.9,1.3,2.4,1.9,4.5,1.9H40.6z"/>
	</g>
	<g id="XMLID_13_">
		<path id="XMLID_14_" d="M60,38.1v23.6h-2.7L43.5,43v18.8h-2.7V38.1h2.5L57.2,57V38.1H60z"/>
	</g>
	<g id="XMLID_6_">
		<path id="XMLID_7_" d="M72.8,44.5c0.6,1.6,1,3.2,1,4.9c0,8.2-3.3,12.3-9.8,12.3h-6.7V38.1h7C68.2,38.1,71,40.2,72.8,44.5z
			 M61.7,59c1.5,0,2.4,0,2.7,0c2,0,3.5-0.7,4.6-2.1c1.1-1.4,1.7-3.8,1.7-7.1c0-4.9-1.4-7.7-4.1-8.6c-0.6-0.2-1.4-0.3-2.4-0.3H60V59
			H61.7z"/>
	</g>
	
		<rect id="XMLID_2_" x="49.2" y="36.4" transform="matrix(-0.8195 -0.5731 0.5731 -0.8195 63.0002 119.7775)" width="2.4" height="27.2"/>
</g>
<g id="XMLID_1_">
</g>
<g id="XMLID_21_">
</g>
<g id="XMLID_22_">
</g>
<g id="XMLID_23_">
</g>
<g id="XMLID_24_">
</g>
<g id="XMLID_25_">
</g>
<g id="XMLID_26_">
</g>
<g id="XMLID_27_">
</g>
<g id="XMLID_28_">
</g>
<g id="XMLID_29_">
</g>
<g id="XMLID_30_">
</g>
<g id="XMLID_31_">
</g>
<g id="XMLID_32_">
</g>
<g id="XMLID_33_">
</g>
<g id="XMLID_34_">
</g>
</svg>
