<?xml version="1.0" encoding="utf-8"?>
<!-- Generator: Adobe Illustrator 19.0.0, SVG Export Plug-In . SVG Version: 6.00 Build 0)  -->
<svg version="1.1" id="Layer_1" xmlns="http://www.w3.org/2000/svg" xmlns:xlink="http://www.w3.org/1999/xlink" x="0px" y="0px"
	 viewBox="0 0 235 50" enable-background="new 0 0 235 50" xml:space="preserve">
<g id="XMLID_27_">
	<path id="XMLID_185_" stroke="#000000" stroke-width="3" stroke-miterlimit="10" d="M79.2,17.3c0,1.9-0.6,3.9-1.8,6
		c-1.1,2.2-3.4,3.5-7,4.1l10.3,15.2h-5.4l-8.5-14.9c-0.6,0-3,0-7.4,0v14.7h-4.1V6.6h11.5c1.3,0,2.1,0,2.4,0c3.4,0.2,6.2,1.6,8.4,4.3
		c1.1,1.4,1.7,3.4,1.7,5.8V17.3z M67.4,24c3.2,0,5.4-1,6.7-2.9c0.5-0.8,0.7-2,0.7-3.8c0-1.8-0.3-3.2-0.8-4.1c-1-1.8-3-2.8-6.1-2.8
		h-8.6V24H67.4z"/>
	<path id="XMLID_188_" stroke="#000000" stroke-width="3" stroke-miterlimit="10" d="M86.9,42.4V6.9h21.9v3.8H91v10.8h14.6v3.8H91
		v13.2h18.2v3.8H86.9z"/>
	<path id="XMLID_190_" stroke="#000000" stroke-width="3" stroke-miterlimit="10" d="M142.1,6.6v35.7h-4L117.6,14v28.5h-4V6.6h3.7
		L138,35.2V6.6H142.1z"/>
	<path id="XMLID_192_" stroke="#000000" stroke-width="3" stroke-miterlimit="10" d="M170.5,16.2c1,2.4,1.4,4.9,1.4,7.4
		c0,12.5-4.9,18.7-14.7,18.7h-9.9V6.6h10.5C163.7,6.6,167.9,9.8,170.5,16.2z M154,38.3c2.3,0,3.6,0,4,0c2.9,0,5.2-1.1,6.9-3.3
		c1.7-2.2,2.5-5.7,2.5-10.7c0-7.4-2-11.7-6.1-13c-0.9-0.3-2.1-0.4-3.5-0.4h-6.4v27.5H154z"/>
	<path id="XMLID_195_" stroke="#000000" stroke-width="3" stroke-miterlimit="10" d="M177.7,42.4V6.9h21.9v3.8h-17.7v10.8h14.6v3.8
		h-14.6v13.2H200v3.8H177.7z"/>
	<path id="XMLID_197_" stroke="#000000" stroke-width="3" stroke-miterlimit="10" d="M225,6.6h5l-10.8,16.9l12.2,19h-4.8l-9.3-16.2
		l-9,16.2h-5l12.2-19L204.5,6.6h4.8l7.9,13.9L225,6.6z"/>
</g>
<g id="XMLID_68_">
	<g id="XMLID_178_">
		<g id="XMLID_179_">
			<path id="XMLID_183_" d="M11.7,33.6l-7.5-7.5c-0.6-0.6-0.6-1.6,0-2.2l6.6-6.6l-1.2-1.2l-7.7,7.7c-0.7,0.7-0.7,1.8,0,2.4l8.6,8.6
				L11.7,33.6z"/>
			<path id="XMLID_182_" d="M14.4,13.7l8.3-8.3c0.6-0.6,1.6-0.6,2.2,0l7.5,7.5l1.2-1.2L25.1,3c-0.7-0.7-1.8-0.7-2.4,0l-9.4,9.4
				L14.4,13.7z"/>
			<path id="XMLID_181_" d="M45.9,23.8l-8.6-8.6l-1.2,1.2l7.5,7.5c0.6,0.6,0.6,1.6,0,2.2l-8.3,8.3l1.2,1.2l9.4-9.4
				C46.5,25.5,46.5,24.5,45.9,23.8z"/>
			<path id="XMLID_180_" d="M31.6,38.1L25,44.7c-0.6,0.6-1.6,0.6-2.2,0l-7.5-7.5l-1.2,1.2l8.6,8.6c0.7,0.7,1.8,0.7,2.4,0l7.7-7.7
				L31.6,38.1z"/>
		</g>
	</g>
</g>
<g id="XMLID_55_">
	<g id="XMLID_64_">
		<path id="XMLID_65_" d="M14.3,22.4c0-0.8,0.2-1.5,0.5-1.9c0.6-0.9,1.4-1.4,2.4-1.4c0.1,0,0.3,0,0.7,0h3.2v12h-1.2v-4.9
			c-1.2,0-1.9,0-2.1,0l-2.4,5h-1.5l2.9-5.1c-1-0.2-1.7-0.6-2-1.4c-0.3-0.7-0.5-1.4-0.5-2V22.4z M19.9,24.8v-4.6h-2.4
			c-0.9,0-1.4,0.3-1.7,0.9c-0.1,0.3-0.2,0.8-0.2,1.4c0,0.6,0.1,1,0.2,1.3c0.4,0.6,1,1,1.9,1H19.9z"/>
	</g>
	<g id="XMLID_61_">
		<path id="XMLID_62_" d="M28.1,19v11.9h-1.1l-5.8-9.5V31H20V19h1.1l5.8,9.5V19H28.1z"/>
	</g>
	<g id="XMLID_57_">
		<path id="XMLID_58_" d="M33.5,22.2c0.3,0.8,0.4,1.6,0.4,2.5c0,4.2-1.4,6.2-4.1,6.2h-2.8V19h3C31.5,19,32.7,20.1,33.5,22.2z
			 M28.8,29.6c0.6,0,1,0,1.1,0c0.8,0,1.5-0.4,1.9-1.1c0.5-0.7,0.7-1.9,0.7-3.6c0-2.5-0.6-3.9-1.7-4.3c-0.3-0.1-0.6-0.1-1-0.1h-1.8
			v9.2H28.8z"/>
	</g>
	<polygon id="XMLID_56_" points="20.3,30.3 21.2,31 27.7,19.7 26.9,19 	"/>
</g>
<g id="XMLID_184_">
</g>
<g id="XMLID_199_">
</g>
<g id="XMLID_200_">
</g>
<g id="XMLID_201_">
</g>
<g id="XMLID_202_">
</g>
<g id="XMLID_203_">
</g>
<g id="XMLID_204_">
</g>
<g id="XMLID_205_">
</g>
<g id="XMLID_206_">
</g>
<g id="XMLID_207_">
</g>
<g id="XMLID_208_">
</g>
<g id="XMLID_209_">
</g>
<g id="XMLID_210_">
</g>
<g id="XMLID_211_">
</g>
<g id="XMLID_212_">
</g>
</svg>
