<?xml version="1.0" encoding="utf-8"?>
<!-- Generator: Adobe Illustrator 19.0.0, SVG Export Plug-In . SVG Version: 6.00 Build 0)  -->
<svg version="1.1" id="Layer_1" xmlns="http://www.w3.org/2000/svg" xmlns:xlink="http://www.w3.org/1999/xlink" x="0px" y="0px"
	 viewBox="11 -11.9 122.6 122.9" style="enable-background:new 11 -11.9 122.6 122.9;" xml:space="preserve">
<g>
	<path d="M15.9-11.9h112.7c2.7,0,4.9,2.2,4.9,4.9v113c0,2.7-2.2,4.9-4.9,4.9c-1.4,0-2.6-0.6-3.5-1.5l-53-45.6l-53,45.9
		c-2.1,1.8-5.2,1.6-7-0.5c-0.8-0.9-1.2-2.1-1.2-3.2h0v-113C11-9.7,13.2-11.9,15.9-11.9L15.9-11.9z M123.7-2H20.9v97.2V-2
		C22.7-3.6,121.8-3.6,123.7-2l0,97.2L123.7-2L123.7-2z"/>
</g>
</svg>
