<?xml version="1.0" encoding="utf-8"?>
<!-- Generator: Adobe Illustrator 19.0.0, SVG Export Plug-In . SVG Version: 6.00 Build 0)  -->
<svg version="1.1" id="Layer_1" xmlns="http://www.w3.org/2000/svg" xmlns:xlink="http://www.w3.org/1999/xlink" x="0px" y="0px"
	 viewBox="0 0 100 100" style="enable-background:new 0 0 100 100;" xml:space="preserve">
<style type="text/css">
	.st0{fill:none;}
	.st1{fill:#FFFFFF;}
</style>
<line id="XMLID_7_" class="st0" x1="172" y1="29" x2="172" y2="30"/>
<g id="XMLID_8_">
	<g id="XMLID_60_">
		<path id="XMLID_61_" class="st1" d="M99.1,0.9C98.3,0,97.1-0.2,96,0.2L1.8,37.9C0.8,38.3,0,39.3,0,40.5c0,1.2,0.6,2.2,1.6,2.7
			l34.1,16.6c0.4-0.1,0.9-0.1,1.6-0.1l25.9-25.8c0.5-0.5,1.3-0.5,1.9,0l0.5,0.5c0.5,0.5,0.5,1.3,0,1.9L39.8,62
			c-0.5,0.5,1,2.7,0.5,2.2l16.5,34.1c0.5,1,1.5,1.7,2.6,1.7c0,0,0.1,0,0.1,0c1.2,0,2.2-0.8,2.6-1.8L99.8,4
			C100.2,2.9,100,1.7,99.1,0.9z M40.4,55.5L10.2,40.8L84.9,11L40.4,55.5z M59.2,89.8L44.5,59.6L89,15.1L59.2,89.8z"/>
	</g>
</g>
<path id="XMLID_4_" class="st1" d="M13.2,38.6c-1.8,0.5-4.1,1.5-4,3.4c0,1.4,1.3,2.3,2.5,3.1c4.1,2.6,8.4,4.8,12.9,6.6
	c2.9,1.2,5.8,2.2,8.5,3.7c2,1.1,4.2,2.4,6.3,1.6c0.7-0.3,1.2-0.8,1.8-1.2C54.4,44,66,30.2,79.8,19c2.4-1.9,4.9-3.8,6.4-6.5
	c0.2-0.4,0.4-0.8,0.2-1.2c-0.2-0.2-0.5-0.3-0.7-0.4c-1.6-0.3-3.3,0.2-4.9,0.8c-11.3,4-22.3,9.1-33.5,13.3
	c-8.4,3.2-17.1,5.9-25.4,9.4c-3.1,1.3-6.2,2.8-9.3,4.4"/>
<path id="XMLID_5_" class="st1" d="M67.8,36.1C60.4,43,53.1,50,45.8,57.1c-0.9,0.8-1.8,1.8-1.8,3c0,0.8,0.4,1.6,0.7,2.4
	c0.7,1.8,0.9,3.8,1.4,5.7c0.4,1.4,1.1,2.8,1.8,4.1c0.6,1.2,1.2,2.5,1.9,3.7c0.8,1.6,1.6,3.2,3,4.3c0.9,2.7,2.1,5.4,3.4,8
	c0.6,1.1,1.4,2.2,2.6,2.2c1.1,0,1.8-1.1,2.4-2c3.4-5.8,5.9-12.2,8.4-18.5c2.1-5.2,4.1-10.5,6.2-15.7c1.1-2.9,2.3-5.8,3.2-8.8
	c0.7-2.5,1.3-5,2.3-7.4c1-2.5,2.3-4.8,3.5-7.2c2.5-5.2,4.2-10.7,4.9-16.4c-2.7,0.1-5,1.8-7.1,3.4c-6.2,4.9-12.4,10.5-15.3,17.9"/>
</svg>
