<?xml version="1.0" encoding="utf-8"?>
<!-- Generator: Adobe Illustrator 19.0.0, SVG Export Plug-In . SVG Version: 6.00 Build 0)  -->
<svg version="1.1" id="Layer_1" xmlns="http://www.w3.org/2000/svg" xmlns:xlink="http://www.w3.org/1999/xlink" x="0px" y="0px"
	 viewBox="0 0 1000 1000" style="enable-background:new 0 0 1000 1000;" xml:space="preserve">
<g id="XMLID_2_">
	<path id="XMLID_42_" d="M888.1,509.7c0,10.5,0.2,21.1-0.1,31.6c-0.6,23.6-15.5,40.9-39.5,45.5c-13.6,2.6-27.3,4.9-41,6.4
		c-14.8,1.6-16.8,16.5-22,27.7c-9.1,19.6-8.6,30.5,5.4,48.5c34.1,43.8,32.4,55.4-7.5,94c-9.4,9.1-18.7,18.5-28.4,27.4
		c-20,18.4-41.9,20.1-64.6,5.4c-1.2-0.8-2.6-1.5-3.6-2.5c-13.3-13.6-31.1-22.1-50.3-20.2c-14.1,1.4-40.2,10.1-42.2,26.8
		c-1.5,12.8-3.9,25.6-6.5,38.3c-4.8,24.1-22.5,38.6-47.8,38.9c-21.8,0.3-43.6,0.4-65.3,0c-24.4-0.4-41.9-15-46.8-38.4
		c-2.1-9.9-5.1-19.8-5-29.7c0.1-17.5-11.1-22.3-25-29.9c-23.1-12.6-40-8.2-57.4,7.8c-5,4.6-11.1,8.1-16.9,11.7
		c-19,11.8-41.1,10.9-57.6-3.8c-17.8-15.9-35-32.5-51.4-49.8c-15-15.8-16.1-36.1-3.9-54.4c8.3-12.5,18.2-23.9,26.2-36.5
		c7.4-11.7-5.2-39.9-13.9-48.8c-11.3-11.7-28.9-14.4-44.4-16.2c-13.7-1.6-29.1-8.1-39-17.2c-18.8-17.1-17.9-105.1,0.1-123
		c6.8-6.8,16.8-11.9,26.3-14.7c14.6-4.2,30.2-5.1,45.1-8.5c13.1-3,19.4-23.3,23-34.3c5.7-17.3,0.4-30.2-12.4-43.2
		c-5.4-5.5-9.5-12.2-13.7-18.8c-11.5-18.1-10.3-39.1,4.5-54.5c16.5-17.2,33.7-33.8,51.5-49.7c16.6-14.8,38.1-15.7,57.5-3.5
		c24.1,15.3,36.8,30.6,66.2,20.9c24.2-8,35.1-19.5,36.2-46.2c0.3-7.1,2.1-14.2,3.9-21.2c5.3-19.6,22-33.3,42.8-33.9
		c23.7-0.7,47.5-0.7,71.3,0c21.5,0.6,38.5,14.2,43.5,34.8c3.5,14.4,4.8,29.4,8.7,43.7c3.8,13.7,21.5,18.7,33.2,23.2
		c17.5,6.6,29.3,4.4,44.8-6.8c47.7-34.5,58.1-32.9,100.4,8.1c8.7,8.5,17.6,16.8,26.2,25.5c19.2,19.4,21.1,40.4,5.9,62.5
		c-0.8,1.2-1.7,2.3-2.6,3.5c-8.8,12.6-23.2,24.6-24.9,38.1c-1.9,14.9,12.5,46.7,28.3,50.6c13.4,3.2,27.3,4.6,40.9,7.1
		c26.9,4.8,41.5,21.4,41.9,47.7C888.3,489.6,888.1,499.7,888.1,509.7z M242.2,304.9c13.6,18.6,25.7,35.5,38.3,52
		c7.6,9.9,8.3,19.1,2.6,30.6c-9.1,18.5-17.1,37.6-24,57c-4.3,11.8-11,18.5-23.8,20.3c-18.1,2.6-36.1,6-54.2,8.7
		c-7.8,1.1-10.9,4.6-10.7,12.3c0.4,16.3,0.7,32.6-0.1,48.9c-0.5,10.1,4.2,13.3,13.5,14.6c17.6,2.5,35.1,6,52.7,8.4
		c12.2,1.7,18.8,8,23.1,19.2c7.6,19.7,16.2,39,25.3,58c5.1,10.7,5.3,19.9-2,29.5c-10.9,14.2-21,29-32.1,43.1
		c-5.3,6.8-4.7,11.3,1.6,17c12.6,11.4,24.9,23.3,36.7,35.6c5.6,5.8,10,5.9,16.3,1.3c14.6-10.6,30-20.4,44.6-31
		c10.8-7.9,20.9-8.1,33-2.4c18.2,8.4,37,16,56.1,22.3c13,4.3,19.5,11.6,21.3,24.5c2.4,16.6,6.1,33,8.3,49.6
		c1.2,8.8,4.5,12.6,14.1,12.3c16.8-0.6,33.7-0.4,50.5,0c8.6,0.2,12.4-2.8,13.5-11.2c2.4-17.1,6.1-34,8.6-51
		c1.9-12.8,8.6-19.9,21.6-24.2c19.6-6.5,38.7-14.3,57.3-23.1c12.2-5.7,22.1-5.7,33,2.1c17,12.3,34.5,23.9,50.3,34.8
		c18.1-17.4,35.1-33.8,53.2-51.1c-11.7-15.9-24-33.2-36.8-50.2c-7.2-9.6-7.3-18.6-2.1-29.4c9.2-19,17.6-38.4,25-58.1
		c4.2-11.2,11-17.5,23.1-19.3c18.1-2.7,36.1-6.2,54.2-8.5c8.6-1.1,12-4.5,11.8-13c-0.4-16.3-0.5-32.6,0-48.9
		c0.3-9.1-3.3-12.6-12.6-13.7c-17.6-2.2-35.1-5.8-52.7-8.4c-12.6-1.9-19.6-8.4-23.9-20.3c-6.8-18.9-14.5-37.6-23.8-55.5
		c-6.4-12.4-6-22.3,2.5-33.1c10.8-13.7,21.1-27.8,30.8-42.2c2.2-3.3,3-10.8,0.8-13.1c-14.6-15.5-30.3-30.1-46.5-45.8
		c-18.2,12.6-35.6,24.2-52.5,36.5c-10.8,7.8-20.7,8.2-33,2.6c-19.6-9-39.8-16.8-60.2-24c-11.4-4-18.5-10-20.3-22
		c-2.6-17.5-6.2-34.9-8.9-52.4c-1.2-8-4.7-11.6-13.5-11.3c-16.8,0.5-33.7,0.6-50.5,0c-9.6-0.4-13,3.5-14.3,12.1
		c-2.6,17.5-6.4,34.9-9.1,52.4c-1.9,11.9-8.8,18-20.2,22.1c-19.9,7.1-39.4,15.2-58.6,23.9c-11.5,5.3-21.4,5.7-31.8-1.9
		c-14.7-10.6-29.5-21-44.8-30.7c-3.4-2.2-11.2-2.9-13.6-0.7C273.5,274.1,258.5,289.2,242.2,304.9z"/>
	<path id="XMLID_36_" d="M507.5,350.9c90.8-0.3,164.3,70.6,164.3,158.5c0.1,87.9-73.3,158.9-164.1,158.8
		c-90.2-0.1-163.1-70.5-163.6-157.8C343.6,422.5,416.7,351.2,507.5,350.9z M507.8,392.1c-66.3,0.1-121,53-121.1,117.1
		c-0.1,64.1,54.4,117.2,120.7,117.6c66.8,0.4,122.1-53.1,121.8-117.9C628.9,444.7,574.2,392.1,507.8,392.1z"/>
</g>
</svg>
