<?xml version="1.0" encoding="utf-8"?>
<!-- Generator: Adobe Illustrator 19.0.0, SVG Export Plug-In . SVG Version: 6.00 Build 0)  -->
<svg version="1.1" id="Layer_1" xmlns="http://www.w3.org/2000/svg" xmlns:xlink="http://www.w3.org/1999/xlink" x="0px" y="0px"
	 viewBox="0 0 100 100" style="enable-background:new 0 0 100 100;" xml:space="preserve">
<style type="text/css">
	.st0{fill:#FFFFFF;}
</style>
<path id="XMLID_1_" d="M87,95.8H13c-4.4,0-8-3.6-8-8V32.1c0-4.4,3.6-8,8-8H87c4.4,0,8,3.6,8,8v55.8C95,92.3,91.4,95.8,87,95.8z"/>
<path id="XMLID_2_" d="M66,30H34c-2.2,0-4-1.8-4-4V14c0-2.2,1.8-4,4-4H66c2.2,0,4,1.8,4,4V26C70,28.2,68.2,30,66,30z"/>
<path id="XMLID_3_" class="st0" d="M63.7,24.2H36.3v-5.8c0-1.6,1.3-3,3-3h21.5c1.7,0,3,1.3,3,3V24.2z"/>
<g id="XMLID_6_">
	<rect id="XMLID_4_" x="5" y="46.6" class="st0" width="90" height="5.4"/>
	<path id="XMLID_5_" class="st0" d="M54.5,59h-9c-1.7,0-3-1.4-3-3V44c0-1.7,1.4-3,3-3h9c1.7,0,3,1.4,3,3v12
		C57.5,57.6,56.1,59,54.5,59z"/>
</g>
</svg>
