<?xml version="1.0" encoding="utf-8"?>
<!-- Generator: Adobe Illustrator 19.0.0, SVG Export Plug-In . SVG Version: 6.00 Build 0)  -->
<svg version="1.1" id="Layer_1" xmlns="http://www.w3.org/2000/svg" xmlns:xlink="http://www.w3.org/1999/xlink" x="0px" y="0px"
	 viewBox="-44 44 11 14" style="enable-background:new -44 44 11 14;" xml:space="preserve">
<style type="text/css">
	.st0{stroke:#000000;stroke-width:0.5;stroke-miterlimit:10;}
	.st1{fill:none;stroke:#000000;stroke-width:0.5;stroke-miterlimit:10;}
	.st2{fill:#FFFFFF;}
</style>
<g id="XMLID_1_">
	<g id="XMLID_336_">
		<path id="XMLID_337_" class="st0" d="M-39,44.3c-2.6,0-4.8,2.2-4.8,4.8s2.1,4.8,4.8,4.8s4.8-2.2,4.8-4.8S-36.3,44.3-39,44.3z
			 M-39,52.9c-2.1,0-3.8-1.7-3.8-3.9c0-2.1,1.7-3.8,3.8-3.8s3.8,1.7,3.8,3.9C-35.2,51.2-36.9,52.9-39,52.9z"/>
	</g>
</g>
<path id="XMLID_2_" class="st0" d="M-33.5,57.6L-33.5,57.6c-0.3,0.2-0.5,0.2-0.6,0l-3-4.4c-0.2-0.2-0.1-0.4,0.1-0.5l0.1-0.1
	c0.2-0.1,0.4,0,0.5,0.2l3,4.3C-33.3,57.2-33.3,57.4-33.5,57.6z"/>
<path class="st1" d="M-35.7,49.1c0-0.5-2.3-0.8-3.2-0.8s-3.2,0.4-3.2,0.8c0,0.5,2.3,0.8,3.2,0.8S-35.7,49.5-35.7,49.1z"/>
<ellipse cx="-39" cy="49" rx="0.7" ry="0.7"/>
<ellipse class="st2" cx="-38.7" cy="49.1" rx="0.3" ry="0.3"/>
</svg>
