<?xml version="1.0" encoding="utf-8"?>
<!-- Generator: Adobe Illustrator 19.0.0, SVG Export Plug-In . SVG Version: 6.00 Build 0)  -->
<svg version="1.1" id="Layer_1" xmlns="http://www.w3.org/2000/svg" xmlns:xlink="http://www.w3.org/1999/xlink" x="0px" y="0px"
	 viewBox="0 0 300 300" enable-background="new 0 0 300 300" xml:space="preserve">
<g id="XMLID_1_">
	<g id="XMLID_25_">
		<path id="XMLID_26_" d="M221,132H79.7c-7,0-11.6,8.2-8.3,15.1L142,294.5c3.5,7.3,13.1,7.3,16.6,0l70.6-147.5
			C232.5,140.2,228,132,221,132z"/>
	</g>
</g>
<g id="XMLID_3_">
	<g id="XMLID_48_">
		<path id="XMLID_49_" d="M150.5-0.3c-52.5,0-95,42.5-95,95c0,52.5,42.5,95,95,95s95-42.5,95-95C245.5,42.2,203-0.3,150.5-0.3z
			 M150.7,130.5c-24.9,0-45-20.1-45-45c0-24.9,20.1-45,45-45c24.9,0,45,20.1,45,45C195.7,110.4,175.5,130.5,150.7,130.5z"/>
	</g>
</g>
</svg>
