<?xml version="1.0" encoding="utf-8"?>
<!-- Generator: Adobe Illustrator 19.0.0, SVG Export Plug-In . SVG Version: 6.00 Build 0)  -->
<svg version="1.1" id="Layer_1" xmlns="http://www.w3.org/2000/svg" xmlns:xlink="http://www.w3.org/1999/xlink" x="0px" y="0px"
	 viewBox="0 0 300 50" enable-background="new 0 0 300 50" xml:space="preserve">
<g id="XMLID_27_">
	<path id="XMLID_55_" stroke="#000000" stroke-width="3" stroke-miterlimit="10" d="M44.2,16c0,2.4-1,5-2.9,7.7
		c-1.8,2.8-5.7,4.5-11.7,5.2l17.2,19.4h-9.1l-14.2-19c-0.9,0-5,0.1-12.3,0.1v18.8H4.4V2.4h19.1c2.2,0,3.5,0,3.9,0.1
		c5.7,0.2,10.3,2.1,14,5.5c1.9,1.8,2.8,4.3,2.8,7.4V16z M24.6,24.6c5.3,0,9-1.2,11.1-3.7c0.8-1,1.2-2.6,1.2-4.9
		c0-2.3-0.4-4.1-1.3-5.3c-1.6-2.4-5-3.5-10.1-3.5H11.2v17.5H24.6z"/>
	<path id="XMLID_58_" stroke="#000000" stroke-width="3" stroke-miterlimit="10" d="M57,48V2.7h36.5v4.9H63.9v13.8h24.3v4.9H63.9
		v16.8h30.3V48H57z"/>
	<path id="XMLID_60_" stroke="#000000" stroke-width="3" stroke-miterlimit="10" d="M149.1,2.4V48h-6.7l-34.1-36.2v36.4h-6.7V2.4
		h6.2l34.3,36.5V2.4H149.1z"/>
	<path id="XMLID_62_" stroke="#000000" stroke-width="3" stroke-miterlimit="10" d="M196.3,14.6c1.6,3.1,2.4,6.3,2.4,9.5
		c0,15.9-8.1,23.9-24.4,23.9h-16.5V2.4h17.5C185,2.4,192,6.4,196.3,14.6z M168.9,42.8c3.8,0,6,0,6.7-0.1c4.9,0,8.7-1.4,11.5-4.2
		c2.8-2.8,4.2-7.3,4.2-13.7c0-9.4-3.4-15-10.1-16.6c-1.6-0.4-3.5-0.6-5.8-0.6h-10.7v35.1H168.9z"/>
	<path id="XMLID_65_" stroke="#000000" stroke-width="3" stroke-miterlimit="10" d="M208.2,48V2.7h36.5v4.9h-29.5v13.8h24.3v4.9
		h-24.3v16.8h30.3V48H208.2z"/>
	<path id="XMLID_67_" stroke="#000000" stroke-width="3" stroke-miterlimit="10" d="M287,2.4h8.4l-18,21.6l20.3,24.3h-8l-15.6-20.7
		L259,48.2h-8.4L270.9,24l-18-21.6h8l13.2,17.8L287,2.4z"/>
</g>
<g id="XMLID_54_">
</g>
<g id="XMLID_69_">
</g>
<g id="XMLID_70_">
</g>
<g id="XMLID_71_">
</g>
<g id="XMLID_72_">
</g>
<g id="XMLID_73_">
</g>
<g id="XMLID_74_">
</g>
<g id="XMLID_75_">
</g>
<g id="XMLID_76_">
</g>
<g id="XMLID_77_">
</g>
<g id="XMLID_78_">
</g>
<g id="XMLID_79_">
</g>
<g id="XMLID_80_">
</g>
<g id="XMLID_81_">
</g>
<g id="XMLID_82_">
</g>
</svg>
