<?xml version="1.0" encoding="utf-8"?>
<!-- Generator: Adobe Illustrator 19.0.0, SVG Export Plug-In . SVG Version: 6.00 Build 0)  -->
<svg version="1.1" id="Layer_1" xmlns="http://www.w3.org/2000/svg" xmlns:xlink="http://www.w3.org/1999/xlink" x="0px" y="0px"
	 viewBox="0 0 200 35" enable-background="new 0 0 200 35" xml:space="preserve">
<g id="XMLID_1_">
	<path id="XMLID_108_" fill="#FFFFFF" d="M24.3,22.8l5.6,10.8H18.6l-4.2-9.6h-2.2v9.6H1.8V1.3H18c7.4,0,11.1,3.8,11.1,11.3
		C29.1,17.7,27.5,21.1,24.3,22.8z M14.5,9.5h-2.4V16h2.4c1.3,0,2.2-0.1,2.7-0.4c0.6-0.3,0.8-0.8,0.8-1.8v-2.2c0-0.9-0.3-1.5-0.8-1.8
		C16.6,9.7,15.7,9.5,14.5,9.5z"/>
	<path id="XMLID_111_" fill="#FFFFFF" d="M57.3,21.4H47v3.9h12.6v8.3h-23V1.3h22.7l-1.3,8.3H47v4.3h10.3V21.4z"/>
	<path id="XMLID_113_" fill="#FFFFFF" d="M95.9,33.5h-9.7l-7.9-11.4c-0.1-0.2-0.3-0.5-0.3-0.9s-0.1-0.9-0.2-1.6h-0.2v13.9H67.2V1.3
		H77l7.9,11.4c0.1,0.2,0.3,0.5,0.3,0.9c0.1,0.4,0.1,0.9,0.2,1.6h0.2V1.3h10.3V33.5z"/>
	<path id="XMLID_115_" fill="#FFFFFF" d="M118.7,33.5h-14.4V1.3h14.4c2.9,0,5.3,0.3,7.3,0.9c1.9,0.6,3.5,1.5,4.7,2.8
		c1.2,1.3,2,3,2.5,5c0.5,2,0.8,4.5,0.8,7.4c0,2.9-0.3,5.4-0.8,7.4c-0.5,2.1-1.3,3.7-2.5,5c-1.2,1.3-2.7,2.2-4.7,2.8
		C124,33.2,121.6,33.5,118.7,33.5z M118.8,9.5h-4.3v15.7h4.3c1.4,0,2.5-0.2,3.1-0.5c0.6-0.3,0.9-1.1,0.9-2.3V12.3
		c0-1.2-0.3-1.9-0.9-2.3C121.3,9.7,120.3,9.5,118.8,9.5z"/>
	<path id="XMLID_118_" fill="#FFFFFF" d="M161.3,21.4H151v3.9h12.6v8.3h-23V1.3h22.7l-1.3,8.3H151v4.3h10.3V21.4z"/>
	<path id="XMLID_120_" fill="#FFFFFF" d="M180.3,1.3l3.6,8.6h0.5l3.6-8.6h11.2L192,16.8l7.1,16.7h-11.4l-3.9-9.3h-0.5l-3.8,9.3
		h-10.9l7-16.3l-7-15.9H180.3z"/>
</g>
<g id="XMLID_2_">
</g>
<g id="XMLID_107_">
</g>
<g id="XMLID_122_">
</g>
<g id="XMLID_123_">
</g>
<g id="XMLID_124_">
</g>
<g id="XMLID_125_">
</g>
<g id="XMLID_126_">
</g>
<g id="XMLID_127_">
</g>
<g id="XMLID_128_">
</g>
<g id="XMLID_129_">
</g>
<g id="XMLID_130_">
</g>
<g id="XMLID_131_">
</g>
<g id="XMLID_132_">
</g>
<g id="XMLID_133_">
</g>
<g id="XMLID_134_">
</g>
<g id="XMLID_135_">
</g>
</svg>
